<mxfile>
    <diagram id="rACHLqSyg_Fy6e9twvd4" name="实现方式">
        <mxGraphModel dx="1763" dy="1514" grid="1" gridSize="10" guides="1" tooltips="1" connect="1" arrows="1" fold="1" page="1" pageScale="1" pageWidth="827" pageHeight="1169" math="0" shadow="0">
            <root>
                <mxCell id="0"/>
                <mxCell id="1" parent="0"/>
                <mxCell id="2" value="" style="shape=image;verticalLabelPosition=bottom;labelBackgroundColor=#ffffff;verticalAlign=top;aspect=fixed;imageAspect=0;image=data:image/png,iVBORw0KGgoAAAANSUhEUgAAATgAAAEQCAIAAACr4v9mAAAgAElEQVR4Aey9d1hVSdI4DNycA3DJCBckgwQJKgrmjAkHURFEBBUTKkZ01BndMWAW42AaRUUx56yk0VFQRgVUQEAyXMLNF/D3LOX2nu9wdO/M7Lv7Pt/L+QNO16mqrq6u6q6u7nOPzuf/79Xe3v7582f4i558uwhofwIHS/htcnj6p3EICQmBuCb/CRxsoxA3QiCOuTY4QKINoTbc/jQOlhAnDGGREAhMkLER4mgP1IabNji4GrEtxZHjijhCwiIOSMicENje3q6D6sNi4Dh+u4glRNxwJIQ4WCAOn7BICMTVSIijPVAbbt/GwTYKYRICcVJpgwMk2hBqw+1P42AJccIQFgmBwKTLUXHKweoWq6IuR/2iDZy+oEgIxKoP2RkCwg2OkBD4J3AIpSJkTgj8EzUS8sECcTwJi4RAYIIUSIijPVAbbtrg4GrEthRHjiviCAmLOCAhc0Jg14yKtE0c7eM0S1jEAQkVTQjUhhCHA0UckJA5IVAbQm1wsMxx+IRFQiAw6XJUnHKwusWqqGtG/aINnL6gSAjEqg/ZGQLCDY6QEPgncAilImROCPwTNRLywQJxPAmLhEBgghRIiKM9UBtu2uDgasS2FEeOK+IICYs4ICFzQmDXjIq03TWjflHFHzUmHD5hkRCIVA9PCXG0B2rDTRscXI1AggMSFgmB366RkDkhsMtRkSa7HPWLKnAGR2g3WCAOn7BICESqh6eEONoDteGmDQ6uRmxLceS4Io6QsIgDEjInBHY5KtJ2l6N+UcUfNSYcPmGREIhUD08JcbQHasNNGxxcjUCCAxIWCYHfrpGQOSHwzztqO+b6GmskJbrBNQZLiHtEWCQE4pgT4nwNiGnE328Rq28vnBAakLe1tSE+2EfY+84IqAqEBjeEYiAceIrDISREQKgaFRErdIPjhiv+S0IcPmGREIgTgBBHe6A23LTBwdVI2HwcDhQJgd+ukZA5IbDLUZEH/f0GqRV5ESEQoQHx/3JHbeu4CI3pazaBGohucHrAEuIeERYJgTjmhDjaA7Xhpg0OrkZsS3HkuCKOkLCIAxIyJwR2Oer//x21teNCowkyL3SDsx5ckdBusEAcPmGREIgTgBBHe6A23LTBwdWIbSmOHFfEERIWcUBC5oTA/1lHxToBtnocnHBewjUJigiII8Exh+K/BILtogkHMUeEUEtnbgiCEwPLAR59AwFN2nCD8HEehRqOvcFWhBUGe4+q1nRcra2twBnhoBscN1REIsENFh8xxz3CNgrwkdjYR6gKhNPe3o4TD0uIqxqp6Gs4OJViq0Y1EgKxzYF79BfJQEj4NSCiIhQVKwzCJAT+3VE7a03LWv8la9RIVAUSF7kH1IX6CWkKkWDlRkBAQx0GTLBFJBuqEUFQ6zQaTXt7O9gxAn7+/FnZccFTVCNWDMQKxxyLjG07EgyLgK0RiwzyYElAOQDB6g2J0Vk2xLCtra2l41IqlQDEUWHFwPFBTHCEMEVjJ2osT8I2fkNRIAAyAMQKR4JkQxpAUn2tRqzevoaDqkNiIEyoCFWHw+xcRIRI1H+JQ4hJCPy7o4IFIKZQnza1IhLEGtu1OFNDOKARpAXUQ1j8r1kPkgoqwpK0tbXBpIEFIuaIECtGa2urQqGoqqpqamrCYra3t6tUKmnHhZuICPlggUgwtVoNLqfRaLAiYZWGCLF6g3uNRqNQKFpbW0Gw1tZWjUaDhEGEhNywNtfW1qZQKOo7Lhh6sCRYbSA4Yt5ZKhAGNQfpHJFo33GICdI8QHBi4DhjzQbE+0aNIB5SGuKMSLDMsUCkczQkEWIihvD0T+AABxwhIfDvjoprifa1IkERa9SRaBxCnY1wQCNI46izsT2HtIaqwEkFbLEkGo1GpVKhYR7xx7UOKwaYvlQqbWpqUqvVgNnW1qZWq6VSqUKhaG9vVyqV4GlYwq9JBWK3traq1eqmpqbGxsbm5uaWlhasnIgW20akJaRAtVotl8tBJPBSuVyuVCrb2tqwhITcAAGpSKPRNDc3NzY2qtVqLW0CNRYrGEQfSqVSLpfLZLKWlpbm5mbs8IGoOkuF6m1vb8cOOqibkLsiWmyPo7ag/kWCddYGFhnGys42gGXeuUboQTTOdh7gUHOwTSYEdmaOIOgGR4jlicX54qhgAajZOOJ/WUQahxtVx4VTE+oMwAH1gYPB/AMG3dkWESHMMBCa4jxcrVaDUyFWaDhEcxrwByZgMVVVVU+fPi0sLFQqlWBASqUyPz8/IyMjJyentrZWKpWq1WogRMrBqg9ZDDQKWTMIiZyf0FeRW7a1tYGuYLxAOoEmqNVqlUrV3NwMcyxWGGy/gCSom5G9oq752oiDI0QNwc5ISBKpVKpSqTQajbzjQo6KtIoTD/Umkkej0UAfAU/EAa01EObnz5+BGzIY0BIWCDpEPQJ9BJIjT4OKcJIQEgIQwhmlUgktxTkq4IDmQdTOfzubCpIZkHECY4uoB7HAL6EvKAKLgbWAzrVinyLThHFIpVI1NTVlZ2dfunTpwYMHWVlZHz9+hKkArBC01tTU9OHDh4yMjDNnzpw4ceLGjRvv379XqVRoBoOGQUVgx8BfrVY/ePDg9u3blZWVKpUKJsC2tjaZTFZQUHDv3r2TJ08mJyefO3fuxYsXzc3NyCaASVtbG6zW1Gp1eXn5+vXrPT09R48efebMmbq6OrVaXVBQEBUVZWlp6enpuXPnzo8fP4KfqDsu5PPImNra2uRyOUTLMKXDZJifn3/16tUXL160tLQoFAqYzTp3ORLvw4cPjx8/LikpAcMFfBg7KioqLl68eOLEiadPn8pkMpwMqDuxFgBKVqlUEokElAADE244Rj2OOhS5hEqlys/Pf/DgwbNnz1paWsDoVSoVzMwlJSUXOq6nT582NDTAU6QT4AYGjYIC5DxtbW0SiaSoqCg9PT0rK6usrAzMQ6VSAQdEAjKjwU6j0cB6G1kaqAJNgNDq1tbWlpaWT58+PX/+/N69e2/fvpXJZIgJchiQB2pEkoPym5qarly5kpSUdPfuXRjBkX7AF6Be0BUID4SID4oa0LSBjB8EQL3W2blQp+Bw/r5GhQuLgZWsMy/sU9AmWGdzc/P169dnzZrl7u5uYmJiaWlpb28/fvz4Y8eOwZIPxqoPHz4kJCQMHjzY1tZWX19fKBTa2NiEh4dnZWVJJBKZTKZQKNB49vnzZ+gJCAVfvXo1derUYcOGXb9+HTxErVa3tLQ8ePAgLCzM3t7e2NhYKBSKRCJXV9fFixdnZma2tLS0traCHSAHUKvVL1++DAwMJJFINBptwIAB2dnZVVVVR48etbS0JJPJDAYjNjY2Pz8fdA09oVAoJBJJY2MjGqRbW1ulUum7d+8OHjx49epVqVSqVCqbm5vXrVvn5OTk4eGxePFicD8IpEGZoHBkJUVFRXPnznVzc4uMjExPT4fRSqFQtLS0lJeXr1y5UiwWi0Si77777vfff0fDFq7Lse4Bw0pWVtby5ctXrVqVnZ3d1NQE/oajQp0LfgVhv1KpLCsrS0hI6NmzZ//+/S9dugQ61Gg0Uqm0urp67dq1dnZ2YrF4ypQp5eXlODPFSiKTyeRyuUajAYsHe62rq9u4caOnp6e3t/e2bdukUik4EtgSuD3yOqzRP3nyZPv27ampqe/evZPL5Wq1urq6urKysqysrLS0NDc39+LFiwcOHEhISIiMjOzXr5+Tk1NYWFhmZiYauVBQhhZKqCth0NdoNPfv33d1dWWxWJMnT66rqwNXRJ2FFVLScYHFwnKgsbGxpaVF1nHJ5fLm5uaampqKiorq6uq6urqamhoYmLDcsN6EnBMH/JL1BbI/7agwTUkkkhs3bgQGBnI4HAqFwmKxOBwOuIG3t/eVK1egP+rr6zdt2mRmZkalUikUCrvjIpPJdDo9ICDg9OnTzc3N4KXQqeCo4LoymWzjxo3W1tbm5ubnz5+HoFQqld66dWvYsGEsFotEIjEYDCaTSaPR6HQ6h8Pp379/ampqQ0ODQqGAYaKtrU2lUikUiuTk5G7duunq6rLZ7MjIyIqKivr6+vnz5zMYDCqVKhaLd+/eXVFRAUMvuBYYHCwXoadVKtWbN28mTJjA5/NdXV2vXLnS0NBQWFg4ZswYkGHIkCEfPnwAcrVaDeEchH8QjLS0tGRlZdnb2+vq6pqYmKSkpCiVSvC0lpaWK1eudO/eXUdHR1dX18LCYs+ePU1NTWgUQzMk8jc0vVRUVMybN4/NZgsEgn79+l27dg1FrVgqRIjMFAw3Nzd33LhxJBLJ2Nj40KFDEomkpaWloaFBJpNdvnzZx8eH1HFZWFicOnWqubkZ/B8XFkK4oVAoampqysvLJRIJtKuhoWH+/PnQ9XFxcTKZDIKp+vr6rKysBw8e5OXlNTY2gm/DUKhUKqurq5csWSIUCs3MzObOnZuVlfXkyZMZM2YMHz58wIABfn5+Li4uZmZmPB6PTqdTKBQSiUShUCwtLZOTk0GlMF6/e/fu1KlTx44dKygogBgePYX55sSJEwKBgEwmDx8+vLi4GDoaehCaCSm6srKy+Pj40NDQJUuWrFq1Kj4+fs6cOREREbGxsYsWLVqyZEl8fPzcuXMjIyMnTZo0oeOaMmXKvHnzXrx4gbh1Hjexboj12z//mhsaFcCUnz17NnDgQAqFIhQKfXx8oqOjFy1aNHr0aCMjIyaTOWTIkPT0dLVaff78eVdXVzKZLBAIBg4cuHr16hUrVgQEBLBYLAqF4u/v//DhQxih0TitUqnkcrlUKr19+7abmxuZTBaLxbdv34a55cOHD6GhoQwGg8Vi+fn5JSQkbNmyZeHChT179qTT6Vwud8SIEa9evYIsCOhFoVCUl5ePHDmSRqORSCRPT89Lly41NDRcuXLFzs6OTqeTyWQfH5+kpKR79+5lZ2c/efLkxYsXmZmZ9+7du337dm5uLthca2srhEnW1tb0jis2Nraqqqq2tjY2NpZCoZDJ5JiYmOrqapgWUDeDo7a2ttbV1WVlZR0+fNja2ppEIrm6uu7YsSMrK6uiokIul7948WLIkCEsFovNZpuYmFCp1MDAwCtXrkgkEhRmY/sSRR8KhaK5ufnIkSMODg4UCoXBYAQEBJw7dw6J3draiiMEZSqVypaWltzc3L179/r4+JDJZAcHh8TExF9//RVmiYyMjODgYAaDweVy9fX1aTSap6dnSkpKfX09xCzQRrCNtrY2qVT64MGDkJCQ/v37f//99xUVFRqNpqqqasaMGXQ6ncFg/Pjjj83NzeBC9+7dCwwMtLe3j4mJyc3NhZG9tbVVLperVKrr16/37NmTTCZbW1uvW7fu7du3x48ft7S0ZLPZZDKZyWQKBAJDQ0MzMzN3d3dXV1crKys7O7u+ffumpaWhCFYqlW7evNnW1tba2vrQoUNKpVImk0GrZTJZXV1dU1PTwYMHBQIBjUYLDw8vLCxsbGyUyWRoBQTWrlAoHj165OjoCP3OYrFoNBqVSqXT6VQqFcZ6gHA4HBaLBY9oNJqRkdGJEyf+044KQsNweOTIEaFQSKFQxo4d+/Dhw48fPzY1Nb1582bmzJkwri9cuLCkpGTmzJk0Go3BYIwZM+bRo0cymayysjIjI2PEiBF0Op3FYsXFxdXW1oKXQqACvfjs2bPJkyez2WwdHR1LS8u0tLTm5uaqqqqTJ0+am5uDk9+7d0+hUIDGr1y50qtXLwqF0q1bt6NHj0IABrO0Uqm8evWqiYkJiURis9mxsbElJSXFxcXjx49nMBi6uro6OjpCodCk47K0tDQzM7OxsTE2NhaJRKamppMnT379+jX0PUwXK1as0NfXp1AodnZ2SUlJ79+/nzlzJplM5vP5W7duRZhoRQqOqlAoLl26FBgY2K1bNwqFAh1sbW3t4eFx8ODBpqamH374QV9fn8Vifffdd/v37/f396dSqV5eXjt27KiqqoIYAeXtcAGnQqGorq7et2+fl5cXmUymUCiBgYFZWVkajQZCd5yjwmSoVCpv3bo1YMAAW1tbPp+vq6vLYDAsLS179+594MCBX3/9NTw8nMvlstnsCRMmJCQk9O7dm06n9+jRY9u2bRUVFRCqoL5ra2tramo6cOAAzHITJkwoLS1ta2urqKiYNGkSlUpls9nbt2+HAEGpVJ46dYrP51MolEmTJhUVFUE2AeK15ubmNWvWwEQXEhKSmZlZVlb2+++/T5o0ycnJKSAgICQkJCAgwNbWdsiQIQ8ePNizZ4+Xl5eVlVV0dPS7d+8gtIYxYu7cuXw+X09PLyQkJD8/XyKRpKenb++4tm3btn///kmTJnG5XDKZHBAQsGHDhh07dhw4cCA5Ofn8+fPl5eUQkanV6vT0dBcXFx0dHSMjoxEjRkydOnXkyJEBAQGBgYEjRowYOnRo7969e/bs6eXl5eHh4erq6uDg4OHhMXTo0Ozs7P+Co4KvFhUVLV26lNNxrV27tq6uDlQjl8u3b99uZmZGoVCGDh26Z88eJycnOp3u6uqanp4ul8th0G1paUlPT3d2dqbRaAMHDnzz5g1qCcSrJSUlc+fOFQqFenp6ECL+8ssvcrm8sbExMTGRyWQKhcJNmzbBuA5DYF1d3fr163k8HoPBmD9/fk1NDTh8W1tbXV3d5MmTKRSKjo6OnZ3d3bt3JRLJmTNnzM3N9fT0yGSybscF0Z2uri6JRKJSqVCk0Wj9+vV78eIFrJHevXtXWVn5+PFjLy8vOp0uFouTkpJ+/fXX/v37k0ik7t27Hz9+XCKRKBSKxsZGyCJCpAdJptTU1L59+/L5fCqVymQyuVyuQCCwtrbetWvX9u3bxWIxjUbr1atXcnJyWVnZ3/72N1NTUwaD0a1bt+jo6Bs3brx79w7aBSMaxLFg2TDlNjU1XbhwwdXVlUajCQSCFStWwMjYeUYFR1UoFHfu3Bk5ciSbzdbV1dXT0xMIBBYWFra2tuHh4RMmTDAyMqJQKDDz3717d926dTY2NhQKxdnZOSoq6u7du0VFRRKJBHLCEApt3bqVwWDweLx169ZBqqK6unry5Ml6enp8Pn/37t2QIVcqlefOnRMKhQwGIyoqqrGxEa3IWltbq6qqxowZQ6VSPTw8UlNTjxw5MmfOnF27dq1atcrFxcXPz+/777+fOHEik8n09PR8/PgxDJ2Ghobbtm0rLi7+9OkTrPxlMllycrKrq6uurq6BgcFPP/104cKF8ePHC4VCQ0NDHo8nEAioVKqenh4EREKhUF9fXyAQGBsb+/j4QBwH/fj48WNHR0cSiRQYGJidnV1TU/P27dusrKyCgoKioqKSkpL3798/ffr04MGD06ZNi4iISEpKSk9P/+2335qampB5/4dCX6hPpVI1NDTs3LmTz+fT6fSIiIiCggJYFlZVVcXFxUFwMmLEiDVr1ohEIiqVGhISUlJSIpPJYHySSqXl5eWDBg2iUqmWlpaXL19G6zSZTPbq1att27aJxWJdXV0mk6mnp2diYnL48GGJRFJaWjpv3jwej9ejR4/Lly/X1NSoVCrIiEil0kOHDhkaGlIolNmzZ1dUVMDIrVAoDh06BJOwrq6uq6trbm7uq1evhg0bRiaT9fT0IAjX0dFhMpkjRoyYPn16ZGTktGnTQkJCxo8fHxERcfTo0cbGxurq6oKCgrS0tJs3b546dSo4OLhPnz7BwcEbNmzYunWrl5cXhUIRi8UbNmy40XGdPHkyJSXll19+OX78+Js3bxobGxUKxZs3b/bt29ezZ08SieTl5XXo0KH9+/fv27cvPDwcXIJKpZqZmTk6Ovr5+cEYB+MIl8s1MDDw9vZevnz5u3fv0B4p+Buyg5aWlsLCQhg1dHV13dzc0tPTGxoaYLUMkyp2KtZoNE1NTTdu3PDz82Myma6urtu2bTt37tyePXuGDx/O4/FgQGGz2Y6Ojj179oRYQFdXl9xx2djYDBo0aO/evWVlZRDCtLa2btmyhc/ns1ishIQEiUTS1tbW2NgYGRlJIpGEQuG2bdvkcjnkIC5fvmxkZESn06dPn15fXw9GrFKp6urqfvnlF1dXVw6Hs3Tp0pcvX44ZM4bD4ZiZmfn7+3O5XD6fP3369JiYGB6PZ2FhMWfOHGdnZxaLNXjw4MePH9fV1ZWVlaF81adPn5YvX85isSAtsmPHjuHDh5PJZBqNxuVyjYyMDAwMoDl0Oh2KHA5HT09PKBQePXoUFvOtra3Z2dl2dnYkEmnkyJGVlZXPnj07cODA1q1b8/LyIJeh0WhgHcvn8wUCwciRI589e4bSE2jliMsbYTsFG/X8gTUqWn5gb2BGlclkDx48cHFx0dPTs7OzW7Ro0dOnT0tLSw8cOODh4UEikSwsLDZt2rRixQqBQMBisX766SfYLkf7n01NTUuWLOF1XGvXrpVIJKBZiURy8uTJIUOGUCgUGo3G4XB0dXVFItGxY8fAIZ88ebJ58+bz588DCdo9a25uXr16tZGREY/HW7NmTV1dnVwul0gk+fn5/fr1gyGTRCI5ODicPXs2LCyMwWDQ6XQLC4vQ0FChUMhisezs7J48eQKHFurq6iQSSX19PQxACoXi999/DwoKotPpYIWsjovH43G5XJgWYMYmk8lsNlsoFEJySyAQmJubr1q1qri4GFIX79+/HzRoEIPBCA4Ofvjw4bVr15YsWcLn8zkcjr29vYeHB6xwGAwGiUQCoK2tLRSZTGZoaGhBQQFuRoWNK1DFq1evevfuTSKR9PT09PX1165dW1NTAz2I/BktKYGkpKRk/PjxJBJpwoQJT58+TU9PDwoKYrPZHA7H3Nzc09OTyWRCc+h0ukAg8PX1DQoKMjIygvzZrFmzPnz4AHtRcrl8/fr1xsbGXC537969MP6WlJRMmTIFlgZbtmyB7SuVSnXq1CmBQEChUKKjo2EfCNJRDx48gGShSCSaOXPm9OnTjY2NKRSKhYWFt7e3oaGhpaVlRETEkiVLBg4cGBgY2KdPHwaDwefzg4KC9uzZ8+bNm/r6ehSQt7a2Pnz40NHRkcPhuLu7//zzz2PHjqXT6S4uLomJiVeuXFm3bp2RkRGZTO7Tp8+ujmvIkCFkMtnExOTEiROIz2+//ebo6Kirq9urV69Hjx5FRERYWFgYGhqGh4c/ffoUzsycP3/ezs6OSqUaGBjExcVBpxMm85BP/hscFSIryCtifVWhUEil0rq6unnz5nG5XBgp/f39v/vuu27dutFoNH19/eDg4FevXm3cuFEgEHC53J07d8IKBCwD5tXdu3eDQc+ZM6e6uhoC47KyshUrVpibm1Op1D59+vTt2xcYHjt2DPJDKpWqtrZWoVCgPdX29vbm5uaioqIxY8bo6emJxeK0tDRIBnz8+HH37t0WFhZkMlmn4zIzMwsLCxMKhTo6OgwGIzw8/MKFC5aWlmDWJ06cyM/PLykpqa6uhiMHarUalsFFRUVDhgxhMpkkEgmlGclkMolEglUurAwpFApkTRgMBo1G09HRYbPZixcvrqmpgWnk5MmTAoFAKBTa29v7+fkNHDjQ1NRUT09PJBItX7780qVLkJaDdGJcXNzp06ezs7OXLFni4uLi4+Nz8eJFlHRBoS8kV0EhJ0+etLS0hLidwWBMmDABln8oP4xStWq1urHjOnLkiLW1NY1Gs7Gx6dGjR79+/SC+NTAwiImJ2bJlS2RkZERERGRk5OzZs3/44Ydffvnl8ePHs2fPdnNz8/b23rdvH4zC0BFbt26FsWzhwoWPHz9+8ODBuXPnhg4dSqPRmEzmjBkz7t279+DBA4hXuVwuhUKZNWuWRCKB7UqJRLJ//35LS0tYw8NaRk9Pz9raOjg4WCwWczgco47LxMTE2NjY1NRUIBDAdoOhoaGjo+POnTthJkcGLJPJTp8+vXPnznv37pWUlISFhUFQnZWVpVQq09LSYLEWEhJSUVEhkUj+9re/cTgcQ0PD/fv3o0EwOzvbyclJR0fHx8fn5cuXBw8e7N27N8wl48aNe/bsWVFR0ZQpU2g0Gp/Pnzp16sePH+FoKm4KxRX/PY76+fNnyGgjR4W9fliGnT171sXFBRZ4urq6dDodgiIejxcbG5uXlxcXF8ftuHbt2oWShOj03+nTp01MTGg02pIlS+rq6pqbmyUSCfIrBweHTZs2jR07Foz4yJEjsNgDxaGcCoQW7969mz59Op1OZzKZQUFBkE6orKxMS0tzdnaG6FFHRwci7QULFgwYMEAgEPj5+R06dOjhw4disZhEIvF4vIkTJ27ZsmXdunXr16+Pi4uDuAuyOOXl5YmJiaGhocOGDYuNjV24cOG0adM2btz4ww8/uLi40Gg0CoXSt2/f5cuXL1u2bPXq1fPnzxeLxUwmk8ViLVy4MDs7+9OnTzU1NfPnz4cslJWVFaTHly9f3rt3b4FAYGVl1bNnzz59+vj5+fn6+m7evPnhw4dZWVlnz54dNWqUjY3N3Llz6+vrYZsHxmkU+gLw3bt3EyZMIJPJ+vr6Li4usF1x/vx5OAUBCkQkUqlUIpGUl5dHRUXR6XRra2sLCwsSiTRw4MBNmzYNGDDA0NDQ1dV16NChAwcODAgI6NOnz8GDB3/99dfr16+fO3du4sSJ1tbWS5YsKSsra29vh2hcoVCcO3cOkqgGBgYuLi6Ojo5ubm48Hg/yZwKBwMXFxdnZ2d3d3cLCgtpxRUVFwRzY1tb26dMnsCsTExN3d3c6nU6j0QwMDFasWLFv377hw4f36NHD3t6eyWTq6OgYGBj4+/v7+fn5+Pj07t07ICBg0KBBSUlJkFhGjqpWqyETqdFoPn78OHr0aCqVOmTIkLKyMpjYIfqdOHHix48fq6qq1q1bx2KxjIyMtm/fjqaEzMxMcNTevXvD7mhOTk5oaKhAIGAymb179540aZJAIKDT6ZMmTXr69KlCoYCzANgEAYiEm047A/++j4pDQisWLBwBoVNxh2PQ9vrw4cNha9Ta2rgPlq4AACAASURBVNrb23vo0KEODg6QKTE0NNy4cWNMTAyHw+HxeLt37wZH/fz5M5xYkMlkFy9ehLlu3rx5jY2NTU1NycnJTk5OJBKJz+dHR0e/fPkyMjJST0/PwMAgOTkZdvDRhjWMIGq1+sWLF+Hh4RwOh06n9+zZE+YcpVL56dOn+Ph4sA+RSAR5KScnpydPnhQWFu7bt+/q1avl5eXp6em2trbwlEajwcIVsvAcDmfJkiWQlIbNtKaOC4Lw8vJypVKZnZ3t7OwMC8Jz587V1NTAGYnc3Fw/Pz8dHR19ff3Dhw9XVlZKpdIzZ87AhpO3t7etrS2PxwsJCTl79uycOXO4XC4kXUEGDocTGhoaERFhb2/ft29fMzMzgUAQHR0N+TN05gk6CPboZTLZzZs3HRwcmExmv379VqxYIRaLGQzGpEmTYHRvamqCQyMw7ELeLiMjw9fXl81m9+/f39XVlc1mDxgw4Pz583FxceBdENvDSmTOnDmhoaH29vb+/v4WFhZMJnPhwoXV1dUouqmqqtq1axfEWbBFATEzJGxgXQApHBaLBc5GpVIjIiJqamrg/GZDQ0N1dfX58+ePHz++du3abt268Xi8yMjIoqKiGzduLFy4cPPmzfPmzbO2tmYwGD4+Plu3bt2xY0diYuLu3bv379+/du3as2fPlpaWgnug4wqZmZn79+9/9uzZu3fvBg8eDKNqcXFxRUXFoUOHIJMyefLk2tpauVy+adMmDodjYGCwfv16qVQKrUtPTwdHDQgIKCkpUSqVEokkMzNz5syZEJmz2Ww9PT0XF5dr166Bj8Cmg0ql6uxcWMhfdVTsLIpWNbD/VlBQMHv2bFhNjRgx4uLFiwUFBWD0K1euFAqFXC7Xzc1t6NChkNyH5QqyD9jOOnv2rJGREYPBWLx4cUVFRU5OzrBhw9hsNpPJHDRoEBwbjIyMJJPJZmZmSUlJsOxE6XLo1+zs7FmzZunr64OXpqamQv6ztbUV5mdbW9vu3btPnjyZz+eTSCQnJ6f79+/L5fL379/Dacf79++bmZlBrAjLSz6fb2hoKBAIDAwMli1b9v79e0j5opwBbJNCanf79u1Q+4IFC8rKyurq6iorK2tra9+8eRMYGAgxG2wjNTc3r1ixAo6FiMViSLSyWCwbG5tevXrBKmvGjBkJCQm2trZsNjsoKMjGxobFYvn4+JiamrLZ7Llz5zY1NUHtaDBFTlJRUbFixQpYPMfFxeXm5n733Xc0Gq179+6XLl2CXCvMD6g3lUrl3r17eTweHHWA6YtGozk7OwcFBYEeli9fvnnzZicnJw6HExMTExgYSKfTfX19nZychELh4sWL4awSSjtfvXp1ypQpISEhixcvXrNmzapVq9auXTty5EgKhQK73AkJCZs3b46Li4uKijI2NqbT6TExMWhGraqqKisra25uvnLliq+vL4vFcnd3v3DhwqVLl7y8vEQikYmJiZGREYvFgvyfSCQyNDQUiURmZmYikUhfX18sFm/duhVSHq2trbBimjdvnq2t7ahRo1JSUkaOHMlisfz9/YuKihoaGo4dOwZLrXHjxhUUFMARHSaTKRKJNm7cCBnQtra2J0+eODo66ujoBAQElJWVQcZBpVI9f/4cAnu9jsvDw+Px48ewFsD2FPLM/6nQF7k7DN6wH33+/HkbGxsymWxra5uamgrBIYj18ePHsLAwSLr07NkTQt+tW7eiBgOaUqmEnVgej7dixYqysrKkpCQLCwsdHR0TE5O4uLgzZ84cPnx46NChcFhi2bJlt2/fLiwsBG+BZC8kgU1NTclksqur67Vr1xoaGiBlAiF6ZWXl8ePHL1y48OTJEzMzMz09PWdn5wcPHoCPwUG5rKwsSGZyudzo6OjjHdfhw4e3bdu2ZcuWvLy8mpoa7LlCWGbDpAoHemBZsm7dujt37jx79qyhoaGxsTEvL8/Pz09XV9fGxubx48ewIFy+fLlQKISFDQwNTCbT0dExKCgIFLVo0aK9e/fa2trCjGpnZ8disXr16gVR9Ny5c5ubm1GcCV0D7ZVKpTk5OYMGDYJdotTUVNjrB7br1q2rq6uDRQfWw+Vy+caNG83MzGA7B9bbDAbDy8tr+PDhBgYGfD5/0aJFiYmJZmZmLBZr9OjRTk5OVCp15MiRffr0YbPZy5YtQzNqS0tLQUHBtWvXkpOTb9y4AZNkQ0ODRCJZt24dh8MRiUSLFy8uKChobm6uqKh4//59VFSUv7///v37YccV3qeFtG14eDidTjc1NZ01a9aNGzc2btzo6+traWkJYxaZTKZSqRYWFvb29k5OTmKx2N7evnv37ra2tt7e3j///DOcY4OVOWwxkEgkc3PzxMREGL8cHR1//vnn06dPx8bGGhoa6urq+vr6/vzzzxcvXgwPDxcIBCKR6Mcff4TUyefPn2FDUUdHp2/fvjA2gSmmp6fD/gWl42IymRMmTMjJyYF3KmC8QF6KvAkL6Qz8Y6Ev4oXtWmh5SkqKoaEhjUabMmUKjC6QHNNoNDKZbPv27bBzY2tra2BgwOVyZ82aBXut4KWQoUlISACTXb16dUpKSq9evcBQ4LQTj8cTCoVMJhNS5zQazdHRcdOmTTU1NXBo5uPHj+vWrevWrRuJRDI1Nd2xYwfk/XEZUcgq3bx508TERE9Pz9HR8dGjR7DQheggNzcX0u6mpqYpKSloDwmmCDi9AM4JnCHvrVar6+vrd+/ebWxsTCKRDA0NPT09u3XrFhQU9P79+9ra2vz8/AEDBujp6dnb22dkZMApkezs7Dlz5owfP37+/Pm2trYQOxw/fnzNmjUw0zKZTA6HAydvIiIiXF1dGQxGnz59nJycmEzm1xxVqVTW1NSsXLnSwMCASqUGBwe/ffsWXNfHx0dPT2/gwIEvXrwA+XG9+fbt29jY2IiIiOXLl3t6eurp6fXv3z8tLW3ZsmU8Hk9XVxciCxBp2rRpnp6eFApl5MiRgYGBNBotISGhsbERBguYndzc3MzMzGJjYz99+gSmDKcX4HzL6tWr4U1AlUpVWVk5Z84cOLRw9uxZCFPh+NfSpUsh4WdoaOjh4dGjR4+goKCTJ09euHAhKSnJy8uLRqPZ29svWrTo8OHDx44dS0xM3Lx586FDh1JTUx89egSbc9C/KpXq4cOHPXv2pFAo/fr1S0lJCQ0NheWVWCy2tbUVCoWwc25sbNyjRw83Nzc4zSIUCtevXw/Sfv78OTMz083NTUdHx9/fv7S0FI6L5eXlzZo1C5amcMiBRqOJRKLhw4fDfAAvPyNX6uyT8Ag6BaH9exxVLpdv27aNy+XSaLQZM2bU1taqVCqZTAaKlsvliYmJHA6HzWYPHz7c0dGRRqP5+vqi8+7gOUVFRX379oW9x+3bt4eFhUG0yefzeTweBNWw90UikeBssJWVVXx8fFFRkUajqaurO3jwoKmpKWwFxcfHFxYWogAV1iewQoBQ+e7duxYWFrq6uvb29k+ePIE1HqRhnz175uzsDCvhkydPQnQAQsJON3rdDK0FYLS6e/duQEAAZKH69OkjFospFAqfz4+JiXn48OHTp09hf9zZ2Tk7OxtmM4VC8fbt27y8vIyMDD8/PzabPXPmzN9///2HH36ANbaDgwPaDgkJCbG1taXRaP7+/u7u7gwG4xuOmpaWZm9vr6enZ2ZmtnnzZggW3r9/P3bsWJjwFyxYUFxcjFvcglSFhYVlZWUFBQWTJk2iUCjTp0/Pzc3dvHmzSCQik8n29vY+Pj4GBgYsFisyMtLb2xv2lgICAths9o8//ggnn2DwPX36tLGxMZVKnThxYmlpKXRBS0vL0qVLYS9n7dq1MBQqFIoPHz4MHjyYSqWampqePHkSJh+VSlVSUjJw4EBwHkgxcLnciIiIsrIymUx26dIle3t7GDjEYrGNjY2np6eXl5e9vb2zs/OcOXPevHkD9UKCTSKRwAYYi8WKj4///fffg4ODYR+VzWbD/Kynp6ejowOHNw0MDGAzTCAQxMXFwVqjvb09Ozvb09NTV1e3d+/epaWlKpUqLy8vKioK1rcDBgz45Zdftm3bBoO+vr7+jBkzQJLOTogcEt10xvkDySQcF7SwUavVly5dsra2JpPJfn5+GRkZ6JRzW1vb8+fPJ06cSKVS9fX1N2zYMHjwYDKZbGpqunXrVsiVyeXyqqqqffv2GRoaQqojOzsbGrl+/fq1a9fC3+87Lli8CYXC0aNHp6Sk5OTk1NXVNTY2Jicnw7EBgUAwbdq0jIwMOFEAeS+Y3sHZYPi4e/cuhDd2dnZwCBmWdmq1Oicnx8HBQUdHh8/nT5w4ccOGDdu2bUtMTNy1a9fWrVuTk5NzcnKggTBCg5d++vRp6dKlbDabRqN5eXnBaxxOTk4QQ8bGxh4/ftzExERXV9fT0zM3NxeWNCCYQqF4//49NM3JyWnq1KlBQUFMJlNfX3/VqlU///wznAQeMWIEbJMEBAR4e3uz2eyFCxc2Njai1sHAoVQqHz58CPMbh8OJiooqKChQKBTwBmJqaqqDgwOVSjUxMdmxY0dLSwvECJCTgxkPXhJ6+/Yt7KbCqaPx48cbGhoymcxVq1bt27eve/fubDY7Ojq6R48ecG60f//+TCZzw4YN4KgQpBw7dszAwADO66FTBw0NDfHx8bAA/vHHH0GAtra2qqqqsLAwMI9ffvkFFAsvJM6fP9/FxQWyuJMnT46Lizt58iRkbufOnQtTPYPBsLCwgKyyvr6+jo4OnU6fM2cOHN5CS/fnz597enrCAa+zZ88WFxdPnDiRTqfb2dmtXLny+PHjixYt0tfXJ5PJHh4eP/3006FDh8aNG0en04VC4ffffw/nilpbW58+fQqO2qdPn9evX9+6dSs0NBTCHzc3t7S0NKlUWltbm5SUZG1tDUnWqVOnVlZW/o9nfXGOCkVY+71//z4mJoZGo7FYrClTply4cKGwsDAnJ+fy5cuzZs0yNzen0Wh+fn63b9/esGGDSCSi0Wju7u6JiYkZGRlZWVmHDh2Cozy2trYHDhyA30aATSe4h+1jeLsF5tjdu3fDhCmXy+/cuePn5wf7lk5OTjExMUlJSampqVeuXLl58+adO3dg/x02DGB8uX//vr6+PgSimZmZ4M8Qh6enp8MLKzB4o5192Ag1NzeHtzEgDQNOIpPJ9u/fb2trS6FQeDze6tWrS0pK6urqFixYYGlpOXDgwHPnzp04cUIkEpFIpKFDh6Kl9du3b8+ePbt///5ly5aBccCpBgcHBzjYbW1t7eLiIhKJ2Gz2iBEjILfp7+/v5uZGpVJhRgXhIVJQqVTPnj0LCgqCvhg4cGB2djb86Ay44qdPn5YtW8ZisRgMxoABA+7cuQNbNchRi4uLz58///3330+aNAksjEKhGBsb29nZcTgcBoPh5OQE+ytsNnv+/PkeHh5MJnPcuHHgqOvWrUP5rdbW1qSkJAgNpk6dWlZWBiFxY2MjHDiFOQ29f1dVVRUUFKSrq2tmZnby5Ek4CwkvG+fm5ubk5Pz++++vX7/Ozc1NS0s7ffr0hw8fDh06BMkRBoMhFAonTJhw+/btAwcOODg4wLQBGRPIp8BIvX37djj/BMduy8vLZ8yYYWBgMGzYsCdPniiVyrt371pZWTEYjNDQ0OLi4ubm5ocPH06ZMiU8PPzhw4fofcn09HQ4zOPi4rJ79+7BgwczmUwKhdKjR48zZ87AiVGJRFJTU7NgwQJTU1MejzdmzJiKigq04gBTxE2eyK2Qu0F4/OdnVMQRFqKpqane3t5gAWZmZs7Ozg4ODrAvSqPRLC0tt2zZUl9fn5+fHxERwWazGQyGqamph4eHp6enlZUVvOQxduzY7OxsiUQCoywKVmFwra+vj46OZjAYBgYGp06dgqXpgwcPRo4cyWAwdHR04PwNk8k0NjaG1J+JiYmVldWyZctgGwMFq8hRnZycnj59il1t3r9/XywWwy4ryAmnqWB3wdbW9vLly5A6am9vVygUtbW1qamp7u7usMk+cuTIvLw8eCHj1atXJ0+efPz4cUNDw4YNG2A7cdasWfASSWNjY1JSkoODg76+PpvNBnIej+fi4tKjRw86na6jowNnjyFKHDhwIGzEu7u7w87hihUrIKaFuV2j0cDWFK3jsrKySk5OhlwAWu9JpVIIf+BMvK+v7/79+ysqKkDV1dXViYmJjo6OcFoQzm/p6+uPHTs2ODgYjoXBSoROp7PZ7NWrV7u7u5PJZH9//379+sF8CzMqdNmOHTvAJMLDw0tLS+E9GIlEsnz5csgvgmNDLvDDhw+TJ08mk8lGRkbnz5+HN3hbW1tLS0ufPHly69atxMTEpUuXBgcH29nZ9ezZ88cffxw9ejSTyRSLxRBi9OrVKzU1NSYmBs4/HjhwAI5hoXDp5cuXAwcOBOHXrFlTWVlZVVWVlpa2YcOGw4cPwwB68+ZN2NGdMmUKvG+k0WgkEklDQwOECdC0R48eubi4wOG27du3BwYGCoXCwMBA2LaFWQS2958+fTp79mwYRLDrJpTmxPokciss8C+tUREjmIhqa2tPnToFqT84UQBZHzab7ezsvGvXLnA/lUp169atcePGIVOABSeHwxkyZMjFixehJbB5gHI8MN5LpVLYYLS2tr569Wpra2txcTGsCuCYC+TZYOcTZADrHzt2LLx8iAaz+/fvGxgYkEgkZ2fn58+fIwdua2vLzMy0trbW0dExNDScPn36mjVrduzYcejQob17965evTo5Obm6uhrOxLa3t5eVlS1btgz2XRkMxujRoyFRhGJaOKH+5MkTePeFyWSuXbsWTFmhUCQlJZmamhoZGUGejMvlTp069fr169HR0bBAGjp06LRp08DDg4ODPT09RSLRgAEDevTowWAwli5dCtt6MJ0+ffp09OjRsGnJ5/MXLlxYWFgIJ+NRlN7e3i6RSBITEyGgYDAYIpEoNDT0wYMH8KIzDDpcLhderCOTyVOnTs3JyTlw4AC/45owYcLUqVMNDAyEQuGKFSu8vb3h3KW/vz+TyVy2bBm0DkTas2cPvKoyZcqUgoKC0tLST58+FRUVzZkzBzZRZ82alZ2d/dtvv2VkZCQnJ4Ppm5qanjp1CjJ2Uqn01KlTAQEBlpaWfD4fTpKwWCwDAwN3d3d9fX1DQ8MtW7ZcvnzZ39+fwWCYmJiwWCyBQLB+/Xp4ZR/GIDh7fODAATMzMzKZbGhoCFt3sIqRSCQVFRUQuB07dszGxgYOKsBJRjjoiqYNMMvHjx/b2Njo6en16tXr/PnzW7ZsmTdv3qFDh4qKipqammpra6urqyHRrVQqa2tr3717V1RUBDvY4KL/UUdFmzTw+v+jR4/i4uIGDx7cr18/b2/vIUOGrFy58urVq7W1tRAkw676+/fv9+3bN3LkSAcHh969ew8ePDg+Ph6ZOORRoRkw78N9a2vrzZs3ExIS9u7dW1NTI5fLy8vLk5KSoqKi5syZExcXN3v27OnTp8+cOXPRokWLO6558+bFxMQcP368paUFugq6/969e7B2cnBwePbsGZpR29raHj58CAOqra1tVlYWDI0wUsC2NSRsCwsLU1NTYZ4hk8lwBDwnJwfeXYRjlc+fP3/8+PHFixfj4uJgN8jS0vLMmTOghNbW1ry8vH379h09enTlypWwWfrjjz/W1tauW7eOzWabmZmlpaXdv3/fwcGBzWavXLlyz549cXFx27dv9/Pzg7gRVXfp0iWILGD6DQkJef78OVr+wUgEfzUaTUNDw+rVq42NjeEoJYVCCQsLKygokEqlzc3Np06dSkxMhI1KMpk8Y8aMX3/9dcOGDfAqycGDB9PS0iA7unPnzs2bNy9fvnz9+vWwybl+/XrkqAqF4siRI/CmnrOz8+zZs8eNGxcSEjJs2DA42aKrq6uvr29vb29ubi4Wi7t168ZgMPT09CwsLM6dOwf+APt2EITTaDSxWNy/f/9evXrZ2NhwuVwWixUTE5Ofnw/OD2cMYANv6tSpFy5cePnyJayewNnQMGRlZZWVlQVzDNgbGEZLS8svv/xibm5Op9NDQ0Phh+9QjAo3sNOTk5NjZ2cH73KNGTNm8uTJ33333cSJE+FdmbCwsMmTJ0+bNm1OxxUWFgY/OjF+/Pjbt29Dr/1HHRU5ErRZKpVCOFFZWQnHr+AXa6CFME+CV8jl8uLi4szMzNevX8POJOBAHhJNcSgSgBEBsh3o/Tg46FtdXQ2OIZVKGxoampqaIOSAyQTyJeg3ymDX8d69e7A94+rqijYqQHFZWVkODg5wSLiwsBBShSAb6tGSkpLVq1e7ubkxmUwIiaOjox89eqRUKlHgV1hYGB0dbW5uDluXkLQMDAx8/vw5vHAHGoOB4M6dO/b29nQ6PT4+Hn7rhMfjmZmZff/991OmTIHY+Oeff5bJZNnZ2Xv27HFzc+NwOOvXr4fDcQ0NDVu3boUDMfr6+uPGjXv69Ck0GbsyR3MCvDi2evVqW1tb2JxMSEhAyR74saWKiooBAwZAwra4uPjw4cP6+vrGxsY//PBDfHw8nE8+evRoaWnp69evly5d2q1bNxhN4KdJ4JcZdu7cCe+Xw8IE9orhYClk72k0GpvNRi9bQ17AxMTkzJkzkIRvbW3NyMiYPHlyYGDgvHnz7ty5c/369VGjRunr6xsYGEyaNGnPnj2JiYljxoyxsrKi0WiGhoZwlIVEIgkEgh49esycORPS7O3t7fX19SkpKbNnz960aRP8eB10Otpj02g0V65cgZF60qRJkKtDy0gwAzg1cePGDYi89PT04PQYnPSGJsBbcnB+C46yws90GBgYzJw588OHD9AX6Hweik+RwWMh/57QF+urMPOgKREaBgskNPdCEY3xcBYP/UI0iP41RwWGMFFAEuXz58+wwgH/h5w+8is4AQtSwZQOjnrhwgUjIyMIfQsKCrD4z58/t7e3p1Kp1tbWz549gwNP0FWoCfn5+YsXLzY0NISXKr/77ru3b9/CchFenlapVBUVFTt27IAdIz09PSqVCgfEYZsR5AQr0Wg0mZmZkNGdO3duaWkpvElraWk5ffp02HsQiUSXL1+urKz84YcfxGIxpEb37NmDEuyvXr0KDg62srIaP3789evX4Z0+1HBoIOod6IKKiootW7b4+PhMnDjx9evXsJBDk0xtbW1AQABsz5SXl585c8bExEQsFickJLi7u8M7wHCQMzk52dzcHLavt23bBqMknIQ5evQoHOLt0aOHq6urp6enj49PQEDAsGHDJkyYAMf6Y2Njo6KiZs+ePWXKFGtra8hIHzp0CB2OhZf14HeSNBpNfn5+TEyMq6vrxIkTf/311yVLllhaWoJ7ODs7L1iwIDY21sfHh8PhwG8s2Nra3rhxA1SNphPYRMTqB4xWIpEcOXLE3NycTCZ/9913MOwSOuqdO3f69OljaGhoYWFh1XHB5pB1xwX3YrEYjkybmppaWloaGxs7Ozt///33cKgY1iOIOc4zccW/mkxC7KDv4cgOsntkGTBPwioc/WIITCxoyEe2C/4ATIA/mtZA0chhINONBkV0AwgwaEGlENgAT5VK9fbt26ioqBEjRixevLiyshI7ahQUFERGRhoZGcFLs3DKHx15B85SqRTOavfq1WvWrFlFRUVwHAL4owi5oKBg8ODBXC5XJBINHTr01KlTcOgUbRVAPlatVufn5w8aNMjExCQqKurly5cXLlyIiIiYPXv2vn375syZ4+XltWzZMvit8PPnz/v5+bm7u0dERGRlZUGTYfLJz8+/ffs2HPQBrcJSGaRCf1Gcr9FoqqurHz58mJ2dDfs30AWwBVpaWhoaGtqtW7edO3c2NTXl5uZOnz59+fLl9+/fh9XN3Llz8/Ly5HL5vXv3QkJC/P39Z86ciTalYUu2uLj45s2bly5dgtApLy/v/fv3nz59qq6urq2tra+vb2xslEql8JtgHz9+HD9+PLx/v3v3btjBBj5gKpC2VCqVhYWFjx8/hl9ITEtL8/f39/DwiI2NvXr1alNTU01Nza1bt+Lj44cPH+7l5RUWFpafnw9dDNzASqHLNBoNsjEIjy9evAg/cBccHAy/sYjzJQhV4GTvrVu34OXE69ev37p1686dO/fv33/48OHjx48zMjKePHkCv+CTmpp6ruOC8+QgBvQdjjkSBnnWvyfri9jh6sMVCavHAnH4hEVCIE4AQhwERMYKL7vX1tZC6AhwYCWXy1++fHnixImXL1+isQM5KowyMJnX1NQUFhaiHy4FBwBW6MdWLl++vG/fvuvXr9+9exflxnA91Nra2tzcfOnSpV27dmVmZsIvVFRUVDQ1NSkUisrKSnijEo5bNDY2vnjx4vnz5+iHNoEbVlQUj8ANTkWoCOMFzL0wkmKHSJlMlpGRcfr0afjdY7lcXlhYCIm0qqqqoqKimpoa0INMJvv06VN+fj781BPSNjbUAiG/Jir4oUwmS0lJmTVr1saNG9++fYviMmxzsEB496ClpeX169cvXrwA2cC9YSQtLi5+9epVfn4+DNOo4Wigx+oHZhqVSpWVlTVo0CCxWLx69er6+nroVkSLGoVaBJrH6R8VwR6gIvQX0WIFwFWBK/47Z1Qca2wR7rFdiJ4CEPeIsEgI1IYPIkRagyENYma0fAVWWGNC6sY6KrJmmN6RoWMdFQihFhSoow1PqAJJhY07YP6Hd6lhgEc/mY+mRzBWKKIux4oK3Y/kxKkIW4QmIM6IBCkKO/3CPexGwl8YjwAOMsM9tgqsa2F1iyRHbgM5NninB5qDGoXkwXGD5SKk97ArcNQ1io4LfoeFUCrUC+Co6CWYs2fPVlZWgtsjHOAAAiP5caLi2ogkR7pFhHCDY46qQNL+X5xRoc1YzSL1IX2hnS7wK1A0PIW/aKsDxmms3hEysm+oC8walt8IB9UIszTMD6jzECE6yAI2CvaEHAxxQ86JIKhpqMuxNYIqEA6iQnywEgId5QAAIABJREFUwwd4MkgCJFhhcPk/bC3AFvEkLAI+PIJWo3UEISECwg3SP7YJAARuICoKcTs3HPkG6BZJghhiWwTkqJuQApFUQEVYxAERf9RB6KZzjf+3ZlTkqKAjpHRUhDfjkfY76wt+mBdpHDoMxwe4ga8im4PxHvUEkEAReTUsLNEMj+wGDRngn5APA/dADLGiIgsAOTvjYNuLI8Q1DRoIVo5LQEC8AMJjNYZjiG0pSIJFQE9BJKzP4x5hq0Atwk6wSO3YAAGrOkQFAnQWAzk24oBSG4gWpEL9jhUShwOPQCrQKtJtZ0wsBPFEwH9b1peQNaoG3eBUA/CvaQ1RIeY4csLiXwSiSv+0VNhGIW6EQJyo2uAQSkVISAj8EzUS8sECcTwJi4RAYPLtziUkJARqw00bHBxzbEtx5LgijpCwiAMSMicEdjkq0vZnnBKhSAhENIQ4hIomBOKYa4Pzn6+RUCosENcKwiIhEJh0OSpOOVjdYlX0fy70/bZlYFWDMHFAXFEbRQMJDhNX1AYHSLQh1Ibbn8bBEuKEISwSAoEJUjIhjvZAbbhpg4OrEdtSHDmuiCMkLOKAhMwJgV0zKtJ214z6RRV/1Jhw+IRFQiBSPTwlxNEeqA03bXBwNQIJDkhYJAR+u0ZC5oTALkdFmuxy1C+qwBkcod1ggTh8wiIhEKkenhLiaA/Uhps2OLgasS3FkeOKOELCIg5IyJwQ2OWoSNtdjvpFFX/UmHD4hEVCIFI9PCXE0R6oDTdtcHA1AgkOSFgkBH67RkLmhMAuR0Wa7HLUL6rAGRyh3WCBOHzCIiEQqR6eEuJoD9SGmzY4uBqxLcWR44o4QsIiDkjInBDY5ahI212O+kUVf9SYcPiERUIgUj08JcTRHqgNN21wcDUCCQ5IWCQEfrtGQuaEwC5HRZrsctQvqsAZHKHdYIE4fMIiIRCpHp4S4mgP1IabNji4GrEtxZHjijhCwiIOSMicENjlqEjbXY76RRV/1Jhw+IRFQiBSPTwlxNEeqA03bXBwNQIJDkhYJAR+u0ZC5oTALkdFmuxy1C+qwBkcod1ggTh8wiIhEKkenhLiaA/Uhps2OLgasS3FkeOKOELCIg5IyJwQ2OWoSNtdjvpFFX/UmHD4hEVCIFI9PCXE0R6oDTdtcHA1AgkOSFgkBH67RkLmhMAuR0Wa7HLUL6rAGRyh3WCBOHzCIiEQqR6eEuJoD9SGmzY4uBqxLcWR44o4QsIiDkjInBDY5ahI212O+kUVf9SYcPiERUIgUj08JcTRHqgNN21wcDUCCQ5IWCQEfrtGQuaEwC5HRZrsctQvqsAZHKHdYIE4fMIiIRCpHp4S4mgP1IabNji4GrEtxZHjijhCwiIOSMicENjlqEjb/xsdFfsGJvQx9u8/Re+408YI/i048IIlVjasJLgqCAXWHkd7TCTDv7dGYEsoxl+vkZA5IbDLUZG2uxz1iypwRtnZbrocFaeiPz00dNYtMsfOVXS95kZsoP8Z7aOOQTfYHsLOWlh5sDiEhF8DakP4L3G6HBWnIigSAnEdgcOBp9oAu2ZUpMn/dTMqeCn68Q5kDZ299w/19z8b/I87nKHgip2ZdzkqTkWoa/6h0b//1wans24Rh87kXTPqF+V0Vs3X1I3TJo7wD2kfsUI34Abw+2ngpegRyPNfd1QkDzQc13zCIiFQGz6EhIRAbbhpg4NjDiQ4IGGREPjtGgmZEwK7ZlSkSa2GQMLOwAEJFU0IJCSE7wZIpVL0k4X/FLFjnO5yVJzeCIuEQKRJeEqIgwNq03Hf4PbtGgmZEwK7HBVp8n+Lo8IP1aKfk8XZDZpvUfyJGoDD/Fp/I3x0gyPEFQn5YIE4fMIiIRAnACGO9kBtuGmDg6sR21IcOa6IIyQs4oCEzAmBXY6KtP2/yFHRj32DN6KeQ3MpbuGKEP7ZmH/c4SwDVyQk1AYHSwj4aODAyobkx/EkLP5F4D9a/KUfCblpg4MjxLYUR44r4ggJizggIXNCYJejIm3/b3FUXF+iIhg9coN/yv2PO4T5D8Df/+OAuCJg4oC4IiEOFgj4XY6K0xthEQfEqhHu0V8cZpejIs0Q23Rnff2T4B9ugMMBBG2Afwiny1HRuIPTG2GREIj6Dp4S4uCAhL2Jw/kGt2/XSMicENjlqEiTXY76RRU4KyS0GywQmSluKEFzLHIwpGtcFYgDQkAk2mMi2m9w0wYHVyOQ4ICERULgt2skZE4I7HJUpMn/jqMia4b1J8r0QoiL/YvcAH3SE76qgP7CpyXAxNFHYoAtfNsGi4BCaPQ1DcQf3SDVwGcj4GsaiBC+BIeVHz60AV+sw8KR1yGGhDb9F4E45oTc4HMkoMCvSYUjBLY4IGGREPhtqQiZEwK7HBVp8r/mqOBp4FHw1Zm2tjZk7th7wEEegnwGwQGCPBk+oIL9niJ8XBhqhG+3o4/ZIAHQh1XRp2Xgm4iIOfabdOir0yBnQ0ODRCJRKpVIrWC+f8KIv0H4p7mhD/PCp3QI+eCAX3Mb1EDk8DhCwiIOSMicENjlqP9UOE6JUCQEIhpCHEJFEwLR3IV8QKVS5eTklJeXowMPVVVVHz58qK6ulslk4Etoemxubn779u3Hjx/RB9fBA8H3pFIpfPZX2nGp1eqWlhaZTPb8+XPg39ra2tDQ8ObNm8rKSvQNNeTz8HEk9EE3kAe+bqhUKj9+/HjgwIG9e/cWFBSgSmEUgG/hfVtFhFr9i0Ata0TRAXKwbxN+reMQFeJDKD9C++um0nUy6YsyCRVNCPw3ah8cQ6VSFRYWXrlyJSUlpW/fvuHh4efOnbt48eJvv/22devWXr16RUZGvn//HjwBPmeuVqvv3bsXFBQ0f/78nJycvLy8+/fvX79+/cqVK1evXr179+7NmzcvXLhw/fr1yspKjUYDX/UuLi5esGDBvHnzCgoKVCrVvn37evXqtXjx4vLycmAOX2dtbW2VyWTl5eX19fV1dXVFRUXl5eUtLS3grgqF4tdffw0MDPTx8bl27RqagdG4g1UaoYFiEb5t6NpjfrtTsKE4Gu+0YQ5sCTH/ZY0I4WttJGROCOyaUf+pTMLOIAQiGniKwyFUdGcgGD0YTVNT0/Lly83MzDw8PIyMjCwtLd3c3KytrePj46Ojo7lcrpeX1++//97U1FRXV1dTU6NWqxsbGxMTEzkcTv/+/ffs2TNw4EBDQ0NjY2M+ny8SiYyNjUUikVAoHDZs2KtXrxQKxblz5xISEvbs2ePs7GxhYXHt2rXi4uLBgwez2ewZM2YUFxdLpdKmpiaZTAZT4sWLF8eNGzd+/PjRo0f37dt31KhRBw4ckEgk8K3hR48eWVlZGRoaHj16FCJh+Kgkirq/rSKcxgjV+EeB/7JG8FVsR2gjBhYfVwWuSMjt2ziEzAmBXY6KNPmfXqNCxPj582e1Wi2RSNavX29kZGRvb8/lcg0MDMRisbW19cqVK8eOHctgMKytrefOnfv9999v37799evXGo2mrKxsxYoVXC43JCRkz549pqambDbb19d35syZ8fHx4eHhffv2ZbPZPj4+ubm5FRUVkZGRlpaWY8eO7d69u52d3fXr148cOSISiZhMZkBAwPLlyyMiIoKDgxcuXJiamlpZWblq1SoGg2FgYGBkZEShUNhsdmRkZF5eXn19fXV19cWLF+3s7AwMDHbt2tXc3AzfTf2ahaH5BOma0Kb/IhDHnJCbNjg4wm80Shtu38YhZE4I7HJUpMn/tKMi85XL5RkZGQMGDGAymSwWi0QiMRgMHo8nEAj69evn4OBAo9H4fD6Xy6XT6c7OzpcvX37x4kV8fPzo0aNpNFr37t1DQkIEAgGfzx8yZMiiRYtWrVo1efJkPz8/Ho/Xs2fP3377raGhITIyUiAQzJo1y9nZ2cjI6MiRI5MnT6ZQKDwej8PhiMViFxcXc3NzNze3LVu2NDc3/+1vf+PxeKNGjUpKSvL29tbT07O0tBw0aND48eNHjRrl5+fHYrGYTKa7u/vSpUs/fPigVqu/ZmGopUjXOGeA4l8E4pgTctMGB0f4jUZpw+3bOITMCYFdjoo0+Z92VMhqtLe3K5XK/Pz82bNnm5ubMxgMXV1dHo9nZmbm4ODg6OjI5XJ79+6dkJBgZ2fH4XBWrlxZVlaWlpYmFosZDAaZTGYwGA4ODgKBgEQicblcJpPJ4XDIZDKPxxOJRAEBAZmZmXV1ddOmTRMIBHPmzHFxceFwOK6urjwez9/ff8CAAU5OTrNnz75x40ZaWtr58+dfv36tUChWrVpFo9FmzJjx/PnzUaNG0el0gUCg/4/LwsKCSqVSKBQmk+nj43Pp0iXIo37NJ3HWT1j8i0DUkcCHkJs2ODjCr7kNYoWajCMkLOKAhMwJgV2O+k+F45QIRUIgoiHEIVR0Z2B7eztkVtVqdWlp6Y8//mhkZKSvr0+lUgUCgZWVlZ2dnbW1NZfLnTRp0sWLF93d3bt163b9+nWZTFZZWZmSkhISEsJgMCwsLEaPHm1hYcHlcsePHx8bG+vm5iYSiYYPHx4dHb158+YPHz7U1dVNmTLFwMBg/vz5zs7OPB7PxMTE29v7+PHj06dPFwgE3t7eaWlptbW1MpkMksZbt25lMpl9+/aNjY11cXFhMpmjR49et27dsmXLkpOTN23aZGNjY2hoOGPGjCdPnlRUVMDOLbLab6uIUKt/Efg/VGPnjvs3tpGQOSGwy1FR//6nZ9TPnz8rFIq2tjaJRLJmzRpLS0sLCws3NzehUOjs7Dxu3DhTU1MWi8VgMLp37z5hwgRDQ0N7e/vMzEy5XA5Zn127dgmFQgcHh+DgYFNTUyaTaWNj4+TkxOVyqVSqWCz29PT09fX96aefPnz4EBYWxufz582b5+DgIBQKFyxYsHPnzjdv3hw7dszT07N79+47duzIy8urrKxUKpUajSYpKYnJZMKCmU6nc7ncxYsXr1+/fuzYsbdu3crKyvLy8jI2Nt6+fXtzczPspn7Nwr5m2Uj1hOPdHwVqw00bHNx48Y1GacPt2ziEzAmBXY6KNPmfdlSYUVtbW5ubm0+dOuXr6xsaGjpq1CgjI6OwsLCjR4+GhISMGDECXNfX15fBYAQEBLx7906hUBQVFaWkpAQFBdE6LpFIRKVSuVyuo6Ojp6cnl8slk8m2traBgYHDhw/fuXNnYWFhcHCwvr5+VFSUm5ubkZHRhg0bhg4d6uPj06tXL7FYbGRk5Orq6uHhERYWlpeXV1dXt2TJEi6X27179/DwcGtra319/ZiYmHHjxgmFwvnz51+9etXT09PS0vL48eOQ7+0KfXEeTljEAQl9khDY5aj/NUdF5xaUSmVqaqqjo6NYLBYKhXQ63djY2NLS0sbGZvPmzbGxsVwul81mM5nMsLCwhoaGlpaWrVu3isViJpNJp9N9fX2HDh3K5XJ9fHxWrlw5f/58JycnMzOzWbNmnThx4tq1axUVFdXV1RERETweb8aMGc7Ozt26dVu9erW+vr5IJIK1Lo/H6969O5PJNDMzS0lJqaysjI2N5fP5kyZNevHixdixY7lcblRU1MaNGy0sLHx9fTdv3mxnZycSiX7++WcI4LscFeeEhEUckNAnCYFdjvpfc1SUTJJKpTk5OatWrXJwcGCxWGKx2MfHh8fj2dranj179vDhwyKRSE9Pj8/n79q1C44lnDt3LjAw0NzcnM1mT5gwYfHixSYmJp4dl76+Po1Go1AoRkZGpqamM2fOzM3NraysDA8P53K5M2fOdHR0NDIyioiIEAgE/fv3j46ONjY29vHxiY2NtbS0tLKyunz5ckNDw5IlS3g83oABA5KSknr16sXhcGbPnn3v3r2ZM2fGxPw/9r47Lsrj2zuRssDusruwjQ7SpSsGAQsq9t5jbNgFu8YSGxoVu2ALkdhiiSX23kWsiEHsgEqXXneXjub9XL73nvu8D4/Iz+Te9/d5P5k/9jPP2TNnZs6cM/XMmcn79u1zcnKSyWQ7d+6EKSLu0H5qlssSUM7PvwikhgQdTmpNwWEl/JTaECmqMish5ycLyEmcE/iPov43w1lMxCcnkNJw4nAyuiGQ7GNgSfvo0SMXFxcej6dUKt3c3AQCQb9+/ZKSku7cuWNvb//VV1+ZmZldvny5pqamsrKyrKzs7t27oaGhJiYmgYGBw4cPl0gkdnZ2AoHA3d193rx506dP79Kli0gkGjBgwLt3796/fz9lyhSxWDxmzBgnJycLC4sZM2aYmJj07Nlzzpw5xsbGbdq0WbFihYODg7m5+enTp0tLSxcvXiwWi0UikUwmw2J1/vz5ycnJL1++zM7OvnHjRuvWrY2NjaOioqjHaVjHvyLEnLxtBNh4o3C2Y1OAjVTqr+fISZwT+I+iErf/t9eoJMQQ9MzMzLFjx3p4eBgaGmppaeno6Eil0ilTpkyYMMHIyOjrr78WCoUjRoy4cuVKZWVldXV1QUHBihUrJBJJixYtXF1dpVJpx44dDQ0NO3bsGBcX9+LFix9++EEikQQGBqampr5582bSpElGRkZTp0718PCwsLCYPn26iYmJl5dXjx49hEKhhYVFu3bthEKhiYnJ8ePHVSrVkiVLBAKBTCZzcXGRSqW6urqLFi1Sq9XwEXP79u127drJ5fLw8HCWNVJTpL/pOE3HpIZEEs6ETcFhJfyU2hApakdWQs5PFpCTOCfwH0X9b4azmIhPTiCl4cThZHRDIA1EarU6JiYmKCjIw8NDLpfr6OhIJBJYGhkYGOjo6FhZWbm6uurp6RkYGHh4eBw/fjwnJ+fAgQP+/v48Hk8qlerp6Tk6OoaEhMhkMh0dHQ8PjxYtWpiYmOjq6rZq1QrHM/Pnz/fw8Jg3b567u7upqem0adNEIhGPx8NCV1dXl8fj6erqKpXK06dPazSaH374QSQSDRky5OrVq6NGjXJ2dl61apVarU5NTT137tzw4cMtLCxEItEPP/xQWlpaVVVFjKIIs8qcwMbZyMnbRoBNodYUHFZRmbVgJWd9shJyfrKAnMQ5gf8oKnH7f3tE/fjxI+6CqtXqEydOODo6GhkZWVpaDhgwYPPmzWFhYS4uLubm5kOHDr1+/frDhw/Xr18Pm9vjx4/HxMQMHDhQKBQKBAKpVGpkZDRmzJioqCgc0nh5eTVv3tzS0lIoFAYGBqakpNTU1Dx+/PjEiRPPnz9v1aqVmZnZkiVLnJ2d/f39Bw8ePHv27Llz544fP97b29vW1nb37t0lJSWHDx8OCAjYs2dPbm5uTEzM8ePHnz17Vl1dnZSUFBISYmxsrKWl5ebmdv78eRgt/3OOylJCzk8WkFMnOYH/KOr/M0XFlAkr1YKCgiNHjuzevTsmJiYrK6uqqiozM3PXrl0XLlx49+4dzjYrKyuf1oeKiors7OwdO3ZMmTJlwYIFGzdu3L59++vXr+Pi4kaMGDF37tyHDx8+ePDg2LFjW7Zs2b9/PyzpcecmOzs7ODi4f//+t27dOnDgQFxcXHZ2dklJSWVlZXFx8enTp3/55Zf4+PiSkhK1Wp2QkFBaWlpRUaFWq3GrpqamJjMzc9u2bQEBAd27dz9w4EBJSQmmvhUVFZ+SMJocEq9Z8orPvwhkEeek1hQcVsJGKtUUao3jcBLnBP6jqMTJ/wcjKl1DpTvcdLO0pqamoqKivLy8oqICpkKIYMJcU1NTVlaWlZWVmppaXFxcWlpaWVlZWlr67t27/Pz8iooKEFTXB7rXUl1drVar4+Pj7969W1xcjM+amprq6mrcEVepVBX1ATYPtbW1IIUbM7glo1ars7Oznz179vLlS9xuJx8Rn5KwfxSVONCUXuBTbPznPup/6iqLifjkBJJyc+JwMrohkPZgKisrcaWzqqoKOokIbmnjF8pWWVmJa2hQWoxymHmWlpbev3//8uXL6enpIFheXn7v3r0rV67ExsYWFxfjgkt1dbVGo6mqqnr16tXp06djYmLKysqq60NtbW1iYmJ4ePjhw4ezsrLKysrQKdBvdXU1dBIaC4MN9DUoXsM6fkpAObn6F4GNN8oXE2+kUn89R07inMB/RlTi9v/2iEpC/N8lqI9B8VJTUyMjI0NDQzds2LBz587w8PCVK1cuW7Zs0aJFoaGh27Zte/HiRWVlJYa+Dx8+pKenDx8+3NbWdtWqVQUFBdXV1YmJiUOGDHF2dp4/f35GRkZdXR02bCvrw+LFi21sbIKDg4uKitRqdUlJSXZ29po1aywsLAYNGhQfH69SqaqqqnAXD/0Iq5xUfk4dIGT8+8U4nAk5gf9DOYLs/1COnMQ5gf8oKrXvv5GiqtXq3bt329jY6OnpiUQihUIhEokEAoFEItHX1zcwMLCxsTl69GhFRQWGu8rKyri4uLZt2wqFwjVr1qhUqtra2idPnjg6OhoYGEyaNCk9PR3TY9x9ValUc+fOlUqlEyZMyM/Pf/369cqVK1esWLF48WKJRNK7d++UlJSqqqry8nJMiZlXrv+bX5/wlsop05xAIoV/OXGaDmwKtabgsHJEEhaQ85MT2HiOnMQ5gf8oKnHy30hRy8vLN23aJJVKbWxsRo4cOX78+MmTJwcHB0+YMGHo0KEmJiZKpfLcuXO1tbVYrJ46dWrChAk4m+nbt++aNWtu3Lhx6tQpqVTK4/HatWs3e/bsadOmrVix4sGDB5WVlSqVKjg42MDAYPTo0ZmZmUeOHLG1tfX3958/f75MJuvUqVN0dHRUVNSaNWvS0tIqKyv/UdQvUELOJCwgp05yAv9R1H87Ra2trVWr1WFhYSKRqH379rdv387MzCwoKMjLyysqKrp37567u7uFhcXFixcxSc7Ozp4wYYJAINCqD3w+XyqVDh06dPDgwTr1QSAQ8Pl8oVBobGy8atWq7OzsuLi4oKAgY2PjAQMGPHny5OTJkw4ODgEBASEhIVKplM/nu7u7Gxsb29raxsTE4IpPIxLG+ovzkxNIrMe/nDhNBzaFWlNwWDkiCQvI+ckJbDxHTuKcwH8UlTj57zKifvz4UaPRbNy40cjISCaTde7cedCgQUOGDPn2228HDBgQEBBgaGgIRcVubUFBwZAhQ/T19eGHxdXVVUtLy9raGne8R48evXbt2kGDBgkEAkNDw3Xr1l27dm3QoEFmZmZaWlpisXjYsGGLFi0yNzeXy+V2dnZ6enq6urpCobBZs2bm5uY3btzAuQtLCpnCxPqL85MTSKzHv5w4TQc2hVpTcFg5MmvKSs76ZCXk/GQBOYlzAv9RVOL2v52iGhsb6+joiMViExMTmUyGa+VGRka4a3r16tXi4uK6urrS0tIhQ4ZIJJJ58+YlJiaOHz8eHh60tLR8fX0TExPLysouXrzo6uoqFotXrlx58+bN4cOHm5qa8ng8kUhkY2Njb2/P5/N1dHRgzd+pU6clS5aY1Ifo6Gg46W1Ewlh/cX5yAon1+JcTp+nAplBrCg4rRyRhATk/OYGN58hJnBP4j6ISJ/+9FBVrVG9v7/Dw8EOHDkVFRW3YsCE0NHTWrFk2NjaWlpZnzpyB/868vLwhQ4bw+fy+fftGRUUNGzbM2NhYIpE0b948ICAgIiIiMTExJibG1tZWIpHA/iE6Ohq35zp16jRo0CChUKijo2NkZNS6dWuhUNizZ88zZ864u7ubmZnduXMHzpBYUsgUJtZfnJ+cQGI9/uXEaTqwKdSagsPKkVlTVnLWJysh5ycLyEmcE/gvKyr2FchqjJwv09k9TG1gHwcgZUzIIAIP7tjlJ3x604GO6cgTNJJTAfCAAuULF9J06IdTSpzvgTid/lEJWVzj/OQENt5CVF9Co0gj1FAq1FGlUm3atEkikXTo0OH69etpaWn59SE1NfXSpUuOjo6WlpanT59GHbOysoYMGaKnp6etrS0QCIyMjLS0tJycnHr16mVnZ2djYxMeHn7s2DFra2sTE5OdO3fW1NSoVKqNGzfy+fyBAweePn16wYIFuEmzYcMGpVLZvXv3/fv3Ozo6yuXy+/fvw46XbrFRXf7djmcgGI00LhBQfsgehAe/lJAJBDIJJ1PGKDtKyIRQHM8aQF+YAkwIiDC5SpkygZ9XVBCiyqCsADJfOkAhSKlIzfDaB/QHagMc4BNTUBNwBEfzrFoRJtmyffjwATJEDqAhuCAFII7yKQkWdUzOsnjR8LMR1fqUpHIymhPIJI5SgVEajeann34Si8UGBgYuLi4+Pj4dOnTw9/dv1apVy5YtDQwMlErlsWPH0BYYUXk8npeX17hx4+zs7DDpvXjx4sSJE2FYv3z5cmtrawsLC3j3rKioiIqKMjQ0DAoKysnJuXPnTosWLQIDA5cvX25ubm5ra9ulSxexWGxtbf348WNqUyZzmNVh1oJ4Qsj494txOBN+CsiSVSoDs1SEQxIIsaGenfybA5OJjzaC2FN7ocnoL9xDZKkJS1E5ZRsZUZkb1vEzlkkgioxJ01QqVUFBwa1bt86cOZNXHyoqKoqKip4/fx4XF1dUVATrM3TD1dXVeXl5t2/fjomJyc7Orq6uVqlUJSUlZLBWXh9wvA4Nx/sLKSkpiYmJb+pDcnLyu/qQmJj49OnT169fq9VqGNzBwK20tPTmzZvHjx/Py8tDOd+8eXPgwIFz587ByIY4iwiLL8y2/ItSyExOfOcEMhuDildTU1NVVfXrr7/K5XJ9fX0zMzPc5zY3N7eysjI1NdXT0xOLxVFRUbDgKy4uHjx4sJ6eXkhISEpKysyZM5VKpaenZ3x8/N69e21sbNzd3desWWNra2thYfH777+XlJSUl5dHREQIBIIxY8bExMRs377dwsKiS5cu06dPVygULi4u9vb2IpFo5MiRmZmZ6OyYRaVKAcj6i/OTE9gUOpwJPwUkpWqkcaFXkBn09VVVVTC6guEXHuwhNSb5Bxx6iCQQP9hgwmYLIw1mhbAPg/6jswMmOgImHMqFjFg8YX7+C4qKEiQmJi5fvnzBggX+/v6urq4OMtFAAAAgAElEQVSrVq1atGjRrVu3bt682bt3bzc3twsXLtCw+eeff5aXl1+6dKlDhw6+vr5nz57dvXv3qlWrcGPjhx9+WLhw4fz587///vvt27fn5eUhYW1tbWxsbLdu3ezs7FxdXV1cXHDr0s3NzdnZ2cHBoWfPnnFxccT06urqM2fOeHp6mpqa3r59u7q6uqSkZOPGjXK53NXV9ezZs3Awr9FoyDC1kbYEdyANnDLBZF9DDWcmJ0xOIJM4U1FVKlVkZKRcLvf19f3tt99iY2MfPXoUFxcXHx+/f//+Fi1ayGSyHTt2oGsrKCgYOHAgHLXcunUrODgYo2tiYuK7d+927dq1bdu28+fP29nZWVpanjp1qrKyMjc3d9GiRSKRSKlUdujQYdCgQUqlMiAgYN26debm5v7+/tOmTZs9e3ZoaChch4JprLpQxZm1ICAhfzEbG0nImSMa9LO9ME2vVCqVWq2+fPnyiRMn0tLSKioqKisr1Wr1vXv3Ll68mJ6ejrUSZKympqawsPDSpUv37t0rLy8nu05oXXV1dUVFhUajgcJjyH337t2rV6/KysqqqqpKS0tVKlV+fj6uBELbkYRMuP8GRYWBKB4aU6vVZ8+etbe3d3JysrKyUigUfn5+pqam69atO3jwoK2trZ2d3YEDB6Kjo2NjY/Pz81GHLVu2SCQSV1fXffv2ffPNN3w+XyAQKJVKvMKAsztXV9f4+Hi8eqLRaLZv325iYmJhYeHp6Qk3eTY2NlZWViYmJnp6eqamppcuXaqqqkJt8/Pzx48fr1AofHx8Ll++/Pr167dv344cORKWPZ06dRo9evTMmTPv3LmD43uayZM8/Y0SxqmTnEASOOpTYVufnZ0dFhYmk8latGgRGhp69OjRkydPHqsPK1assLS0NDc3P3LkCMQiLy+vb9++2tralpaWbdq0MTc319bW9vHxSUxMxCNRZWVlu3fvNjY2dnR0vHXrVm5uLnaqdHV19fT0vL29+/bta25u3qpVq2PHjgUFBYWGhqampu7du9fFxaVv375//PGHRqOhojbkGOuvhp8Nlachzr/E/08l/+yISs/bqdXq/fv379mzp3///q1atVq8ePHmzZtPnTp18uTJgICA1q1b//bbb1AqvFJXXV1948aNtm3bDho0KDo6+tSpU+vWrQsPD9+4ceOGDRvWr1+/cePGNWvW/PLLLxkZGdXV1VlZWWFhYYMHD967d++DBw9W14cZ9WH58uXLli1bunTpggULFi5ciBtImBxVV1cTexvW8TMj6sePH8mSu6amJjU1FQseuVyORZSZmZlcLseDCDweTyKReHp6Ojg4tGnT5qeffsrIyEhLS5s3bx6fz/f394+IiLCyshKJRH379l21atWmTZt27NgRHBwslUpdXV0fPXpUW1tbVlZWVFS0YMECAwMDiJezs7OpqalCoVAqlQqFQl9f38jI6MqVK7hcotFooqOj/f39raysZsyYMWnSpFGjRs2fP9/ExMTAwEAqlSqVSn19fWNj419//ZXeRPu3GlFpSVNRUVFQUPD69euZM2fq6+traWlhC1cikZiYmIjFYqlUqqOjo1Qqjxw5otFoPnz4kJubO2jQIGA6ODiIRKJmzZr5+vo+ffq0trY2LS0tOjp64MCBIpHIx8fn5cuXz58/HzJkiEwm8/X1nT9//oULF7Zu3apUKu3s7EJCQoKCgkJCQhYsWNC2bVttbW0/P7/nz5+jXyMZogiEqaFIEQLU799EUWlP6OPHj4mJia1atfL09ITv8pYtW1pYWEyZMmX16tWmpqYODg6//fZbcXFxQUEBRr+ampp9+/ZJJBI/P7/Nmze3b98eFp3W1tZeXl6Ojo4WFhYKhcLJyQlzltTU1MmTJ8vlcnd3986dO+M1IDs7OysrKwMDA3Ld7OrqunTpUrzQBS4R6xpy9fOKiqUw5ga3b9/29fWVSCQ6OjrNmjXj8Xj8+uDh4WFkZMTj8RQKhUAgaNasmZOT0+7du69fvz5jxgxLS0u45+ratStWWa6urt26dQsMDOzUqZOfn59YLHZ1dY2NjcXitqysbN68eUKhUCqVtmjRwsXFxdra2sbGBuwwMDAwMTG5ceMGTNJfvHgxYMAAgUDQq1evkJAQsVhsb29va2v79ddfm5mZjRkzJjAwUCgUYsTGJtO/24hK5cGyJy8vb+HChZiaDhs2bOLEiZPqw5QpU0aNGgXXgTdu3MCI+vbt2y5duujp6fXt23fDhg29e/cWi8U9e/Z8/vx5aWnpli1bPD09cWQ6ePDglJQUjUZz+vTpHTt2XLlyJS8vr6qqKiYmxtvbW19fXywW6+npCesDPvF+1P8fioreEN7hLly4AAMvExMTbW1tCwsLMzOzSZMmzZ49W1Efvv3225kzZ86ZM+fBgwdVVVXZ2dmbNm2SyWSenp5r16718fERiUR9+vRZtWrV7t27IyIigoKCFAqFg4PDtWvXqqqq1Gp1dHR0//79/fz8nJycpFLpggUL1qxZM3v2bBsbG4jlnj17Dh8+nJiYSFstdPmec37xeUVFMlyPfPPmzYIFC/z8/PT09L766iuxWGxpaeni4uLp6amvr9+8efMlS5a0bdtWIBCMGDEC/p19fX0FAoFufbC3tzc1NdXW1pZKpebm5kKhUFdX19ra2tzcvEOHDnfu3IHteFlZ2ZIlS4yNjfX19cE4iUQilUoNDQ35fL6urq6pqem+ffsyMzPLysr27NmjVCoNDQ1tbW2bN2+Oxxf4fL5CobCwsOjcuTP2Y3755RdcgG7YwaMba9iHcfKL+jz6l5WQkxonkBLS+gpG8DDKb9euXXBw8Js3b9RqtUajwZZbamrqggULxo0b9/r1ayxvcnJyli1bNmDAgF9//fXt27f79u0bP378/v37sVd3+PDhDh06eHh4jBo16uzZs+AALp1it0Oj0aSnp+/YsWPIkCHdu3cfMGDA8OHDx9SHBQsW3Llzp6ysDKseZsWZ1aFaMIGEzDkd5Uzy14GceVGp0O41NTXZ2dmjRo1SKpUCgUBfX19XV9fAwEChUGCA1dPTk0qlxsbGfD7f3Nz8559/fvny5bJly/z9/YVCoVgsDgwMtLW1FQqF3t7evXv37t+/f58+ffDSj4eHx6VLl9BYr1+/PnDgwMmTJwcMGGBhYbFkyZLJkycPHz5cqVQaGxu3bNmyc+fOa9euzc/PxxYA+hEm3ygOSfsXFDUvLy8uLm7WrFmOjo5isZjH48lkMgcHB3iO1NPTc3Z23rZtW7t27RQKRWRkZHl5+YsXL3bt2jVs2DA9PT0LC4vx48c7OzsLBIIOHToMHjzYysrK0NCwd+/ec+bMWbhw4aVLl2JjY/fu3bt8+fLu3btDgfFraWmJPU+YpNva2k6ePHnz5s1Pnjy5d+9eQEAAvJDAr3zLli3btGkTHBzs4eEhEAh4PN7EiRPT09NxHYS270g9KMJiDakiwZsiTEBmYTYEMvsLIJOcVVRUvHr16vz58w8fPsQD3hjTcChXXFxcWFiI4fTDhw8FBQWxsbEJCQllZWV4mxi3ybELUlRUdPPmzevXr799+5ZugePWa01NTUFBQWFhYU1NjUajefXq1ZMnT1JSUmBXjNeT6QV0GvNRSGZ1WDUlZjIjlJyZEHFickM69FcTMYmBzEJSjthGqqqqKikpiYiI8PPzk0gkX3/9Ncy/7O3tvby8ZDIZ/Nr4+/uLRKKZM2fevXt33759rVu3NjIywks/cEeupaWFkQDvEkilUoy30dHRBQUFBw4cGDRo0MyZM69fvz5mzBiBQODn52dsbGxkZKRUKh0cHBQKBY/HGzhwYEpKCnaAWSfVDbnRVEWtqqqCbzupVIp5vFAodHBwGDFiRJs2bbS0tNAtDRkyxNra2tTU9Pjx4xUVFVVVVdhjFIvFCoXC19fX0tJST0/PysrKw8PDzMyMz+djJLSysho+fPjatWvd3d3FYjEsTo2NjYVCIfxuGRgY6OvrY6aNiZmnp+eJEyfy8/OPHj06ffp0c3NzLy+vqKioXbt2RUZGrly50tPTU1tbWygU9ujRIzIyMjo6Ojk5GaeptJ/OlCcSCBKRhvz6LA5JBhOzIbChohIO1hrMQ2CyA8GNGTpCwBtTxcXFWK/SQTQOqKDYuIBKhxB08FBXV1dVH8CK6upq+DeEGmMPkxSMIkwdAHMasojJ0k/hMJnTCE5D4tQ0RKGJOBiysMF2+PBhX19fY2NjkUgkFovNzMzwzqW2trazs3NERETv3r3Nzc3hPio5OTkqKmrAgAEmJiYODg4hISE+Pj54gGvKlCkODg4wHZk9e3ZYWFhGRoZGowkLC7O0tDQ1NR06dGi7du2kUmmPHj2USqWtre233367YMECrHIDAwNfv35NOxRUI846fkZRqYXwavXVq1c9PT379OnTt29foVCIK1Hr1q3r0KGDj4+PWCxu3bq1Uqn09/d/9OhRZWVlTk7OqVOn/Pz8dHV1mzVrJhKJYDqDd1YMDAxg/O3o6Ni8efOhQ4devHhx9erV3bt3N6oPFhYWcrlcS0tLqVR6eHjY2dm1aNHC3d3d3t7e29v7119/hcufV69ezZgxw9raeuzYsbdv396yZUuPHj3MzMzw+Ke5uTk6ES8vr/DwcLVaTTvvDUWKmNWI9DSOg39Z0tMQ2Iii0mEyRkVmIUnNAMR1cGwfMK93Q9nQdtRhU1MSQQgENjah/CQ0hMPKEXBmdVg1pYQU4RQ74iH925AO/UXIX9woKAzqmJCQ0KZNGzMzM0xizczMOnbsiNu/6NYHDx7s6upqZWV1+/bturq6kvpw4MAB6/owbNgw3F6wsrJydnbG49Hu7u5+fn7du3eHTL548WLWrFkBAQEjRozw8vKSy+UdO3aUy+U8Hs/BwcHDw8PGxkYgEPTp0ycpKYl4TtXkrPhnFJVGHpwOXbhwwcvLCzu3X3/9tZGRkbu7u5eXV1hY2NatW6VSqYmJCZ/PnzRpUm5ubmVl5Y0bN5ydnXk8nra2to2NTbt27WQymYmJCQ5O3dzcxGJxUFDQkSNHfvrpp/j4eOj2xo0bxWJxs2bNcFVaW1tbT0/P2NgYZ/0ymYzH43l4eBw9elSj0eTm5uKkns/nW1hYODg4+Pj4NG/e3MHBYdSoUStXrhw6dCjOkBQKxeLFi+GXBMpAwoRIQ05xSg+hccoN/mUlbAhsXFGholAhUldqP8oXSkh+HkCTuiGmZjKJUGEwzJI+I4JzeeIMlYQgVDUqBjEEJWRifgqHlYSqRvBGElIBqCKUiug0xAEzP378+PLlyy5duvTo0WPIkCFKpdLV1TU8PHzChAnt27f38fERCoUeHh5KpdLJySkhIQFHgO/fv//xxx/lcrmenp69vT1UDvcWsP8ilUrlcrmpqem3334bFxdXU1Pz/v37q1evXr582c/Pz8zMLCAgALsn3epDq1atsOh7+/bt36OoYDq6VTy5i1mBnp6ekZGRr68vZqE///zz+fPn7e3ttbW1DQwMlixZkp+fX1VVdfToUXh81tXV7dy58y+//GJhYeHk5OTr62thYSEUCrW0tKRSqa2tbdeuXWFZWlhYuHr1apFIZGVl5e/v7+7uDqM5HFe4ubnhqLB3797Pnz/Py8vLyMgYMWIE3LqbmZn5+/svXLhw/fr1y5cvb9WqFXzeTp48eVt9eP36NVZ3LD1BNRtpb+IDE5NTmDilh4BIjtyZikRZEwIrR8qLWXJoEaaprIT0SZRJiBsWhhQMJp+UFgbV8OHCBBIFFk2iw0JuqDYNS8WJ03QgESRGEQSlgj7Abc3o0aMdHR3NzMxgIO3p6eni4jJv3rxt27bhuNHQ0LBr1645OTnV1dWPHz8eMmSIWCwGso+Pj4mJiVwu//7777dt29aiRQsrK6uJEyeuXbt2586dd+7cUalUZWVlBw8eXLVq1fr1693d3W1sbPr16yeVSs3MzLy8vFxdXb28vCQSSb9+/XA2A0lgFZj1+ZkRFZWk+U9lZeWzZ89GjRrF4/H8/PyCgoKkUmnLli0fPHjw+vVrf39/TFMjIyMLCgo0Gs27d+8uXbo0c+ZMgUDQrl27DRs2yGQyOzs7Y2NjgUDg5uaGPUkej9e8efMnT57AOeXq1asxlsIWAsareKpo1KhRbdq0USgUK1euhCWTRqO5fv36kiVLVqxYgdcEExISHjx4AF+4nTp1MjU1lclkGzdu1Gg0TJMpTiEg7rDaG5JHqgU0Fg6lbSi+hM+U4OrqaliuMEvCjDekwyoGFqUVFRXMeW8jxWARp1J9KgktemHFToVnJmTR5PzkBFKm+JcTp+nAz1KDotbV1SUmJs6YMcPMzAwPMWMkMDY2XrJkyc2bN62trbW0tLS1tUeMGFFcXFxUVHT06FFvb2+8gunp6blq1Sp7e3szMzMfH5/27dsbGBjweDxPT89evXqtWrXqxYsX5eXlxcXFy5cvVyqVvr6+1tbWLVu2XLFiRevWre3t7SUSCaTd3t5+8uTJaWlpf8+IylJUWOctXLjQxMRER0cHL2RbWFig87CxscG710uXLk1ISICVVkVFxY4dOyQSibe3N/z6fPPNNxKJxMbGJjIyMj4+ftOmTUql0t7e/u7duyUlJUVFRXPmzMHWER7z1dLSksvlw4YNw0GLSCTq3LnzrVu3SktLy8vL79+/P3369MGDB7dq1Qr7WD/88MOPP/7o6enZqlWrIUOGTJw4ccqUKWTKA2nj1AFqbPqXBIWlIY1IKvMvJkHQJFn/+PFjZWVlUVFRRUUF5UL5UkLmX0SB+guMrrjGwMLkLMYX4DQc/IkIIvTZSI5fjMOZkBPI4hgnDma/lZWVycnJffr0kUgkeOTS1NRUqVSGhYWlpKR8++23PB4Pr9rBQjAlJSUiIiIkJASbLytXrrSyssLrlXp6enZ2dvb29tbW1jo6OjCSLS0tffjwob+/v0wmGzBggEKhGDRo0KJFiyZNmjRlyhQ7OzsnJ6fFixcPHDjwypUrZELIWWBmpT4zopKAYgsxIyPjwoULixYtcnd35/P5sHDQ0dGBa3aBQGBqampoaCiXy/38/H799deCgoI//vhj6NChYrHY1NTU2NgYjkKwdfz999/j3E8sFnt6ej5+/FilUp09e9bd3V1LS4vP58tkMjhl5/P5U6ZMad26dbP60Lp16507d8bExLx792769Ol8Ph8PGdnY2Pj6+v76669hYWG2trb6+voCgSAwMHDjxo006SVxZ7KGqb2AM3+RhLlaYwolkw6TsxSnCFNLsUiGZ1AmBWacU29p6kvTHNouojITEYowC0wcoHpRCRvmSAmZhWcCqdcgYENqnyoGMwnRJyA1ChGkChKkYYEbwSGOqdXq9evX490QgUCgra1tamq6bNmyq1evdurUSU9PT19fPzg4+Pbt2zBOKigoOHz4sLm5uaenZ9++faVSqZ+fn4mJiY2NzZ49e65evbpq1SocVZ4/f16j0Rw7dszBwcHW1jYwMFAqlfbt29fHx8fS0jIwMLBjx45ubm5TpkwxNzf/7rvvXr9+jS16VmUbcuwziopmwG9ZWdmhQ4f8/PzkcrlIJGrevHlQUNDs2bPxVqeDg8PkyZN37ty5ZMkSe3v75s2bR0VFZWVlhYSE4AwKW76+vr4REREODg66urpyudzMzAwXl11cXHDzZu/evXh23tXVtW3btnhCG+9/GhkZ4bFQsVhsY2MzePDghw8fnjlzpm/fvv369Vu1atWhQ4cuXryIJ1L27t3bp08fOzs7kUhkamoaHh5eXl7OvAbN5AUtYLB5Rs3PwqmqqmJOMjllguSMKUwNgaRvn20hJh3KEZNSOhOmA5s///wT0/uGOVKlEKEzUqZBDBOnYb5MCDCZtfhUjigqk5PMOOVIigqajUwIOZNT2YhFBKGioiTl5eUJCQlhYWEBAQHw6iiRSIyMjNzc3GAkZ2JiAkjnzp1PnDhRVVWVlJT0448/isVieX2QSqWjRo1q3ry5XC5ftGhRZGQkLuI7OzufO3eupKRk0aJFYrHYwsICj9DivZ927dqFhIS0bNlSqVTOmjUL9hV79uxh2uFQmRvW8TOKCvZhu7+8vDw+Pn7FihXffvvtwoULjx49mpKS8uLFi2nTpvXo0SM8PPzly5c40zt69OiuXbtiY2Pz8vIWLVoEY8g+ffp069YtNDT07NmzHTp0+Oabb5YsWTJv3rypU6e2adOme/fusbGx5eXlL1++DA8P37Bhw7lz516/fn306FFbW1sTExOpVOrg4DBnzpwlS5Z069bNysqqT58+MNDJzMwsLCzExTeVSqXRaMrqQ1JS0smTJzt27Ghubr5w4cLCwkIIZcO2/PDhA+z7mdfZSYYQwfEmaTL9y+Ipp7w2BDJFnEmBGacsWO1HjYI7caRyNLgREYpwFoB2fTHUAJmIM6kx40QTmPRXwyxQftgYwKXLp3Copti+UqvVsN8A8YbVJwglJAjVgiDAwYSorq7uzp07ffv2Je82AQEB48ePb9mypUAgEIvFHTp02LBhw/Tp02UymZWVVVhY2Lt370JDQz08PDCF1NPTw00jKysrXV1dc3Nze3t7S0tLHR0dT0/P+/fvp6amTpgwAQvU5s2b4ywzICBg69atc+bMwUXC8+fPR0ZGjh079sCBA5WVlRAqps0DMRm1+PzFcVQSl2Cqq6vLy8tTU1PT0tJwrRFPJ7x9+zYpKam4uLisrAwbGxkZGTk5ORUVFSqV6v3795cvXz558uTz+pCWlvb+/fuLFy9eunSptLS0oKAgNzf38uXLT548ge1VVVUVFrfl5eUajebly5fz5s3buHFjVFTU0aNH09LSHj9+HBMTExERceTIEdw+pQMJTAJhKlBTUwO/8o8fPz548OCrV6/QSVPTMnmB1QvOOZgtTTgQSvol9hE1plg0Bfh3KSoWqLhLSU9gUGGo/MwCo3hYy4BXMDeFoGDYYekwzTiYmtNERcXtYsxlWMVgfhLb4YOitLSUpglUC8KhCjZk9adwqDNKSUlZtGiRv78/bA9u3rz59OnTtWvX9uvXb+rUqadPn87JyXn+/HlERMSiRYuOHj2alJQUHBxsbW2NE9eePXuuXLnyzJkzbdu29fT0DAwMnDdv3oIFC9zd3UeNGvX69eu0tLQtW7YEBQXt3r37wIEDly9fvnfv3pkzZ2AOJZfLBwwYEB8fn56enpycjJeBIMBUTc5KfX5EhRDDQBSjCjpyXHMpKSnRaDSwBMY9PbQxcODNnWQCnWtmZua7d+9wggRByczMTEpKKioqgvkb3VCvra0tKSmJjo5+9OhRbm5uRUVFRkZGdnZ2WVlZXFzc9evX4QOeOkvmMhKyRU85fPjwAV0XcYHJF5I/irDam6milJCF04j0MCWS4sgLlCktESc0+otZcqgT6oi7gZhEYFpBffOnqGGFTNctYK1F5YEdBXnKJ66SrFPZQKfhLIPK3ERlpqrhfAjCw1p7E86nKkWlIkxWMcC0Dx8+wMkBLohiClZYWPj69ev09HQaJMrKyjAaVVZWJiQknDhx4uDBgy9fvgRabm5uVFTU8ePH8dBWYWHhnTt3EhISSkpKYE4cHx9fUVGBHhAmX+np6Vu2bFm+fHlMTAxON3DuReyl0nKW/zOKirZhdqigi/FKrVaXlpbm5+fn5ua+fv366dOn8fXhxYsXSUlJGRkZycnJcNwOOrW1tZmZmatWrZo6deqWLVvwVFFFRcWuXbt69eoVHh7+7Nkz1ArH7tXV1Y8ePRo/fvyOHTsKCwuR/P379wkJCQMHDuzfv/+rV6/oyRays0M9mSVnlp+48GXt3ZCbLDpMcWEiU74EbEpCFg4+CYhhGTUlNWNqPmGyStVIQkgzNjyZlKnYFEFG6JcpI4owc+QEMul8ijmcCTmBTaHGxCH1qKys1Gg0kDqNRgM7pPLycpIZmPpgtkJDSFVVFd7jKi0tzcjIYOIzBY8YiOxU9QGbCKDPbCwqHic3vlBRsZYrKSk5f/58r169vL29PT093f4reHh4uLq6urm5tW3bFstxKHZFRUVOTk6fPn0MDAwmTJiQnp6u0WgyMzO/++47HR2dAQMGJCUlwXQebxmp1Wq4HejYsWNaWpparT5y5Mi6det+//13R0dHV1fXGzduABPvO1C1SRDBDmI6ze44edGQU18gEyDCSsgJ/AIcJKGEVE0IBKpPTGikjo0kxF80mhFlJnOoOjRGMYvExGQVmBI2EYfIMhNyAolgE3MkRaUKIsLUIkAIAZwhn15QWkwnWdQafmJaClNtDC2YhjAbi6rA2XCfUVQQYvXWyBUW4YcPH7awsICFoGt9cHNzc3FxcXZ2VigUpqamhw4dwhygrq4uNzf33Llz3t7eRkZGP/7446tXr7Kysl68eOHm5mZgYBAUFPTo0aOkpKS0tDRsSsGjikKhcHR0TExMjI+Ph4+vyMhIGP3+/vvvz58/f/bsGdM6B/VklpxZfuLC39LeRI3J5SYCWQVgyiJRY+GwpBB1ZNaUII1TIzQIH/PzU3EqEkVYmI3kyFkLJp2GHGPVlEn8i6kxc2RWnIijRn/++SdTi4CJEkKQyJSaPpnKDCJMkSNGofsDwU8tT6gwVFpk/RlF/VQyZFlcXBweHi6RSJydnU+fPv3mzZukpKTk5OTExMTLly8HBAQYGxsfPnwYVnvl5eXLli2zsbHR0dHByZWbm9u4ceM2b96sVCp1dHQsLCxwk6Zly5awbSovLz948CB8rCQkJCQnJ8Pya+nSpWZmZhYWFhMmTMD13F9++YXzlZT/6fZuKGGcHOMEsgSuKTic1aGEJBBEmSKEgwjzl5kKcea/TUnIZAIrR8y8yLAJEXgeoVyQKXOhC4LYAaapOKZFoEBpmVkzi8oqBucngFR9prIxcyGzcIyTWEVTjUj3OLOgciIXlvYyC0yYnMAm7fpy8gK3+3DF2czMzNraOpXwzZUAACAASURBVDw8/PTp0ydOnDh58uSpU6e2bNni6OgoFAr379+PBY9Goxk7diyfz9fX13dxcYGrB0tLy3bt2uFM1dPTE5vg+vr68+bNS05OPnDgQNeuXfX19UUiUXBw8OHDh3GtITg4GLqNZ874fP7q1av/UVRWY3M23N+CwxSmxgUUool3mWkihgjWftjaJSWk4sFFIOkDCToIEtqn6th4qUhFG9JhJWTWlJBZOI1QYyVhJeQkzgn8ckVF7/Lx48ebN28qFAo48sF9Aox1dnZ2BgYGIpFo27ZteC1XrVYHBQUZGBiMHTv21atX4eHhcrlcR0dHUh82bNhQVFSUkpLSrl07PT290NDQxMTE0aNHGxoa6uvrf/XVV1Kp1NvbG/oJCwoej9e6dWsnJyc+n799+3bY4rF40QgTOTEb5yxnEhaQk9GcwKYkZOHgkwXkJM4JbErCpuAwibPwWZ/Y8K+trVWpVKWlpbm5ufBChO3QnJyczMxM2l6ura0FZagfTRGxCUy3KVhZcH5yApnEm6jhzJqykrM+vyBHTuKcwC9XVEzTa2trz507Z2ZmxuPxfHx8fH19O3To0KlTpy5dugwePBhX3nbt2qVWq+FIZsyYMTwe77vvvrty5UpYWJhCoWjWrJlMJnNzc9u9e3dhYWFKSoqXl5dAIFi+fHl2dvbp06cxohoYGOBOnJaWlo6OjqWlJY/Hs7W13bNnz+jRo2UyWWRkJGyGOPnVdOD/MvcpO4pwFpX1LwsH/zYF+HfhMHNk0WR9YvukpqYmNzd33rx5Y8eOjY2NxX5Mbm5uaGhonz59fvrpJ5xq0LINWoTdmoyMjEOHDu3atevly5c0JhNDmqhvrFLhsylAZk0p06YkbAoOJ3FO4F9SVJzC7d+/XyQSyeXyqKiop0+fvnjxIjk5OSkp6cmTJx07djQ0NNyxY0dxcXFtbW1paenYsWPhMMnKykqpVOJBsR49erRq1crPz2/btm3Jycne3t4CgWDlypVQ76ioKPgoXL58ee/evQUCgYWFxcyZM83Nzd3c3C5fvjxy5EhDQ8PIyEhs/NIygFnhpnDt78Jh5os4/XJmQf9yJuRMwgJyJuQENiVhU3CYxFn49EnjIRzEPHjwwM3NzczMbO/evbm5ufn5+REREVKpVFdX18PD49q1a/DhRKlox/XixYtOTk5yuXzatGnJyclqtZoOgZEX5diUUn0Wh0WNiY/439g1cBLnBH65okIfPnz4sH//frFYrFQqR40atWzZsvnz5y9YsGDUqFFDhgyxtLQ0MDA4cuQIfNWrVKpJkyZpa2sbGRk5ODiYm5traWnZ2NhERUV17txZW1u7X79+9+7d8/LyMjQ03LRpU3l5OXzGW1lZeXt7P3z4MCYmxs3NzdHRcf369XZ2dtbW1kFBQa6uroaGhkePHqUzGKxnmBVmcb+RBmY1BmfCxnGY+RImJ5BFvCk4nCXnTMgJ/IIcOekwgSya9AmVw0L0yJEjw4cPl8lkhoaGnTt3XrNmzYEDBzw9Pe3s7Hr37m1paenj43P8+HG1Wo3bJGhKbCMlJSVNmDBBLpcrFIrdu3cXFBTQJhMnNxoBotikaVTURqrD/IuVnPXJSa1xHE7inMAvV1QoQ11d3ZEjR2QyGTwwmJqaGhkZwS4XDngNDAxu3boFF/VlZWWjR482MDAYOHDg0aNHly5dqlAobGxs/vjjj02bNllZWdna2m7atMne3h5NolKpKisrt2zZYmJi4uXlFRsb++rVqxb1ISIiwtLSUiqVWltb6+vrW1paXrt2jQwJ/1FUlnx86vNTMkH4FGFJITMh6y/6hKJiLRoeHg6nk0qlEi/oeHp6GhgYeHl5TZkyxcnJSVdX19PTEwbkubm5NC3CujQpKem7777j8Xj+/v4wBWUucyjHppTqszgsakx8xEnPWZ+shJyfLCAncU7glysqNqnr6up+//13eFf54Ycffvvtt8OHDx85cmTLli2LFi1ydnYWCoV4YxOWHN26dRMIBPPnz8/Kytq3b5+FhYW1tfWTJ0/gGz4oKGjPnj22trZWVlbHjh2DAdf27duNjIykUmnHjh0nTJjg4OBgZWW1YsUKuHTo2LFjYGDgd9999/LlS2z6UxszK8xiED45gf/L3KfsKPIFpWLWlOhwAlnEvxiHmZBFkz5JUT98+BAbGxsQEGBmZjZ27Ng5c+bgyhRuRBobGysUiubNm9va2vL5fD8/v/v379OZB6yvS0pKRo4cyePx9PX1f/75Z41Gg1UusxiIkxZRMf5VHFbCRpL/9Rw5iXMC/zVFxUiFBqB1wqFDh7DZu2nTplu3bl25cuVafThy5Iinp6dAILh9+3ZVVZVGoyksLBw0aJCurq6Pj8+sWbP69u3L5/Otra0TEhIqKyuzsrKePHkSGxvr4eHh4OCAe31Xrlzp3r27tra2rq6ujo5OYGAgBt7IyEhfX9/OnTufPn36woUL33333dy5c+/cuQPLCugqs8Is7uOTqkMRYv1faW9mvhRvJAtmppQvAT9VckKgCAsTcBaQ9fnFOMyELJr0CTnBtY3Y2Ni2bdtaW1u7uLh069YNL2i0a9fO29vby8trwoQJBw8eDAsLc3Z2njhxYlZWFvwbQ11ramrS09O7d++up6fH4/ECAwNfvnyJAz9wtZGumdjOFAliMopKkswcpYmrzJoSkBJSAZhnsPQvMqIyUL5Eh5M4J/AvKSr4eODAASMjI4lEgqec3NzcXF1dW7Ro4ejoqK+vb2hoeObMGVjD5+fnT5w4EecxcIOmo6NjZ2eHyUxZWVlCQsKBAwdsbW1xXaioqCgkJEQoFBobG/fq1WvYsGFbt261sbExNTVduHDhrFmz1q5de+3atXXr1sHdY1hYGPpa1uZhQwYRK4mJiDA5SDgNgQThxGnIaGYulLZhqRombIjTxBwpF+B/6rMpOXLiMIGfyoIUtaamZsmSJZaWljY2NkZGRhMnThwyZIiRkRGWnaampp07dx45cmSXLl2USmVoaKhKpYJoYY+3pqbmypUr9vb2JiYm8Hy9c+dOps/Xv0tRmT7iiGPMmhKQWgGraOYtHxIkJg4LSHQ4iXMCv1xRwZ2qqqr9+/fLZDKhUOjv7+/n59e6dWu86uHh4QF/ULhxV1NTk5eX17NnTz09vVatWoWEhIwYMUImk9nb22O//ty5cz179pTJZFpaWu3atUtLS9NoNL/99tvo0aNx4eDp06dv377t2LGjjo4O3rS3rQ9CoZDP57dv3/7YsWN0HYGkh/jF5A4BmSpESZic4gQSKaJDEIowEzJzIYSGSoi/mAkb4jQxR8qlcWpNyZEThwn8VBakqJWVlT169DAwMIDDPhsbm/bt2xsZGdnXB11dXQcHB2l9EIlE69atw7oUOw51dXWlpaWrV68WCoXDhw9fvny5SCSaN2+eSqWiQexvUVT494IrWVaNPtUKgMM9Mt1TY+kkq+kbUm5InMlbxIHzL5gQUq5kS6VWqw8ePPjNN9/06tXr0aNHOfUhMzPz7du39+/fHzp0qJOTU3R0dGlpaU1NTUlJyapVq4YOHXr8+PGysrKUlJTFixePGDECzxnduXMH9gwuLi6RkZH0empRUREuN5SVlanV6gMHDnTs2NHJycnd3d3b29vZ2dnb23vKlCk7d+588eIF+jZiFnGBxSB8UnUoQnxpPCGhER2CUISZI9FnAikLSoJI4zhNzJFoNk6tKTly4jCBn8oCioqzmVmzZn3zzTe2trZ4Pw6uFYyMjNCVN2/eXCKRWFlZ8fn8DRs24MokrrNUV1efO3fOxcXF2Nh4z549d+7csba29vDwwMYHGPsXFRXCXFtbC3d8TA8en2Ujps04WKJiMNuI1fQsXjHZSHlxAv9jRGXSAnNZ9WcCy8vLyXPEn3/+iXcjT548ee7cOWztwhIFvH78+DG2fFGH2tra4uLizMxM3G6rq6t7//79s2fPsIKtrq6+du3akSNHyMKejltgXAGjRZVKlZ2d/ebNm9TU1IyMjKSkpJSUlOL6wPmkIpNr0A1Uh/pjZvWZzGIl/BT7GtE3akU6bGC2JfJl5thIFoTGWSrOhJzApghKU3CYxFn4xE8cs8PgIT09PT4+fs6cOYaGhu3bt+/Rowe82ymVSl1dXTMzM319fXNzcz09vfXr19fV1anVapgQJiQkjBw5ks/nd+/e/cWLF6WlpUFBQXw+f+jQoc+ePaOn1tCaDUvFLAyznIjTL5IzTw1Ain6ZaZktDvpIzmxcwqECUF5EkyIs4oCzgJ9UVHiypBueVAj4I0YboHx4HgvGCZBI7B+gm8G/5eXlxAsyBAMR2qql6+ZYfpCRJ+VCEVxrBlvxdBLdPCIGsbhA1QbjoPOsGxKEw+QUJ/BTxAmOYkBRUUHc8sNDo6zGY6b6VPkJB+VhlQr/NgX4d+Ewc2TRJNnFA75qtbqysjIpKen69euTJk3i8XhCoRBvF8BJOlxM6ujomJiYKBSKVatWVVVVlZWVFRcXZ2VlhYaG4pGEI0eOFBYWFhcXHz161Nzc3MzMbNu2bTBIpGlnw1IRqyHAnGykApM8EBpFGtaR/qK2Jh0BMv1SGRo2LoiwiHMC/2VFxeCGNTRzoCDbLprwwJEPkwvELCo6KEBFceAGykAgFjQcA0EKkxYoMHPYZzGRxSDoD3ldocKw+EWMbkiNIJw4TEaTRTTeosfrrJ/KkZmQlQXrk1VUzoScwKYkbAoOkzgLnwQARqMlJSUFBQVz5syRyWR8Ph/vuMIOXCKR4G0hS0tL+A0Ti8VLly6F47+ioqKdO3eamJiYm5svW7asqKiI/CRMmjRJT09PqVROmDDh999/LykpYV7HQXnoF9wm2WtY8sblh4mPOEucSEr/xxUVBaVsSAcIwtQBEjLmZR9Mb2jhiqLTqAvFYGog7a1DvZEQJixA5uQFjai0ycbcG8SUm4pH0oMIsy6wa4FvJ2okZkJqY85iUGvRv5RXw7+AQwisXAjOmRBAFg4+WUDCbAhnQViflJAK0LCtUQUWAxtWhCDARBeMmYtGo1m7du3w4cN79+6tr6/fs2fP4OBgc3PzYcOG9erVSyQSdejQISAgwM3NTSKRrF27VqPRvHnzZsWKFfb29oaGhpMnT8YL13AiqdFo7ty5M378eJFIhFsZ165dY16RQ0nIQwBTvJnVpJpCiujzUzWltMx2p7xYgsSJQ1kQryg5QSgXVkv9x4iKmSTdEUNBWcWlTxBqSAWFoGyooExIQyCeLcbhDWUB4vRLdaB6EiZxh3hNOJQcyLi2j1k36ovnz9CbMJGBT0XFX1QLzk8WkJNFBGRWpykJWTj4ZAGZxKmoBGRCKCGzGMRPAKFj4C0dLUITSOhJD2ldBwRqCDCwsrIS+6jJycm5ublbt25VKBSBgYETJ06USqV9+vRxdXUVCoWLFi1aunRpixYthELhTz/9VFFRERMT4+/vb2pqOnHixJcvX1ZWViJraH5FRcWbN2/wQHaPHj3u3buHYlCVqRg0BlCzEg5GDjqSASb9UkLwpGFyVJBKhRyZaNRSTAosVjP/Qpwai1qKCvwVhrWqqipmMhZF+qRkQKYkNHElOCUhCFOLCEisoXGSaIKVBMchOPnyIWrEU2yUY8pNfISK4reqqqqwsDA5ObmgoKCoqIj0lioFvhOLSV0bYV9DHKJGqShCtaYIIROExTfOTxaQ0lKtCYEiwKFPUjniP0FIRODLnzQQDIePOLQCuIo7aGA79hdAAXMc3ICBx7CoqKi2bdtOnz79p59+CgoK2rp165gxY0aNGnXlypWff/65devW3bp1u3LlSmVlZWlp6blz5w4ePJiRkcEsIRQVNNPT048cOfLo0SO8+0qH59R82CtBIdGzEKMQYV2IhaThly6HkSoS6xoKHskYMxcmPjMJqwz0F+BMUaE4mvU/FBVzV6AiA85smE1I7YrkcOXG7IyZcUJuCMRcF/b35AuP2gb8wuYenF+Dj3B9huc90SmC6bA6JOe9aCqgPX369Nq1a0FBQT179pw/f/6bN29UKhWNGFR3VJzUj6pMGsViH2Ey4Y0AWe1EZD/FIhbH8MkCUlr4EIHcAMjCRMdPUkiaRqLG1MC6ujpycENSQSsaYjhzHxEv4rKYiUxrampSU1Nv3bp16dKlp0+fvnnzBj5ls7KyysvLS0tL79+/Hx8fn5+fX1hYiKYhnSFpRAQEaRuS/iVmQvpRQmw0ghQxiphD/0IF6BcR9AhgF5OT1ArEQOIboVGEuMHSSZIEKj9T2Jjx/1RUqhUNTQ0pghZ+IQ3Ut8E72atXr9LT04uKitB34pYwHFjiF/7XysrKmAh48To3Nzc9PT0vL6+wsLCkpKS0tLSsrAy/wC8sLExLS3v16hWcG759+zYlJSUtLS0jIyMzMzM/Px/Es7KyUlJSSktLSRzhYK6wsPD27dsjR450dHTU1tbm8XhWVlZwDs6c8FOHheS07Qw2UdMyGxujDXGcyVxmnASIOIxWREIQweQN8lFRUVFUVFRcXJyfn08sev/+fXZ29vv37zPrw/v377OysvLqQ05ODj6zs7OzsrJS60NmZmZWVlba/x3gkzk1NTWFEd69e0eQd+/eJSYmJiUlvXnzJjc39+3btyUlJVRBiCw6voyMjGPHjs2fP3/OnDkHDx7EE/fl5eUNTwow0ykuLobvWGwyYcGJtU9OTk5paSkeXCYneKQktMdBgopuGnqIHSba+EVRqatCX4NzeNIcGgbwqLFarcbZAXm9hWdceJnGQSNOJWGgWlVVhaICDb+gQE5z4QFbXR9w/AFPunCOSwcc6D5QWkgdiQ1FSHj+2+CBpo6oLWGQ3qKdkBlMRgoLC3///Xc8rdG9e/c+ffr0799/4MCB/fr1610f4Ca8f//+A+pD//79+/Xr179//759+/bo0aNbt25du3YNDAzs3Llzjx49+vXrN2DAgL59+/bu3btXr149e/bs1atXv379+vTp06lTp3bt2nXs2LFTp06BgYFdunTp2rVrt27dunfv3rt374EDBw4YMKBLly6TJk168OABukk4AT5x4kRISIi7uzuPx9PR0dHS0nJ0dJw4cWJsbGxGRgadCTPnaRSHiGBNC6enrI6Z2p5UjvoIGg2AQ7u+GHPAQ7QQ2hhodXV18fHxM2fO7NKlS69evbp27dqzZ8/u3bvjOn7nzp07dOjg5+cXEBAAhoB7iPv5+bVt2xbO37y9vQMCAjp37tymTZvWrVv7+Pi0adPG19cXER8fH+/60Lp162/qQ5v60Lo+eHl5+fj4+Pn59evXz8/Pb+PGjdishnhAfM+dOxccHOzk5IRnWrp16/bkyROsoej4DTxBv1ZTU1NcXAxu19TUQCXAosrKSnTQ2KpQqVSgAEVljjYkhzRsUEcJ3QNXKceEhIRDhw5t3759/fr1P/300549e37++ecdO3bs3Llz7969Bw4c+PXXX8PDw9esWbNu3boNGzZs2rRpc30IDw+PiIgIDw/fWh+2bNmyYcMGPIO2Y8eO7du3b9myZfPmzcCPiIjYunXrjvoQHh6+atWq0NDQJUuW/PDDDwsWLAgNDQ0LC1uzZs2KFSs2bNgQHh6+efPmdevWhYWFrV+/fvPmzeHh4aBWWFjItLX4pKKCC6jkpxT1w4cPpaWlhYWFWNyja5k+fbqenh6e9DY1NYWBvkKhUCqVZmZm5ubmFhYWVlZWeK3ZysrKzMxMqVTK5XLcucEDbdbW1tiIt7S0tLKywjvt1tbWlvUBV08tLCzwr42Nja2tLYCWlpYmJiZW9UEgECgUivPnz+OsPDk5eenSpW5ubrq6utra2l999ZVEIgkMDIyKinr48CGcsKWlpWVlZWXXBwws8FGMUSsvLw+OXvPy8t7Xh+zs7JycnNz/Cjk5ORjlQAFgAAHBb15eXnZ2dnp6+tu3b9+8efPy5cv4+Pg//vjj2bNneGQgOjpapVLBi+S1a9dMTExwd8/JyQkvhdnb2zs6OtrZ2bm4uHh7e9vZ2dnY2FhbW1tZWQEIt4+4A+js7Ozo6Oji4oK7u7a2to6Ojm5ubq1atfLx8WlbH6CfcMrh5+fn7+/frl27Nm3aeHh4ODo6whTUzMxMT09vyJAh2HjD0jE5OXnDhg1t2rSBPSAeBFu0aFFiYiIGLub2ErYVyC07Fi/MWSK6J4yxOHGF1x6sWZjdGXV8mPjQrAedHfNfdKxVVVUrV66UyWRKpdLY2NjExEQsFuPhIhwL4VcgEMC2EQ8jwSuQkZGRsbGxkZGRSCSSSCRyuRyPHhkbG5uZmeHpN6lUalwf8DSGQqGASONFY6lUKpFIRCKRoaGhVCqVyWRisVhRH5RKpUKhMDExgXaY1wexWHzlyhViXcOl03/s+jJHTmA0oqgqlQpzGLCytLQ0MDCQx+P16NHjyJEj165du3HjxtX6cL0+3Lhx4+bNm9HR0bfrQ3R09K1bt65du3b58uVr165duXLl+vXr0dHRd+/effDgwf379x8+fPjo0aOHDx/i886dO9H14dKlSyfrw8WLF0Hz+vXrV65cuXjx4pkzZ86fP3/w4EFXV1eBQHD27Nmqqqri4uINGzYoFAotLS1dXd2vvvoK75c7OTnRYYCXl1fL+vDNN9+0bt3aw8PDy8vLz8+vTZs2reqDn59fly5d/P39W7Zs6eXlRaOQT31AKgxKkPj27dt36NChbdu2EH2oRNu2bTt06NCuXTtQRlr8wnONn59fhw4dzp8/j3nvgwcP8DzJ8ePHoc9xcXHx8fEPHjyIi4t7/vx5YmLijRs3tm7dumfPnpMnT165cuXu3bsxMTE3bty4VR/u3bsHNj5+/PhRfUDkwYMH8fHxifUBftITEhJevHjxsj4kJyc/e/YsOjr61KlTjx49io+PHz9+vKGh4ahRo4qKitRq9YULF2bPnt2pUye5XK6rq6unpyeVSnv16nXq1KmXL1+mpqbC5gwTBHhmLywsLCgoyMvLy83NxRw+Pz8f1DCZhE/mmpoauKVH1w+9zc/Pz8nJAX5xcXFJSYlKpYIXbEyhq6ursbQBHFqNt0mLi4tzcnLGjh2rr6+P2zkhISFTpkwJCQkJDg6ePXv2vHnz5s6d+/3338+ePXvq1KmTJk0aN27cmDFjxo8fP2HChEmTJk2ePHns2LFDhw4dPnx4cHDw1KlTQ0JCZsyYMXfu3NmzZ8+cOXPatGkh9WHatGkzZsyYM2cOSIWEhEybNm369OnTpk2bOnXq999/j6F15syZc+fOnTlz5qxZs+bMmTOjPkybNi04ONjDw8PQ0DAiIoI1iYBiknr+p6Ji8gAVJUVlTTawLsUGL1YIarUaFl5jx46FmQjmjbTiok6RtnDRBWIHCJ2rRqMpKCiAnXBhYSEesKHnALBWJI9Y6J7JdgyfeGi0X79+Eonk3Llz1dXVKpVq3rx5+vr6zZo1+6o+4DVXsVhsZWVFTtgUCoVMJsMgT30kOkW8+CirD6amphYWFgqFAs9Gou+UyWTUiaKPxIRCLpcDDQiEjFmGTCaDAToenjQ3N1coFJaWljt37gTr7t+/b2lp6e/v/+7dO7QcPfyDNVVeXt7du3cjIiJu3rwJi2i0SGVlJebVtH2AcYZYBKZh/aJWq6EkNBbBS3NRUVFGRgaWVatXrxaLxZMnTy4pKSkuLp4+fbpAINCqD1999ZVQKHRzcxs4cOCsWbMmTpw4cuTIqVOnzpo1a8aMGcHBwVCMif8Vxo0bBx0YO3bsuHHjgoODIaPBwcHTp0+fNGlSUFAQ4FOnTg0ODh47duyIESNGjhw5ZsyYcePGkfIgIcR99uzZ06dPnzx58qRJk6ZPnz5jxoyQkJAJEyYEBQVFREQUFxfPnDlTJBKFhoZmZWVBz4uKikpLSzF0gy14WqKwsDAnJyc1NfX9+/dF9QFdQ05OTl5eXnl5OfqRsrIyWs3iWXFsJWjqQ2lpKfZf8OQSRDo/Px/7LOhiYK+OK5/oudLS0kaMGCESifbt24fta8wyOKa+tKzCvBcNifajmTDnUqGysrKsrGzixIk8Hi84OLiwsBAGhhgZsJGLhKRsdXV1eGMbzqzoHQGyN8TEBqsUTKXAGpI5/AWZRsWg7fn5+Z06dRIKhefPn8crQzExMSNHjoRnpq+//rpZs2Y2NjZBQUEnT568devW+fPnL168ePXq1fPnz0dHR1+/fv3SpUvnz5+/cOHC/fv3nzx5Eh8fHx0dvXfv3rNnzz5+/PjVq1eU6ubNmzExMXfv3qUpwOPHj5/Uh/j4+Li4uEePHsXGxj58+PD+/ft368P9+/djY2Pj4uIeMwKGx6dPn8bFxZWVlWFpHR8f37x582+++ebRo0e4tYd+k45J6P0emEyDt2AImIM+lI7HsU9DD3+gD6UXQ7AmhPlHbW1tVlbW+/fvMVItWbJES0urX79+6enpBQUFsAf6+uuvteuDrq6uUCjEnX4+ny8UCg0MDLAIEgqFhoaGQqFQIBDw+Xz6RYTP5xsZGfH5fENDQ0wvMUXEv5hPYuYpFovx/KFEIgFNQIBjZGQkk8kkEgmml+j+jI2NJRJJz54979+/P3z4cLlcHhERgVf8MBTREAIPW+BYaWlpdnb227dvi4uL6+rqVCpVfn4+ToDBNzQNqQPtZkH2iDINP9hvwxtllCMUjV5Cg/CXlJSEhIQYGhpGRUXhjYhPKiqI0sOh1dXVGo0Ge+6knxSB0OATajl16lRdXd0lS5aQ3QLGzMLCwjdv3rx//z4/Px+LvYqKisLCwqdPn6pUqqKiotzc3LS0tPv37+fl5UEPseOHrNVqdVpaWnZ2Nl5DxGFdUVFRSUlJWlpaUlISttSwfIIPfn9/f4lEQnPIqqqqjIyMvXv39ujRQy6Xa2lpYfYbGBi4evXquLg46DlZPlCHRaKPRmLOMmjLh7WtDzg1GNoGds7omAgfjU2/II4GxunUgwcPLC0ttIhcYAAAIABJREFUXVxcYmJiyAwTjQLnmu/qA3ZN6fm8/Pz85Prw7t07bKJioZ6Xl/fq1Ss8mff48eOEhAQ6jgZj37x5gycI0tPT6+rq8HhXeXm5SqVavny5WCweOXJkbm5udnb2jBkzFAqFnp4eJik8Hq9Tp06LFi0KDw/fWx+2bt26Zs2aTZs2RUVF/fzzz5GRkT/VB0QiIyOj6sPWrVuBc+bMmZs3b2Lxcvz48UOHDu3bt287IyDJrl27du/evW/fvt9+++3YsWOnT5++fPnyjRs3rly5curUqYMHD+6qD/v37z9x4sTvv/++c+fOmzdvZmRkBAUFGRsbHz16FLsqGIEqKirS0tI2btwYGRmJ6xzV1dU3b96cO3fujz/+mJqaiqbEvo5Go8GYiZcKi4uLnz9/fvv27evXrz9+/Pj58+fR0dFXr1599uxZQUEBrZazsrJu3bp148aNixcv3r59u6io6OnTpxcvXrx//35cXNzevXuPHTuGTXIUKSwsTCaT7dixA5ttpGvsqS8JKKSn6SMqupM5c+bo6uouXryYdpgw3U1MTFy3bl337t27du06cODA9evXv337tqqqKjk5+dq1az/++OPAgQM9PDw6dux4/Pjx7Oxs6CpG47dv3y5YsKBjx45du3Y9d+4c+vvMzMxdu3YNHDjQ39+/bdu2oaGhz58/pwO3vLy89u3bS6XSCxcuUD+C2d379+/PnDnz7bffmpuba2tra2lpmZubx8XF4WEfXNSAIlHdSeXAHLQB/iV2Nfykv6jrxQSBpjHMHTsgA0Izjo8fP967d8/c3BzPOsPhLRw43rp1a+DAgS1atPD09MSr6jiBLC4uvnHjxpQpU9zc3Fq0aNGzZ0+IYHV1dXFxMbqAhw8fjhs3zsnJqVOnTrjPVFNT8/Tp05CQEHgw8vPz+/HHH5OSkjIzM8vKyqDMYWFhAoFg6NCh7969KywsjI+PP3To0IgRI6ytrXk83tdffy0UCl1cXGbOnPnHH3+g3ywoKMAAjiczAUScJo2YXefm5mK+gHUKzqKys7P/a58uF9NOmKYUFRXl1wec4cE4B069y8rKCgoKaEv5w4cP6OgLCwsnT55saGj4f9j7zqiqkmdfSScnOOScowQBERBEQDGMCorDKAZEVFRGx6yj4hjHMCpiVoyomLNiRBRQMKAyRkBBQEDJOer837r81q273+E4o970Prz94ay9+1Sn6qru6urqqgsXLlCYMgj/mzdvVlNTc3Nzu3//fkFBQX19/Z49e+CX68KFC8XFxaC38vLyuLi4qKioyMjIMWPGjBgxYuzYsd7e3hYWFgYdj7Gxsb6+vrq6ur29/ZQpUxBwMCkpafjw4dB6Qhu6efPmMWPGIAKylZWVhoaGjY1NYmIiCYlr1qxRVVXdunUr+kWbUllGpT+IlWlrSi/MvygRTDVz5kwOh7NgwQLMByDfhw8fBgcHi8XiLl26QFISi8W4evrw4UPIJBBHORyOra3thg0b6M5uVVXVqlWr4LlXKBT+9ttvVVVVb968mTBhglQqxcKooKDA5XJ79eoFm+z29vbS0lI/Pz81NbUrV64wzRiwKDU2NhYWFq5evdrAwEAoFDo5Ob1+/Rpg+EUHSZdGL1gb8UmcybQjxZIIHJJxDPic/qI1WQaNxMBgVJRPK+q9e/cwlpWVladPn/bx8cFqBkWOlpbWpEmT8vLy0tLScC0bajNlZWU7O7v169dXVlZicSgtLR01ahSLxVJSUlJVVf39998bGxufPHkydOhQPp8PUVZBQUFdXT08PPzmzZs4CP38+fPmzZtFItGAAQMgDIN7i4uLjx49Onz4cAQ6UFRUFAgEY8aMefHiBRgSaluIaThvJKUG2gP6YSITaMHsRtQJMBmMgeSYpzJoFbM0SP6VlZXTpk1TVVW9cOECmoRBqa2tjYyMFAqFVlZWV69eTUxMzM7OPn78uImJibOz8927d3Fbs6WlpaCgYPr06ba2ttg9CYVCCwsLHo/H5XL19PT4fD6LxbKystLW1uZyuQEBAVlZWY2NjXBuKhAI/Pz8HBwcWCxWaGho7969ORxOjx494IZGR0fn8OHDEKCqq6uXLVvG5/O3bNnCpFuiDWLP/zhHpSRiRSapEQaZRNzW1jZt2jQejxcdHY2lCQvF+vXrtbW1FRUVTU1NPTw8eDyegoKCoaHh/v37t2zZYmFhoaSkZGpq6uDgIBQKORyOnZ3dy5cvMR2mpaU5OTlxOBysfpGRkSUlJSdPnrS1te3SpYtIJHJxcQHu1NXVly9f/uHDh9bW1nfv3nl7e6uqql6/fh2kxuwOFpaioqKzZ88ePHjw1q1bcDUs06nOn53x9TcwTLwRhRF1Mv8l1mU2EokPHjwwNjZ2dnbOyMhA3vfv348ePZrL5fL5fFNTU2trazabraSkZGlpuX///rlz5/L5fHj0g0UHj8fz8vKC/NLW1oaQ7SwWS0FBAX5Y6+rqVq1aJRKJlJSUDAwMvL29dXR08C90DVBibd26VSAQBAYGlpeXw5IBckdbW9u7d+8OHz7s6enJ4/FYLNagQYPS09Ohs0WAVkhVUMx2tkkgyZ9eCDmEXmCefoEcYmn6BPsRtvHZ1taWl5c3btw4sVh88eJFaI/AwDk5OW5ubkpKShwOx93d3draOiAg4Mcff5RIJFZWVkePHqXL0tXV1Tdv3ly9erW1tTWXyx00aNDq1avNzc21tLR++uknMzMzqVQaHh7u6+uLQ6z8/PyampoHDx54eXmpq6v7+/t7eXlJJJKBAwd6eHgIBIKePXsOGDBAR0dHQ0Pj2LFj2LyUl5cvW7aMy+Vu27btv4VRCSOTJ0/m8XirVq2CqxtsiKOiokBMoaGhCQkJVlZWSkpKampqS5Ys6dWrF5vN1tfXX7Zs2fXr17t37w5n+efOnWtvb6+srIyOjkZ8Gkz2UVFR79+/X7lypUAg6NKli7Oz8/79+/v376+goMBms2fMmFFSUlJXV5ebm9u9e3dVVdUbN26gw8QDTCETymdSzBBZYPbp/PlNjIoT//b2dqIMqFKZZEQsihdqJKU/fvzY0tKyR48eDx8+hNLiw4cPQ4YMYbFYfD5/6dKle/bsMTExUVBQUFVVXbJkiYODA0IHxMfHnzp1ytbWVkFBwdjY+MqVK58+fcrJyQkKCoLGW1lZWSKRxMXFffjwYdSoUdixT5s2LSsra9KkSXw+X0VFZdSoUQUFBdgU7Nq1i8PhjB49ury8HNM/Jg4wYXNz89WrV5ctWxYdHQ332cQ8TKQx1zrqIyGEmQWJNATEorQwEDPLzU5FYbg/fvw4a9YsNTU1KBdpyti8eTNOUF1cXOCBSSKReHt7q6urw+fwpk2bsKfAKdGtW7d69uwpkUjWrl176dIlHAHa2tqKRCK4ONXT02OxWP3798/LyyspKbl27VpAQIChoaGBgYGtra2BgYGLi0v37t01NDTEYrGKiopIJOrZs+edO3egdi4rK8OKumfPHghWhCVCBTDwnSsq5sK2trYJEybweLw//vijrq6OrAuXLl2KA3FXV9cVK1ZYWlpidd22bZurq2uXLl2sra3Pnz9fXV09fvx4qPs2bdrU3NwcHx+vpaUlkUh8fX3BrrNnzy4vLz979qyxsTEKmTdvnouLCzg/NjYWCvf8/PwePXpIpdKbN2/KhDDBcQUa/Ndff+G0A7wqg4vOn0ya+0dmhv6mvr7+4cOHRUVF5HGCCIteZAaDPv/666/MzExzc3MXF5eMjAzMhvX19cuXL8dRU0hIyMyZMw0NDRUVFS0tLWNiYgwMDLC6vnz5srKyctiwYV26dJFIJBs2bKioqIiOjpZKpWKx2NraWkVFRSgUxsTEfPjwYd26dT179gwPD09KSqqsrJw+fTqbzVZUVBw5cmRJSQl0oXv27GGxWFOnToWmhBgJBluYRGpqaqCcZ66NnVcG4jpiJyZiv5RICCf8oA1MNBIMXoCx9vb2srKyBQsWqKurX7p0iQa9sLAwKChITU0tKioqJSVl586dFhYWpqamWHuVlZVVVVVNTU2xXW9ubi4vL4+NjXV2duZwOD///PPGjRu7du3K5XJNTU25XC5CjcKbjL+/f2lpaXV19aNHjxYvXjx16tS5c+euXLnyp59+0tbWtrKyCggIMDExUVVV9ff3nzt3blpaWmVlZUtLS2Nj47Jly4RC4aFDh/5bGBWTKzHqunXrINyDK1JSUmxsbBQVFdlstrq6urKyMpfLHTNmzJkzZ5ydnRUVFd3d3S9cuFBRUTF16lSIuL/++uvDhw8HDBjA5XJdXV1/++03gUCgrKw8b9686urqoqIif39/JSUlONpns9ksFsvc3PzOnTuw6SksLPTw8FBTU0tOTsacCq4jEiFGxYhi7DtzJqVQRkph0oRM4fiE6qi+vh6KfqiCyAEyKBtyIO2yqBwsF58/f05PT9fT03NwcHjw4AGyQHyF4home7BYhrGBtra2srKyi4vL/fv3S0tLBwwYoKKiwmKxpkyZcvLkya5du3I4nIEDBw4bNgxr8tq1a5uamkpKSvLy8qArPnXqlIuLC4fD4fP5a9eurampAbnv27ePxWJFRkYyPWITz0DQJRUg9YjWPYIkvFEK8bxM92W490sZ/5FR29raysrK5s2bJ5VKoVyEjUR8fLyZmRmPx4uIiCgvL8d+0sfHZ/PmzXAvDKFMLBZHR0dXVVUdPnzYzs4OrGhkZOTm5oZD79jYWC8vL5FINGvWrMGDByspKfXp06eioiI7OzskJMTc3FxTU9PU1NTCwgL6S7FYbGBggHBnGhoa+vr6Q4YMycjIgC+LpUuXCoXCw4cPfzOjEoKAR7mfYNT29vbIyEgul7tq1SqYKOBE9MaNG9bW1uArTNVCoTAoKOj06dP29vaKioo+Pj44INmwYYOysjKHwxk/fnx0dDTUaEuXLl20aBF8+f7888+1tbUZGRn+/v7YEXG5XKhGLC0tL168+PHjx9bW1sLCQnd3dzU1tdu3b4POiAjktv9LiTJdZpLOl7IQDAgIZr10Ewi5cDsMiw/WK5mZghj13r17Ojo6Dg4OmZmZkBurqqrmzp0LRRq741FSUuJyuSEhIZcuXTIyMuJwOD179szLy2tsbAwLC8Nh5siRIwcOHCiRSPT09FauXBkaGsrhcAQCwfz586urq1FySUnJ8uXL7e3tVVRUeDyej48PlEkw642Li2OxWGPHjkUUCWIzvMjIKYQEevlH/H8Nqr+pNOAQ0zSQpqamdvHiRSC/uLg4JCQE57d6enrJycmxsbH6+vqDBg2Ki4vT1NR0dnY+dOhQRESEk5PT6tWrS0tLL1686OnpKZVKWSyWvr5+//79TUxMpFLpwIEDYV/p7u5uZWXF4/H69euHWxMLFizw8vKysbExMzODCZeqqqpEIuFwOGpqavr6+paWll27dg0NDX3y5AnOusGoBw8exH0gdLlzx+WIvl+iSCZmsXq0t7f//PPPHA5n6dKlUPRhkpg5cyaPx2Oz2XZ2doGBgTDl09DQ+PXXX+3s7BQVFW1tbU+fPl1dXT1jxgwY4g4fPtzOzk5BQUFLS2v48OFWVlZQC5uamh48eHD+/PkcDkdBQcHS0jI0NNTHxwckGxIS8vTpUzBqjx49/ncZlUgZqyhz3cBmlXmiLYNkYtT09HRdXV1HR8fHjx9jNnz58qWbmxv25AMGDAgNDdXS0mKxWFpaWsHBwbq6ugoKCnZ2dvn5+a2treHh4ZyOB4pZ+CJydXU1NTWFzbO7u/vZs2fr6uqKi4tXrlypq6sL96t9+/a9du1aRUUFbCfq6up27tzJZrOHDRtWV1dHXWO+MMVdIix6+V9k1Pb29urq6l9++UVNTe3MmTOfP39uamp6/fr14MGDvb29PTw8RCJRdHS0r6+vtrb2kiVLFi9eLJFIPD09Hz58mJeX9+zZs9zc3Pb29tra2qtXrzo5OYlEomnTph04cGDIkCEaGhpwJdOlSxd9fX3YWq9ataq2trawsHD79u39+/f38PCwtbU173hWrVo1Z84cc3NzbW1tQ0NDGxub7t27T5o06cmTJ/X19VVVVWDU/fv3kyUCkEzsBlL5TkbFRqW9vf2XX37hcDiLFy+GLNTa2lpUVATvu+rq6mvWrPnw4cPYsWO5XC4mHjMzM0VFRV1d3X379hUWFkJNwuFwhgwZgu0WNHKk9VVWVvbveBQVFZWVlWfPnl1ZWXnixAl1dXW4CIbnyIKCgv91RsUWnawUiFLBb1jnidD/hlH19PScnJyePHkCwTI9Pd3IyEhFRUVXVzc5OTk3NzcoKAi7iaCgIFNTUwUFBRMTk0ePHpWVlfn4+CgpKQmFQn9/fy0tLSjkVFRUFDoeJSUlkUg0b968x48fR0VFaWhoqKioqKurT5gw4cqVK/BLRMahcXFxHA5nwIABOCGnlhMrIoUEUeqvDIXJ9PRLn1Qss5yvT0SxQHJrayssflRVVU+cOIGFq7q6OiEh4fr167t27dLS0jIwMFBTU7Oxsbl06dKKFStEIpGnpyekEpj7wUTpzz//9Pb21tPT27dvX3l5+aVLl6ZMmbJixQpbW1sWizV06NBNmzatWbMmPz+/ra0tKSkpICBAXV1d0PHY2dlFRkbm5eWlpqauX7/e29sbXhf5fL6zs/ONGzdgc7Js2TKBQLBv375/MCFkopWQKBdBBIl/cag1ffp0DocTHR2NS8bt7e1ZWVmenp4Iqbho0aK7d+8GBwcrKSkJBILRo0e7u7srKSmpq6tHR0cfOXLE0dFRUVFRLBZv3rwZB/o2NjbdunWD2KCoqCiVSiMjI0NCQlRUVBQVFUeMGHHjxo1p06aJRCIFBQV/f/+8vLy2trY3b954enqqqqr+L4q+wB4RNBEc9m9Qx8MiFHomMDDBY4HKyMjQ1dV1cnKCu+PPnz8/ePDAwsKCzWYLBILo6OiDBw+6ubmpqKgIBIKFCxcGBASw2WypVLpq1ao//vjDxMQE53vbt2/v16+fp6ent7d3165d1dTUFDseGxubhISELVu2IIo0l8v18vLatGnTmTNnduzYkZKSAnJpamo6fvw4h8MZOXIknEhSO4k2/lcYFXp7rBN09xXbDeATd3Rqa2snT56sqqp6/PhxWlQaGhrq6uqysrJcXV0VFBQ4HM64ceM+fvwYGxsrkUjc3NyeP3+OU1+YuFRXVz958qRv375SqXTSpElr166dNGlS9+7d7ezsVFVVlZWVdXV1HTqevXv3NjU1FRUVbd++3djYWEVFRU1NDaag27ZtCwwMtLe3Nzc3h9pFV1d348aNZWVlkMlXrFiBCQWWcDITH1HRf2pFbWtri4qK4vF4K1eubGhowJWaoqKi4OBg7CTNzc0R71RRUVFfX3/9+vUIIq6kpKStrQ15TFFR0cbGJiMjI/Xfn9evX8+YMUMsFmPv+vLly61bt6qqqsIaxtLSEhHH4fkKFog4R5VKpXfu3IEYST2k2UdmoiGCY0L+52E6lwZ3ag0NDYmJiTEdT2pqallZGXRFZMMIRoXo6+Tk9Oeff8Lc4s2bN4GBgTAGgqE/du92dnYJCQlTp07FpgA3DbAjmDBhQmVl5d27d589e1ZUVHTr1q0xY8bAInfTpk0lJSWTJk1SUVHp0qULUApjWqFQOHTo0IKCAmi8EhIScDyD+6iEGXoBAv+b0PilwjE7YI9NyjbY9GA7hsPeuro6GDwcP36cDiPAyRcuXIDcoampuXDhwqqqqqNHj2pra5uZmd28eRP2djiCevfuXVJSkqurK7Dq4uKC674uLi4SiQR3m3EHOC4uDsrUtLQ0Ozs7ZWVlLy8vOzs7Lpfbr18/BBnt169fnz59+Hx+z549YVmBiWbNmjXa2trHjh3DcH+p49/JqJAx2traYOexceNGzLvQXO3evRvKJEVFRWyupFLptGnT3r17l5iY6Ovri/0SlEN2dnabNm2ChqOlpaWysrKpqenQoUNGRkZKSkqrVq2qqakpLy+fMmWKpqYmh8OBjorL5fbo0SM1NRWHfh8+fOjdu7eGhkZqaiomXSbDyCUmuYn/eSpk1ot3jEdZWVlgYKBKx+Pu7h4VFZWamgqWgIEBtCBQJjk5OT179gxS9KdPn5KTk318fKBFR8gsQ0PDuLi4ysrKp0+fjhgxQiAQ4OCaxWK5uLicPn0anplBu9XV1bGxsZqamtra2rdu3SovL58zZ466ujrZzcPORk1NLSgo6O3btyDTw4cPs9nsUaNGYf0nzNDLl0iKAGiK/G5Ud85IYkhZWVliYiKCksEMC80GGuvr6+fMmSMWi5mMWldXl5aWNmjQIC0tLaFQqKGhoaurO3bs2KFDhwqFQkNDw3Xr1t27d+/GjRuZmZnV1dXjxo2DEZKmpqauru7o0aM3bty4devWHTt22NraCgSCqVOnxsTEREdHHzt27O3bt3V1dY8fP3Z3d9fV1Q0PDw8ODhYIBOPHj7eyshIIBBMnToyMjNTS0urfv39paSlO3T99+rR48WKRSLR+/XrcE/gSVv/DUz7wKyPPyHwSDPDV1tYWEREhkUi2b9+OnUx7e3tDQ0NtbW18fPy4ceMGDx7s7OwcFBR04MABHBxVV1cnJSWtW7du5MiRHh4eU6ZMuX79ek1NDa5o4WSpsbERDiOXL1/+9OlT7BlKS0t37tz5448/2tvb+/r6RkdHg9DBlhUVFdiVpaWlgTqZLSdx4h8TiTKYkHhnkh1SAEyFMwkUiciCISksLAwODoYNmoqKCpvNNjMzmzRpEoX8wFYiLS1NW1u7W7duL168AM3hrsLdu3eXLl06ZMiQgQMHzp49+8qVKxUVFSDN58+fb9++HZfFlixZ8uTJk6qqKlRKZ0IvXryIi4vbvn17RUVFe3t7UVFRYmLi0aNHT506dbLjQbDM8+fPw5dNc3NzQkICm80ePXo0zpmIgKjv6COzp5BlCID5CVRQIUxcyaAR2clOE5+EScixzc3Ne/fu1dPTk0gkpqamCxcufP78ORwCY2NfX1+/cOFCRLgmOfnChQuwPfDx8VmzZs369et1dXUxx+HES0dHx9raGqrgc+fODR48WCqV+vn5bdu2bfbs2TY2Nvr6+giZIxKJVFRUjIyMDA0NzczMrK2tDxw40NDQ8Pz5c0dHRy6Xi5s9KioqISEhjo6OYrFYXV3dwMCAy+Xa2trCASrkgmXLlqmrq//+++//oPWFxAWHYIRNIj7CGuELMCR7TJgwQSQSbdu2DSsb3SGAmVF1dfXDhw/h8g8yCfYAjY2NcP8DE3BEtaAQTyBZmG6QWwDUmJ+f/+jRI4SQgtqDec1NU1MzJSUFkFAhMA/68E4CEtYxNJjuKwEbpINFm5GRyA4lgItQF05cIGUQd2EuAy9hU5CZmbl8+XIrKyusq7DOhcohLS2toKCgpaXl3r17urq6Li4uWFFRNXqKW9FlZWW4Qog2Q4eHO5NVVVWwdIdXHmY7YeZBF1bxF7NwlEOzbWtr66FDh9hsdlhYGI6aaGTRLyCK0EV0wvwXqCAYGhcUBUhmIlEqGZCBDgnVAMYctHv3bnV1dS6Xq6SkBAvK6dOn37x58+PHj21tbTU1NcuWLROJRKdPn8ZJUn19/ZYtWywtLfv06ZOYmFhZWdnY2Hj37t0VK1b06tXLxMTE0NAQ14/19fX9/f2Tk5MvXrwYExPz7NmzxsbGQ4cO4dzF1dUVArC1tbWrqys2nz4+Pps2baqrq3v79m1wcLC1tfXYsWOHDRtmbW09Y8YMPz8/Gxsb3NF1cHAYM2bM27dvyVkfVFmrVq1iqiExedF09m8eHmjMaLUkigT2mZ8EAwVJVVXVuHHjOBzOr7/+is0xc/wwE0PpzBxmbP3RLNAxJn6iG4wHsmDMQJQ08MiFumgYoHC7desWOLC8vPzo0aObNm3au3fv0aNHT58+fanjOXv2LO5DHT9+/Ni/PydOnDh8+PCuXbs2bdq0bt26zZs37927NyEh4ciRI/Hx8Xv37t29ezdd18JNrPj4+LNnz545c+bQoUO7du2C15xt27bhbtf27dt37NhBLnbghmfRokULFiwYPHiwhYWFQCBQVFSEhozP57u7u2dkZDQ2Nt66dUsikdjb2z9+/BgIIX+cQAIScQUZCMG8Rlp33EfBLRZSjWC8gDHA45fKJEhgr7W1ddeuXWw2e/z48WRihU0UDTHxJHEp8lItdGUSNzPxLwaXZm3cfScaZeqH0Dbcw8YRNHJhxJ89e7Zw4cIePXqIxWLYP3K5XHd393nz5l27dq2oqOj3338Xi8UnT56k2QdGDlDtEsk1NzdnZmaeOHHiwIEDq1evjo2NPXz4cFJSUkVFRVNTEzlkKy8vf/r0aVZW1uvXr3Nycl69evXkyZPnz58/ffr0/v372dnZHz58gP8n0ExZWdn79+/Pnj2bl5d39+7dq1evwkdXSkrKkydPaMb89OnT6tWrJRLJ6tWraZ7CWkhcis9/c8ANuicmZHImjQFeCAarR21t7aRJk7hc7uLFi7FsoiiMOsWqgE08oQYkBYKDXwKaVukF/xIx0aSOaQUFtrS0wCypsbGxoKDAx8dHKpXCMWxbW9v+/ft1dHRgh4izfnjEQZhGLpcLKx8ej4fLzSKRSCwWw7MOYHg8nkgk4vP5CKFLF6BRJqzk4YaHw+HgZrNAIEAhQqGQy+VCCYEUnHpzOx4YY2EDj/tAQqHw3LlzLS0tSUlJEonE1tYWOwLghyiGOd8RjxGWYKhQX18PVwM4tmUKBUys0sjCOBmrMU2Fnz9/jomJ4XA4kZGRkJXev39/9+5dXJpPSUmBVx04yrlz505KSsqtW7euXbuWnJycnp6empp65cqV48eP79+//8CBA6dOnbp69eqtjufmzZvXr1+/c+dOWlra1atXExISEhMTb968eefOndTU1Pv376enp1+7du348eOHDh2Kj48/dOjQsWOBdpSxAAAgAElEQVTHTp8+ffbs2fPnz1++fPnMmTOnT5++ffv2uXPnIiIi3NzcYNAH3Rifz3dxcZk/f35kZCSfz4+LiyspKaFDfqzGUA2ASmm5JjeIDQ0NNTU1MA8GvWFhRwpoD+/APBYk7FDIQyAudUNIbGpqwqRG5qsoFonR0dECgWDt2rV0DCafUSGVMR1wY0bEQNJwyjAqGtTe3j5nzhwOh9O3b989e/acOHECSKSdz6lTpxITE8+dO3fx4sVz587RUpaQkBAfH3/s2LGjHc/hjie+4znU8Rw+fDghIeHo0aPHjx8/efLk2bNnL1y4cPbs2XPnzh07duzgwYNHjx5NSEiIi4vbuXPn7t27165da2xsrKamdu3aNejf0tPTZ8yYERISEhwcPHLkyNGjR48dOxYXC3/seEJCQkaMGDFq1Khx48ZFRESMGzcuNDR0eMfz008/jR49Gn50wsLC4CgkLCxsbMczbtw4uPwIDQ1F9sjISPjgmT9//sKFCxctWjRjxozJkydHRETgr6VLly5btmzmzJnBwcG9e/c2MDDg8XiKiopKSkrYr1pZWV2+fBmMiruLkZGRy5cv/+OPP+Crbtu2bVu2bIHHupiYmHXr1m3atGnXrl07GM/27duxhgMYHu62bNmyefPmTZs2wXEenOtt3bqVgLds2bJhw4Y1a9bExMTs2LEjNjYWhQwdOpTL5UZERMAp0YYNG6ysrOBWzsTEBNsz8lxnYmKir6+PM32A4bomdNG6urrw5QXPYAhhDM910Ojghqe+vr6xsbGFhYWhoSFCXevo6KAKuLmBDzEdHR2UY2RkpKurC3t6zHc4glJRUfHy8oLPp3379hUXF5OYQJsUplyAXRL8PEFUgatEcDJzkWCyBlPuw2JIax7mU9h+Y0kjL5YoDbwN5UtUVJSKisrq1avpGOyLjIplEAspzanEqHKzwfC6tbV1wYIF8HNlamqKSwMGBgbwraanp6ejo6OtrY1AXXBKpPZ/P0KhEC7bsKBJpVIoJ+GUEOOHm0HwDSeVSvkdj0gkkkgk6urqSNfW1uZwOHp6eo8fPyYDIBi15ufnw6FWfX19dXU1zFxLSkrg67msrKyqqqqiogLetIqKiuAKt7i4uKLj+fjxI2K0Yo4kB8UIN1ZUVAQ/TzU1NZWVlXCu09TUhH8LCwsrKipwR6y1tTU3N3fFihX29vZSqRRyr5KSkpaWVmRk5MGDB9+/f9/e3p6cnKyvr6+oqIg1Gas91nbydYKFGks6U3NLvk4EAoGo48G/lA6jJRif4FAev0Ap1SUQCOjUfuTIkWDU3bt3BwQEwB2cq6srfIvCq5uXl1evXr16djyenp4eHh7Ozs5OTk729vYODg7Ozs6urq5ubm5wVuru7t6jRw/4PfTueHx9ffv16+fn5wf3ccjr6Ojo7u7es2dPDw8PeJDDJzLiUAR+58zMzHCxFlyqrKzM5/P9/f1xIjVr1qydO3eeOnUqKSnpxo0bt27dgp+9lJQUCAI3b968dOnSmTNnTpw4cfToUawQp0+fTkxMvNHxXLlyJTEx8cqVK9AwJycnQzS4desW3uFTDlLGtWvX4NAnMTHx6tWr169fv3nz5oULF/bv34+Sz58/n5SUdPv2bfiju3z5ckBAgFgsXr9+vYzSTo7oK7MbpPMcWkU7b22xqWhra0tISBgwYIC3t3fvjsff379Xr17u7u5ubm49e/bs3bt3347H29u7Z8+e8NPX698fX19fb2/vfv36+fv7u7i49OvXLzAwsH///gMGDBg4cCB8Ag8ZMgS+gocNGxbc8QwcONDd3R1hNv38/FBFv379evXqFRISkpWVBdOL+vp68pBGuyPYx8H2AKIjfCVDNAIeIOnhMJq208xZjHaGkKAwZcIxDcR7ks/JF9SnT5/evHkzbdo0WF/Bbl5XV3fQoEFbt27Ny8uDxxbYdS1fvnzcuHGBgYF9+/YNDQ2dNGlSaGjo0KFD4eYXXr/GjBmD5X3UqFGhoaEjR46E7PDTTz+NGjVq5MiRP3U8ISEhEB9+/PHHkJCQ0aNHU8bw8PCxY8eOGDHixx9/hBwxfPjwH3/8EacIo0aNmjRp0uLFi69evYr+wonJixcvnnU8zzueV69evX79Ojc3982bN/AFk52d/fr16xcvXjx//vzZs2d/djzPnj178eIFgF+/fv3q1aucnJw3//7Al/qbN2/+/PPPR48ewenUw4cPkRe/z58/z8rKevz4cUZGxuPHj7M6ntTU1NmzZ3fv3l0ikSgoKLBYLMRZHTx48B9//BEWFqaoqAh3ofCZatXxWFpaWlhY0K+ZmZm+vr6urq6hoaGpqSk5qcVig19IBFjbTToeU1NTBLw3NjYmR7ZGRkYICWlgYGBiYmJubm5gYAAZBFVoaWnB6hDObuErV0NDg8fj7dq16x9EX5IBoMWGMoqp9ZW7ouIQ//Pnzw0NDc+ePcvMzMRIPHv27PHjx/D69eeff75+/frt27ewn4R3rxcvXsBj5evXr+FDDE6AUlNTc3Nz4VYXvnPhfQPrHlzXwENcSUnJ8+fPc3NzS0tL379/X1hY+P79+9zc3JcvX0IbDIUEVA5gUbAZdYr50tjYWFRUBDCkg/Hgug1bGhwOIx1UC4005CgwMw6WysrK4MUPYKRu+fTp05MnTxwdHXEMIJFIevXqtWvXrgcPHuTm5uKgBXW1trYWFBQQMnNychAQ4N27dzk5OXCJBCfD+C0qKiosLCwoKHj37l1+fn5BQUFRUREBAD/wms9MREphYWF+fj78JIFrcKmypKQE8SbQMMh4CEVDV9hAFegmoZeJIvxFpyxk/wwYGgIiJJLg8EJjQZCY/uA/sb29/f79+5MnTzY2NlZWVlZQUFBRUTE3Nx88eHBMTExOTk5RUVFMTIy7uzs8HsN/iqWlpY2NTdeuXe3t7bt27WpnZ9e1a1cY0FtaWrq4uGC1d3JysrKysrW1BWPb2tpaW1vb2NgA3t7eHp5lnZ2dXVxcIFy4uro6dTz0CR83EEAcHBysrKwcHBy6du3q4uLi5eXl5uaGe6qurq5YtpKTk//hHJUQAczSIkCIk8uoRIJMTQYIGnEK6AiBioVESvDgDag6oBbCzpv0JTSDwN0GhHts2eFsCgwJ0kEu0lehWHyiI2gwLYwgFyhICwsL4UYEZ4yoDhMWLP5ol0KqAlpv0TsUXl1dDY+StFYjIwi9rq4uJibGxcVlxIgRe/fuzcnJAYpg4IGlnhyLwCFQRUUFPNQQ0aMoGSJG7ZiYMIOQBAG0UN+JB2h/RQoS0qygBEIUs4PITmXS1TYZIY34ll6o/dQApoxG56jAG2m/oPAHGUANBn9xVVVVbW1tO3fu1NfXh9pcLBZ7eXnFx8e/evWK/DkWFxc/efIkLS0tOTn56tWrV65cuXDhAhyjQXGVkpKSmpoKHVhSUtKDBw8yMzMfPXqUlpYGr9FXOp5r165BiL1x48bNmzeTk5MhuKampsKFMrzGwQ0lxI2srKxHjx7d73jIGSV0bGlpaRkZGfgrMzMTQkdubi7Ts5lcjvsPyyQgCDIYxoAGgIlWmVKYg0GsRbMmM+VvEokB6BQBtEXZ6RMUhoAfYFG0ByROixLqYsYjo75Q+4ksMLTwuwFTeBDrtWvXhg0btnTp0jdv3jC3A2gMUtCe+vr6K1eurFq1KjExke5AgJ1Ao6C50tLS3NzckpIS2kWDT+hMgtgD6aSJpeWIyXJADviTybqENEIC9Z3GkSYvOLbFMoU5miZuAiaMUTl4AQATrDMkEwaVoo/MXEwYqoKZyMyIUI6tra3Hjh1zd3e3sbEJCgpat25deno6RcogSoN2B6cMdG6JEcGCAWkIhyUgJ+CTDixACXRIQ6sFZisaArSQ0EJ9ZLacmQhEMSdBFCXTfebn/8WoLS0t8Gj6P8yopK1GxwjRRHPEqPgLeKRGEn0TPCEFG04mWRAxoSh4tcatKE1NzaFDh5aWljY2NlZUVAQHB/P5fA0NjYSEBAwzTvPgJ7a2tjYtLe3x48f19fUfP34MDQ1VU1ODk7f29vaCgoLk5OS8vDwZJmSOHMYJ86NMOsiI2PJLjErU9h2MinqZtAKk/b/PqFDSPnv2DAvdq1evoIZBuCdiHrwQRbW3t9fV1VVXV8MonUljhHzgGTihRKIlKopJjSgHf309o1JRzGaQczwiUfmMCumCgqAwiZv5LlMK9Yc5wDJ9+xIMNZfgUTh9ys1IXE37HyqH2Qa8k3ND6jO1n06YcnNzL1265O3tzefzR4wY8ejRo4KCgtWrV3M4HFVVVQRuuHr1Kq7agmNbWlquXLni6ek5duzYgoKCt2/fBgYGKisrL1iwoKGhoaysLDo6unfv3nv37gU8mdoAyczhkeksk7wo15fwAAmZxBACoxcggfpO44hKmfOaXBx2zkgphEYqE3/J/UTi37fqKzOSFhO+6rHdIDUMIZNJCdRZ7HRQArP91HdqIV24oZWT/vqbjIQBagblQnvol6ZgGUhCb2ds/MeKikKZo/432egveulcNP1FLzIwSEe9TMwSLmQyIjvIF5InE5KQgkSgAD5aZerFJybOlpaWEydOWFpawthdJBI5OzuPHz9eT09PTU1ty5YtERER6urq1tbWW7ZsefLkCfaNra2tsbGxsIB/8+bNgwcPgoKC2Gz2okWLysvLCwsL/f39uVzuvn37aJ+M1Y+QTOIAtZaJB8IMGBt/UWfRNcgCFAWMOR/L4O1LnyiQqIemDyYmqSVUCL3QcDC7gNK+BIND+7+B+VJGQg72GkxhBB0n/UjnVlG/IOgS5gmSFmHCMzUDXWMuoTQKBEPlIIWaSmgkbqSZkai9c2lUCJUPmP9gVCYE6ibQv/9kZvxSFrkwlEg9ARNiJ8CkPBlcgOiZANRhZlOx9tJWFjBUF4mXubm5ffr04XA4lpaWzs7O5ubm6urqMMft1q2boaEhvN1IpdIePXocOXIkPz//r7/+Wrt2LYfD8fHx+fDhw6tXr4KCgjgczsKFCxEArk+fPrq6unfv3iVVHtXLHD9CF70w209ZZP5FOu4/wLSVuk+QeGGW9jUwVKMMycqUwyxchi7/ngmhaPzHgaOmytRLIsbfEDqydM7IRPuXYKjeb0Lj35RG5RAMeJXSv77G/+cYFX40sLek/lA/kUIzEwFQhwGJdBpXSgQh0gSJs4HKysrg4GA1NTU/P7/p06fr6upyudzu3btTbDxHR8cxY8YYGRkJhcIlS5YgXv369evhrAgHhlhR58yZk5WVlZGRAV87Fy5cYGqhiLyIaJjtpzZTIm2WKIXwgI7AmBbFylB/59IIRVRaZ5jvY1QoYJgcS1VQg5FCkARAraIxYraqcyItj1RCZxgqkwlDOMeLXJjOiczGMEujd8oitxkEhn+BXpmRksn4pRr/n2NUqApoI8Fst0yXCPWdYWQGgzIyGRVi2F9//fXu3bu+ffsiEqaVlZWLi4upqam9vb2urq6VlVVQUNCuXbvi4uIcHR39/f0zMzNx+LFhwwYOhyMSifz8/Hx9fXV1deE/0t7e3sfHRyAQqKqqnj9/Hh1Be76VUaHvYY5r5y5TmUwwGfr40icTb/ROBRLSiBapHALGX7g2wOwjQaIQKoomAgKgwglGpnAZSBpZSv+mjEwEfk1GZmO+tUaCZ/bxf2JFRR2EaxoYWt8ICzLYpHQmERAMXuT+RV0FTjtjlgph4gLvzFZR4UikFRVL1vHjx7W0tHADQ09Pr3fv3lpaWnBazeVynZ2de/Xq1bt3b5FI5OHhgWuibW1tR48e7datm6qqqo6ODuKRsVgsuJwzMTFBpLNLly7RlQiaTZnGFdRBemH2EQdITA4kTBI8XlC4TCLhhNKZhctNlBlcuTAyiciCjR9l7wyDxjDHWi5M50QMGdLldp/ZKWoAEgmeXpgEwBS4sFADjNkGpBD9ULGduyMXRqYooklKZ44RNVKmGYD5thWV9pDMZqFcprKkc0040Ic/HmaDqMPMApmtpxH6UiL1mYlEKpZ2s6iUOU7Ywba0tCxYsIDL5SooKHTp0oXP5+vp6QkEAlNTU2dnZy6X6+DgYGJioqenx+PxXF1dX7x4ASOk06dP79279/bt2/fu3Tt27JiHhwebzZ44ceK+ffsuX74cFBRkZWWFqMrUNdReXV3d1NTUGUXMnuJd7oraGQ+dM8rg5EufcjMy6f5rMsrAy/2koaFRYILRv1Qd9RGMR1PV30AiLwnGhHMqAcinWZIAiCSgjqKGff78GUbzTOZnNoDIGEVRgcw+/j0M4Z/AmC8y2Pg2Rv3Xv/5F+gAqFGglixZmOlUGUx5E4yQA6vaXcEHZCZJSaCwppTMMXKSTrTPVSziFDeD169cjIyMHDRokFos1NDSGDBmipqYmFArh/svGxsbAwEBXV1coFHp7e7969aqxsTE7OxvmYwgb+eHDh2HDhqmoqCxZsqS+vj4/P3/8+PEGBgbr16+HswVUDTKqqqpi3pOg9uMFvcA7aIiZ0rmPlJ0J9qXE/yoYZlNlypT7iUQZ/Ms08ksZgYR/rBEkxNQJIyMpFKF+hx04MSczF5lz4V/oSmpra/FJjSfCoxQZRqXC8UK/ROR0vkhooWZTmZ2x8Q2Mippo0kKh1A7SfFBlzJFAXqZmBWDoNvWBmUjZmajpnEgp1G3AE76YZ1YyMDjkhHvVI0eOIPJPr169xGKxnZ1dnz59uFwurlxBk+Th4ZGTk9PW1nbv3j1tbW1NTc3Dhw+Xl5fX1tYGBQVxudyVK1c2NTV9+PBh6NChLBbr559/huN5whUNCeZvajy9dB4hQtGX8IC8MhnlJv5XwTALlylT7icSiTBA2TJd/lJGjOM/1ggSIvQydzeIttjc3NzY2FhdXU22K4hnhSxgY+w1cHaKjTddi6PGM0eBhpVJwER4xBp4IRiywyMOh7oExxPMipgo+jZGpVJQNzoGFiX7ARLYQIvwD4DOY3GDYRdZb1J/yCgPChikUyIQilx0DE2FkF0BrZbUVEIQUgjRKL+5uTkxMXHq1KlOTk5sNpvD4Whra8MZJ+IRGBkZ4YKoWCz28PDIzs5ua2t7+vQpGPjmzZsI+zt06FA2m71kyRJczYmKihIIBDNmzKiurqYmMQmUGkODwaRFSmSSOLVchqblZpSb+DUZvwaGWbgMvNxPJNKIMPHwpU7JZPnHGjHKWEVAM+C0mpqa6urqx48fnzlzJj8/Pzs7+82bN42Njdu3b1+3bt3bt29BbJAHEbTmwoULCH9cU1Pz9u3b6urqmpqaiooKmFhUVVVVVlbSTQwsvA8ePEhOTr579y6u/mRmZsLcNyUlhSxG0arPnz+XlZXFxcWdOXMG0X2bmpqeP3/++++/w8UHgTEx+W+uWIAC+iUEUQqhklKAcZiD4HrX69evS0tLwUt//fVXQ0PD27dva2pqgAVcIoNqvrGx8cWLFyRRgFtQIGZBYkg4OIfpLHxq4nI9+aqie7qYijD8xBVo7d90BxhpbW3dt28friBzOBwdHZ2JEycKBAIdHR0XFxcejwe3pt26dVNXV/fw8Hj16lVra+ubN28cHR0NDQ1PnDhRVFR09+7dgQMHcjicyZMnP3r0KCkpyd/fX0VFZerUqcwVlYn6zlhlNpiJanqnLDLlyM0oN/FrMn4NDLNwGXi5n3ITqV/4Vy7MNyWCikA2CE3w8uXLZcuWTZs2bdCgQRoaGnPmzImIiNi8efPHjx+7d++upaUVHx9fV1dHN7w/f/6clJRkbW3t5eWVkZGxY8eO4cOHh4WFjR8/fvTo0fAcMH78+IiIiLdv32KRaG1tjY+P7969u5WVFW7VdO14nJycbG1tzczMwsLC4P4KhN3c3HzixAmEIwUtFRQUREVFqampBQYGZmVlIegZ6SAJ1d/JqEBHWVnZ7du3T5482atXrwkTJiQmJt6/f7+kpOT06dMDBgzYtWsXNmO0qJaVle3cudPX1/fIkSM1NTVPnjy5f/9+RkZG+r8/9zoe+M7AIeHevXvj4+PfvHlTWFh45cqVgwcPnj59Ojk5OSUlBfcSrly5cvLkyRcvXjQ0NDAXT+oh0bcMZdCK/fTp01WrVi1YsABBXw4dOmRgYODp6YmAyz169Jg9e3ZISIhUKvX19YWB/vPnz01MTOCduEePHiYmJhKJBFpfBwcHc3NzoVCoqKg4adIkTEm0mFAbOreK2WAC+xpKlZtRbqJMad8Nw8woU6bcT7mJKITwIBfmmxKJUSHitbe3P3v2zNHR0cjIqGvXrnAIqqqqGhERkZGRAT9mu3fvfvr06aNHj2pra3EueO/ePQMDg65du966dSssLAzOza2trc3NzU1MTHR1dXk8noGBwePHj0lS3bBhA4vF0tbWdnBwcHNzQ9QMV1dXCwsLFRWVbt26ZWVl4epyS0tLcXFx79694Zn1zp07TU1Njx8/RsgSExOTKVOmDB8+fMWKFXS1Axj4/hW1ra2trq4uNjbW1tbW09OTz+cbGRlZWVl5enqmp6fPmTOHxWKNHj0a0wNqbWtr+/jxY1hYGIvFWrhw4Y0bN3r06GFtbW1hYYEoHZaWlnATMWvWrPr6+ra2ttzcXBsbGw0NjX79+vXt2xeXgKVSKU5BNDU11TseqVQ6Y8YMrF1fv6LCXB5362pqal68eOHo6GhtbX3o0KFu3br5+voGBAQIBILw8PB79+798MMPAoFg8ODBJSUliOTr7e1tYmICvyEINGJhYWFmZqajo2Nqaspms3k8XmRkJCbs/8+oxJbEmZRCtEgpBPPdjIqb0ufOnXNycgJPstlseBoJCgr65ZdfWCyWRCJxcnLq2rWrl5fX8uXLa2trX716dfz4cQMDAz09vejoaDc3N01Nzf79+2/bti02Nnb16tUzZsyQdjy3b9+mWw07duxA4VZWVqampkZGRsbGxubm5oaGhiwWy8DA4Nq1a9istba2HjhwQFVVtW/fvuvWrRs0aNDhw4cnT57MZrMlEomhoSHCkTg4OGA9YKpXvnlFxarV0tKSk5MzZswYCITKysqGhoYSicTExOTUqVOBgYGIlz5//vwtW7akpaUVFha2trYWFxeHhoZyudydO3du3LiRy+WKRCJ7e3s4iPD19UV0Z19f3/Lycvh0W7BgAW7fa2pq8vl8e3v7sWPH9u/fn8/nSyQScNSYMWOuX7+OLfHXMyqYB/JzQ0PDmzdvwsPDBw0alJSUtGHDhp07d65cuTIqKur06dMvXryYNm3auHHjYJoPxUNqampaWlpWVhYcFxQWFpaXl+fk5Lx///7Ro0fz58+3tbWNiYmpqakhaqMXUKTMp9xEGRh8yiTKzSg38Wsyfg0Ms3AZeLmfchNRyPfxJOWl7JSCnRFWhcmTJxsaGsI3HXzfwJ2ypaWlkpKSkZGRiYkJAnlOnTr1/fv3c+fO9fDwgO/lHj16mJmZIWiqk5OTqampra2tk5OTWCzW09O7c+cObuH89ddfO3fu5HK58BfVrVu37t27Ozo6urm5ubq6qqqqmpmZ3bp1C2R29+5dBBZdtGjRwoULpVKpp6enk5MTj8ezsrLau3evg4ODurp6SEhIeXm5zFbu2xgVXApp+9ixY5AodHR0unTpAkcY5ubmI0eO1NHRQYAZkUikp6fn7e2dmZmZm5s7b948ROwcPXr0kiVLVFVVDQ0NJ02atHDhwo0bN86bN69v375isXj48OFVVVUI+VxUVBQXF/f7779369ZNS0vr4MGDixcvxoZQKpUOGjQoIiJi27ZtWLS/SfQlSQk6t0+fPpWWlubk5DQ1NcHLEVNfX1lZCbUQJjkchCL2GS7BwvofyG1qasrKyjp16hTi4hCZ0guT0InC5CbKzSKTKDej3MSvyfg1MMzCZeDlfspNRCHEaXJhvj6RWRpGpLm5ed++fYGBgRoaGnDUoqamZmFh0adPH/ij3LZtW3R0tEgkCg4OfvHiRUlJSUREBML8KCoq2tnZ2dvbI2Sbi4sL9jJ6enqOjo6TJk3Citfa2lpVVbVjxw4Wi4WVFt5VtLW1caTHZrOdnJwuXrwInRZ8gvN4PEdHR7j70tbWtrW1RcwLFxcXkUjk6+uLiJvQ7JAs9g2MyuTS9vb206dPI4oEgmHDng6iPNbJUaNGCYVCDocTHh5eUVFx5swZW1tbmBbAAh5+SeCzSygUKigowMXmyJEj4ZNlzZo18+bNS0lJKSoqcnd353A4o0aNUlVVhXtOTU1NVVVVJSWloUOH0gntt66oxK7YvkNtiGgl5HWBLFTJlgXHwrg8wHTIQrsjcDL0VURt9MIkdKIwuYlys8gkys0oN/FrMn4NDLNwGXi5n3ITUch/B6NivAoLC2fOnGllZaWvry8UCpWUlDQ1NYVCIbaOUql0x44dv/76K5fL3bBhAy6Xv337NiEhAc64Z82a1bNnTxUVlb59+y5ZsgSaxR49eixevPiPP/64detWRUVFXFwcQldIpVJ4SNLV1YXnJDhh1NLSsre3HzJkyMyZM/Py8hDPxdbWViQSGRoajho1avjw4aNHj960aRMaaWZmdunSJfj6wvpBVgDfzKiw9cHlzE2bNsGAjsVi6erqqqmpdevWzcrKis1mT548OSUlBc19+PAhpPPhw4ebmpqqqKhYWVmFhISIRCJNTc3evXt7eHjAwGDo0KHh4eHHjh1rbm4uKSkZNmyYWCy2srK6fv16jx49hEJhcHCwVCo1MDD44Ycf5s6d6+3tzWKx+vTpU15ezrygR5SBF/r8EoURBzJPhsC0bW1t4Fs6E4JujKYt2M0wj5chcaA9Mnd3iDqJQJkpnRP/seWUXQaS2dP/chhm4TL1yv2UmyjTKrkwX5/ILA2MmpKSYmtrq6qq6uXlhcBiM2bMGDx4sLm5ObwuBgQEeHp6amhogN4aGhoaGxvv379vaWnJ4/E8PT2NjIyUlZU1NDS0tbXhMF1bW1tLS8vY2BNBF0QAACAASURBVLhv374vX74MCwvT0NBAXGkzMzMNDQ0srerq6vr6+lpaWurq6rq6uqqqqr169Xr27FldXd2LFy9mzJghkUiCgoJevnx5586dLVu2jBs3DmoXHo/3008/HTx4MD09neQ1rCXfwKi4/w4nwiUlJVu3brW3txeJRA4ODohOb2Njo6WlhdBPfn5+c+bMkUgkzs7O5eXlLS0t5eXlb968GTVqFAJaTZ06VSgU6ujo9OnTZ8CAAUKhUCqVBgYGjh49+ueff7527Vptbe3ly5eHDx+upaUVExNjY2MjkUgCAwPV1NQEAoGFhYWLi4uhoaGCgkLXrl3z8vLINTGNGdH99403ZacCv6YcAMtAyk38Dhhk+ZqM/1U1yi2HmSjTGLmfchNRCCFZLszXJzJLg1yTn58fEBBgbW2NwKQaGhrwtzx69OhJkyZZWFhYWVnh3gUiXJaXl+/fvx/BGpWUlPT09KRSKYfDsba2dnJygmbIysrK19fX2dk5KiqqrKzs5s2ba9as4fF4UqnUycnJyMgIWiVjY2M3N7euXbuamZnZ2toOGTLk3r17sJ/Nzc319/c3NjaeMGHCzp07ly5d2q1bNxMTEzs7u3nz5vXs2RPs7e3tnZqairXhOxkV58gVFRWzZs3S0NAIDQ319vZWVlYOCwuLjY319/d3cnJycHAwMDAICAjg8XijRo1C9J6PHz8+f/4cEQSFQqGJiQmfz+fxeDAngCtqNTU1Y2NjbW3tpUuX1tXVVVZW3r9/f/fu3U+ePLGzsxOLxQEBAXw+X0dHx83Nzd3d3drams1mOzs7ww4BXaIx+w4ioLwgEbmE8vcw+Fcmo9zE74CR2yq5hctN/I4a5ZbDTJQpU+6n3EQU8h1j9I+lQa3Y0NAQFRWlp6enra2tpKQEX97wopyWlmZubi6RSHCfEdZm7969c3d3h8tlqVS6YMECOzs7qVQ6duzYcePGubq6sliswYMHL168ePPmzTk5OS0tLdXV1enp6XCbbGNjY2FhwWKxeDyeWCyGb2SpVCoUCkNCQoqLi+GeasOGDRKJhMfjGRsb29ra9urVC4Fq3NzcgoOD//jjj6CgIFtb2/Dw8IcPH2LGwW7uG1ZUEvYgPSckJJiZmWF6UFRUdHBw8PX1HTBgAExnJRKJvr6+goJCbGwsdnTx8fH9+/dHRF09PT0/Pz+RSGRlZTVz5syJEydqaGiIxeKwsLCVK1euWLHiyZMnUNxt2rRp3rx5cEutra0dGBgoEAjMzc39/Px++uknHx8fLpfr7++PA+j/z6hE/UxeokQZEv9uGGZGmTLlfspNlGmVXJivT2SWBsVvY2Pj0aNHYQcqlUqHDh1qZGTE4/GmTp0KvZGSkhKiYMEraklJybRp0/r37y8QCIyNjTMyMqytrU1NTf38/NTU1HR0dCQSiY6OjlQq9fDwuH//PnSNb9++xb/u7u7Ozs58Pl9XV7d79+7Ypvn4+IjF4t9++w3bztbW1qVLl8IW4ocffpgxY8bly5evXLmSnp7u5+dnZGRkZ2c3aNCg9evXZ2VlwcSNdC7fwKjYhoHLW1patm7damRkBE2SVCqlWNePHj1au3Ytj8dTUlJSVVVNSkr69OlTfX39unXreDwem81WUVEZOHDgokWL+Hx+QEDA+PHjAwICOBwOj8dzc3MLCgo6ceIEnPc3NTWFhYXp6enhgouJicn48eNNTU0R0w5Lq1gsDg0NLSws/I7jGRpdmtcpBSQil1CYMEw9MxOY+c6EZ77TGGB+ob0uthhIpGbQC+w0kLe1tRUFohnUCyqQbp8RGM1loGZkQWnUHrxQU6lYmUKoFmZnme/IyEQRldC58M4ZZeqlT7mQVCCqA63W1dXt2rVLW1tbKBTa2NiIxWJNTc0dO3aUlpb+9ttvioqKPB4vIiKitLQUx+l5eXkXL160sbFxdHTcvn07rlLZ2dkhWNbKlSvnzp0Lh9pXr16Fa8LHjx+De01NTfX19Vkslp6e3tChQ6VS6bBhw1xcXBwcHLKysmBUV1lZefv27Y0bN06dOnXWrFm///57dnb2/fv39+7du2vXrvDwcFtbW0dHx8zMTJj9kcXytxk8kCkPnPHl5uZu2LDByMhIRUUFTtxZLFa/fv3evXt38OBBPp+vrKzcvXv39+/fN3Q8mZmZM2fO7NOnj0AgmDt37sKFC/l8voeHByQQAwMD3FMBUqqrq9va2t68eePm5qahofHDDz+oqqo6OjrOnDmzd+/ew4cPt7a2xkFO3759Dx8+TL6RiNqYNCF3aOUmMsebKEMmkfnJpEJmgcx3JjzznZqKQjDRkCIKOmdcAIJGGjpkqAGRF05SyYoF1EkcjmLBq+gLHaBT0CQ6tWd2BBVRU2XwALcY5GwV5TPDdiIjk42pp/RX58JlMIbPr0+kAjEBASf19fUHDhyAQKvc8SAE+LRp06ysrHDcoKOjs2TJkry8vKampoaGhpycHEdHRwsLi4CAABaL5erq6uXlJRAItm/f/vTp0507d8JB/vXr11taWkpLSxctWqSmpqalpWVra2tqasrj8QQCgbe3t5mZmUAgYLFYgYGBZWVlTU1NtbW1cXFxQ4cOtbOzQ0geNze3o0ePLliwwNjYuHfv3vPmzVu1atXu3buZvtpoNL9tRYX+E9FW2tvbHzx4MGjQIISplEqlLBZr2LBhBQUFO3bs0NDQUFRUtLS0RMC51tbWysrKgoKCn3/+mcPhTJw4sX///mKx2NfXl8PhODk5paWlPXnyZNGiRWKxuH///uXl5a2trRcvXtTR0QkICOjVqxeEFmdnZ6FQGBYW5ujoqK2t3a9fP0NDwz59+rx8+RLminJp4vvGW4ZA5X4y6ZtZC/OdSUPMd2oqmBNcR/ccIFOQRTjSaa6kY31IKwgzywylB6sM+FVFIyF9Yelg+uOrqKioqqqCoER8i4qISqipUI/T5Yr379+Xl5fD6hVdo47jMtffiDlMVMjF7TclMksDrurq6vbu3evr62tpaYlAUq6urjo6Omw2W0NDw9DQcPLkyT179lRTU9PQ0IiJiUHMjj/++MPAwEBbWxtRkleuXAlxz8zMzMfHx9XVlcPhaGlppaent7a2njhxwtbWFgeTMMtByJ+hQ4cOGDCAzWazWCwvL6+YmJiMjIyGhoaYmBhjY2MTE5Pu3bv/+OOPy5cvLywsTE5OjoiIgGsuPz+/jRs3Pn/+nOwTaQi+jVFBH4gaVFxcvHfv3qlTp9rY2MDagcvl6urqDh482M7OTl9fH4EG7ezsRo0alZ+f397eXlxc/OOPP/J4vJ49e1pYWNjY2IwdO1ZbW9vZ2XnHjh0HDhyYOHGipqZmUFBQVVXVhw8f5s6dK5FIBg4caGZmJhQKYSRpamq6bds2a2trLS0tSAsSiWTZsmX19fVM8mLSDVHPPyYyx/tLhMKE+S9hVLABzmNramqYRhe1tbXl5eU4OQDyodzGCURRUREUdQj/QU6MgQfwP4a8ra0Nuvf6+vrc3FxEc2xubs7Pz8/MzKytraVImViLkBfl0MkTPsGWmZmZR48evX37dktLCy3aTIzB6gC1E58z8c9EIzMjE+b7Bg4Nfvbs2ahRoxD6LTg4eOHChampqePGjVNXV7ezs1uxYkVhYeG5c+fGjx/v6+t78ODB2tragwcPmpiYsNlsCHdubm5JSUkuLi5sNtvOzs7d3b1r165isdjGxiYjI6O1tfXGjRsDBw708/OLiIhYsmTJsmXLEOnT2NhYS0sL8Sw0NTVFItHw4cMrKysLCwv37t175cqV7OxsBKSGp/XU1NR9+/Z5e3vr6OiYmZklJSURxr6TUUEfMJdfvny5VCpFLDYDA4OxY8cOGTJEIpGoqKjo6OiMHTv2119/dXd35/P5jo6OuAEEPlRWVoZfP39//6ioKEw8YrGYw+FAYB44cGBFRcXdu3ctLS35fL65uTmHw3F3d0cEkQULFkyfPh03RY8fP75q1SpTU9PVq1fDqpZ6+J8f7y9RD5PCIAeSXRTzL3qnFybZgcOBz/b29ry8vMOHDycnJ+/atSskJOTixYvHjx9PTk7OyclBwKiEhAQ6WIPWPisra/DgwePGjcNdiFOnTh0+fDgxMfHSpUtXr1692PHcuHEDd7IQDLu8vPzAgQODBw++e/dua2vr8+fPEVwLHsabm5s/fPiAu1dYqHGqDLtuWHdgLa2vr589e7aenh6mVMT/BEkR/v8XV1SI7s3Nza9evTpx4kRiYmJxcTFun6ampsKmFXEQGxsbP378mJWVVV5e/uHDhxMnToSHh/fv33/mzJkrV648c+bM27dvR4wY4e3tfeLECbit27x589atW3FXrqWl5ePHj7m5uR8/fmxoaHj37p2Pjw/Co4WFhT1+/Pj169cxMTFBQUE7d+5E/FVMppjscMXn06dPcCWRnp6+atWq0NDQN2/e0BRJ+PyGFRWES/FR9uzZ4+/v7+vrO3369HPnzpWWlt68eXPw4ME//PDDkSNH0PTnz58vX748Nja2pqYmOzvb19fXwMDAwcEBQd/OnDkTHx9vbGzs6uoaFRX166+/hoeHu7m5rVu3rqGh4fXr1xs3bvT39584ceKcOXNOnjy5du3aa9eunTlzxtDQkMvl+vj4vH79urKyMisrq7q6GpI9dQzsAd5gcgixn9xEGab6RxjsIeHmm/JSFcwUmUSQNe40f/r06cKFC+bm5t27d7exsVFTUwsJCbG0tBwxYkRcXBxsxLds2VJfX48ZATvMK1euIGpYdHT04MGDtbS0uFyunp6ehoaGlpaWVCqF9emNGzc+ffr08OHDtWvXnj9/fvbs2Xw+/7fffistLd2wYYOqqqqWltbWrVuxaL97966goKCtrS0nJ2fhwoXDhg0bP3781KlT4WKmqqoKzoSLi4vHjRvHZrP79esHS0/SWgH/6CyJG3IHhZDzrWP0j4MCbRyujFZVVVH8ns+fP9fU1ECdAQkC5xfAKjQp7969Ky4u/vjxY1VVVXNzc2VlZUpKSnp6OuKmUhRjsn4BAYD2mpub7927l5ycnJSUVFpaijuuTU1NxcXF+KTwf7ROYitBl9RbWloQXYFpeAPgb2ZUyBWtra0lJSX3799PSUnBRrylpQXXUDMzMxs7HiYuPn/+XFtbe+PGjSNHjty5cyc7Ozs/P7++vj41NXX58uUXLlxobm6uqal5/vz569evP378SLcEMWO9e/cOLvw/f/6cn5+/YcOGBQsWXL58GXMnfskGEB0DHXwrEXwN9TBhaM9G2hRmvQQpNxF5sbHcv3+/gYEBjL+hbOTz+ZGRkdu2bROLxXw+PyQkZPv27StXrjx9+jQ49vz585qamoaGhnFxcdg7GRoaDhkyBFFDra2t+Xy+mpraoUOHWltb9+zZo6mpGRgYOGTIEA6Hs2DBgszMzEGDBiG2rb+//+jRo4ODg/v37z99+vS8vLzU1FQTExPsZdTV1ZWVlQcMGJCdnY1Rzs7OnjRpEovFwvUJurVPnCkTG+J/nlFJYAExgGg/ffoEVyxgmKampurq6qKiIoRxgf4SjI2tQVtbW2Fh4ZYtW27cuFFdXY2gXmVlZefOnbt58yZC9RAFtrW1lZWVnTx58vLly9hlIBbO06dPw8PDV69eXVVVRQ6rmYyKtoHzEXeD0MgE+wZGpZmMNkuVlZWlpaWQfKBRxECCZ6gaNAUHvpiTcEbU3t7+4cOH7Ozs2tpa6NwaGhqg/4DghH0ONmnkqwlhghBEBCoTVMdUhzKbKrOU0SfBfImLCJL4TW4WSCly/6KMcqugLV9eXt6ECROEQqFYLEaUexaLxefze/ToMWjQIFhEs9lsgUAgFovDw8Nfv369ffv2kJAQPp+vra0dFhbm5OTEYrGcnZ1/++23iIgIhJmFh8T4+Pi2trYTJ07w+XxfX9+BAwdyudzJkyeHh4eLRCJFRUVlZWXERJZIJGw229bWNj09/c8//zQ0NFRTU9uxY8fSpUu5XK6BgUF4ePi0adPmzp0bERHh4uIC87oZM2ZAkCaWACrIUppJdnLxAHi5CPz6REI1UR2t6pRSU1Nz8ODBX3/9df78+XPmzJk5c+a0adMmTpw4ZcqUyMjIX375JSkpicQWGNzHxsaqqqr6+fkhwk1ZWdns2bONjY2HDRtWVFSEuNhY/aqrq8+fP29gYODl5YVomgjxumfPHj09vW7duhUWFtI1D2oSEzmgeYpDST1CR76TUWnGAn/SL2n5kEJEjM1YQ0NDW1sbonGT0oL0FpicUDIUd0iBpEeTIrmxAWcSWTAJhQYYL/SJPtPOkIkvJgyxqNxEwmDnwmX+ok+8MEujEUJA1Pnz59vY2CgrK6uoqLDZbCMjIx0dHQsLC3V1daFQ6OnpaWJioqKi0rVr1/j4+IyMDA8PDz6fj0tL2tra5ubmSkpKysrKYDZE3VZWVtbR0dm+fXtRUdHevXvZbHbv3r379eunpKSE43WxWGxpaYk48VFRUdOnTw8MDJw3b152dvaLFy80NDRMTEwePXq0bt06RApGeHJJxyMSiVgslqKioo6Oztq1a2tra2Xw397eXlVVBTmTBOPOePh7VDMx9veQhGoaU8DTZq+1tRV7SNxi09LSEolEav/+8Hg8VVXV2bNnIwIYontWV1cvX76cz+e7urq+ffu2srLy3bt3Xl5eLBYrODgYKQUFBdgRVFZW7tmzByFRECV4yJAhoaGhsbGxampqAQEBWNLgmQXcwWwqYaZzIjryDYzaGRfEVBSdjhm6j+BRE9gD9+gbGhoweLTuk3REZYLnmR1gMj/thagWuWzTOZEETpRPePk+miDqoWZQg2VSZCBR77/+9a/W1tbq6urDhw9PnToVJ28sFsvExMTZ2RmBjy0tLY8ePTpixAihUDh58uTs7OyCgoI5c+bAzTeXy+3fv7+FhQWPxzMzM4uIiNDR0REKhQ4ODmPHjl20aFFqampNTc3u3bs5HI6/v/+gQYOUlJQMDQ2FQmGvXr2WLl1qamoqFApXr15dVFRUUlLy8ePH5ubmhw8fWlpaamlprVq1avz48QoKCgYGBmPGjFmwYMGaNWtWrlzZp08fRUVFExOT7du3HzlypLCwED2icYT/IWJUJja+HtVfD0nlyx1xLFaVlZWurq5CodDf33/ZsmWzZs36+eefp02b9tNPPzk5Oamqqi5evLimpga7sBs3bowdO9be3p7FYjk6Os6dO3fFihXx8fHw7OHr67t48eIpU6b88ssvly5dgiD5f9j76rAss63v61jYY6KDjt2FwIgiCqiEEopBqxiUAmIiSgyiYmGCYqFiABaSKiYGgmIA0q10wwPPQ6nzXcff+dbZ1/3cIDNz3vd7r/eb5w/Ye91rr732it1x9erVXr16ycvLFxQUREdH46Cci4uLpKTk9OnTY2Nj/fz8tmzZQruaxFnllIKN/gccFa+V4hinQCCg5VrKBjYKnxQXPeCkYKoCEQARjhFQQ83JguMMFOVkSo0z66UcHF4htgWHGGZ5Eweyjvry5ctJkyb1798f+1F79uw5c+bMXr16de/eXUJConfv3ocPH8aZwQsXLpSWliYkJOAuAuy7VFdXR3s7ePBgDQ2NPn364PntBQsWzJs3b/369S9evDh16hRcWk9Pr2PHjlOmTFm8eHFoaGhmZiYe4zAwMMjKyiovL4+Pjy8vL4+JiRk9enS7du1wXqRdu3YyMjKenp4LFiw4fPhwVlaWjY1N165dlyxZgqfZ6XVJ6BESxovDrB7F5dCSjlqRP68WSNriCVH1f/36NSMjQ0lJqVevXocPH87Ozs7KyoqNjU1JSXny5ImdnV3nzp03bNhQWlqKHhwuNujevTv2RUhISIwePVpbWxtKkZSU7NOnT6dOnXr06LF58+bm5ub09PRdu3Zh54Ofn19sbOy4cePGjh3722+/de7cGU8tT5w4UVJS8t69e3T7FxWf+G9JRP8BR2VXydk2nfImyZIQ2faQ5EjeyDotyzfR+YuOShn9D3HUV69e4bCFtrZ2z549+/bte/DgQQsLCzwp371790WLFo0dO7Zv376PHz+urKysqqqKiIjYsWMHDvHikEf79u179uz5008/9erVC13i3r17d+vWbebMmYGBgceOHevSpcvChQtXrFjRsWPH7du3u7q6mn//TZ8+vU+fPiNHjkTv986dO3V1dfHx8ePGjcPNAzIyMh06dJCWlvb29h44cKC8vHxGRoaJiUmHDh309PQqKio4k0lU82JGELZIFZO4aZJVkMEQDmmc1wxYIKUVpwYD+/LlS1ZW1uzZsyUkJGbMmKGpqblixYr58+djgg2D/HXr1hUXF6M4Bw4caN++/bhx48zMzFauXNm1a1c86telSxdtbW0HB4fdu3dPnTq1ffv2ZmZmFRUVjo6OgwYNwuSCtLT0xo0bcZOWoqIiDlr/8ssvPXr06NWr1+PHj3EzgTirnFKw0R84KsemSTRk4rSuzbooqxUSOgUoLUuNdU5CID1xikT331NJWOJtB7IZUV7EFdEkgm3BYZNTQnEgskaXLC0tTVVVdfz48bNnz8ZNpYsWLVJVVTU1Nd23bx+uC+jRo8eoUaM+fPiAhS59ff0hQ4ZgHmjkyJGo4DU0NMzMzGRlZSUkJKZNm7ZlyxYHB4c7d+4UFhZ6enr+9NNPS5cuNTc3b9++/enTp3V1dTt27NivXz+sY3fr1g2L21u3bq2srHz16tWwYcMGDRp09uzZU6dO/fzzz/PmzQsPD58yZUqvXr38/f0XLVrUqVMnQ0NDLH6w6kMYV/s1NzdDjCivuBxIyG2RLQkNy1pEnJUzayqkX1hpbm7uzJkzO3TogPOiuIThl++/n376qWPHjtbW1vn5+ZgEOXjwYLt27RQUFJ4+fRoWFjZo0KDO33+TJk16/Pgx3mU1NDTEbuHKykp3d/chQ4ZgKzsWxjp37tyhQwecWR8yZIinp6e0tLSkpOSTJ0+wSwy7uzkFb0lEf9JRSTRYR8J0FsmF1QphkkpYCGmRNM0KmjA5QFrFIgQizik2JyHwWwESwT+Nw2ZB1HiBNBrHCjPeeuzSpcvgwYMx4WFlZXXx4sVhw4Z17Nixffv2s2bNKi8vLysri4iImDBhQo8ePSQkJCQlJZ2dnUePHt2nTx85ObmZM2dKSUm1b99+1KhRGhoaixYtgqO6ubn17NlzyZIluFnP0dFRRkamb9++ZmZmw4cP7969u7Gx8bRp0yQkJCwtLZOSkl6/fj1s2LChQ4fiwY6ffvpJRkYmKirK1dVVVlZ279695ubmHTt2NDQ0xKVQpHrokVYysWrFqxQSTiuiFk9IQsNkJOmdlxrL1devX7Ozs2fNmtW7d+9du3YFBAScO3fu4sWL/v7+zs7Oc+fO7dKli52dXWFhIRZRDhw40KFDh7Fjx65Zs8bU1BRHMkeMGKGoqOji4vL+/fvs7GxNTc3u3buvW7dOKBRmZ2dfvHhx8ODBsrKya9euHThwICbzli5dim3q2KDSp08f7BPGXLE4/y2Zyn/AUdH1ZT3tv9pRqc4m9VCBxVVLnwi5Fcv46zi8guYF0hqsSCQKCgqys7PDlZZWVlYjR44cMGDAuXPnkpKS0HZ17tx5x44dmOpISUlxd3c3Njbu2bPn0KFD7e3tBw0aJCkpOWjQINyyhev2OnbsOHDgwMuXL4tEIn9//65duy5evNjExKRr167r1q2bMGFC//79jx8/LiMj071792PHji1duhTbsGtraz9+/Dh06NBu3bppa2srKyt36NDh119//fjxY0pKSnR0dEpKyubNmzt37qyvr19aWood4FA6OSpFW5J/W0TdkjZppaAl4qRiYuPbt2+ZmZmzZs3q27fv4cOHQ0ND79y58+jRo7CwsJ07d8JRN23ahIehGxoa9u/fj338EhISOJs5btw4d3d3BQWFAQMGrF+/PjMzU19fH69XY3PF69evBw4cOH369JCQkC1btowcOXLKlCmbN2/u2bOnrq7utWvXpkyZMnDgwICAALgMeOOUsSVT+Q84Ku2HoowRIE1QoCWeUE1S8talz1JjMyLdEALR4eTbCial/dM4oMDJkReI5WgsIFdVVXl7e0tJSeGSu06dOvXv3//SpUuPHz9WVFRs3749au73799XVVVhie/+/fvDhw/HfZY9evTAjf5du3b97bffXr9+ffny5XHjxvXu3fvChQsikejq1avdu3fHTTcdO3bcsmULbtWwt7efMGFC165dXVxcFi5c2LNnz/Xr19fU1OTl5eFuoT59+uDE4rRp09LS0gTff7W1tbt27ercubOenl5hYaG4o1Lx/7QYW0lIdtI6DrQPZCzq5uTkKCgo/OMf/5CUlBw2bNjo778xY8aMGjWqT58+7du3t7W1xbbnuro6Nzc3XM2lpKSkrq7es2fPn3/++enTpydOnBg0aJCUlJS3tzeOlBw+fBj7eR48eIB11MTExOTkZAUFBRkZmS1btvTq1UtKSmrUqFEdO3YcMWJESEgIZ5xIVkcBEiBZzo8dFYWkvdfkVEQCXQVWfKz/cOTF4YC+sg0yORiHb05aypE4+WFCUhuHwx8mZLNguRKnw4vJCyRHLS8vDw0NxWZpDBox1Bk5cqS8vDxGrej9ysvLu7m5lZWVFRQUnDt3TlJSEnvEu3TpYmFhMWHCBAkJiXXr1t25c2fXrl1Dhw7t16/fqVOnamtrfXx8unXrpquru2rVqg4dOlhZWWlra2O/NAZRkyZNGjBgQKdOnTZs2CASiWJiYnDZz7p167CZafz48Q8fPqysrMQGMgMDg06dOpmYmFRVVZFJsAG2yC0pjtWgOM6fVgolJPqYfczMzFRUVOzQocOIESNwCXPfvn3HjBkDMXbo0GHDhg2YAKupqdm9ezfuEHzw4MHLly9HjBghJSX18uXLrKysxYsXjxo16tChQyoqKj169PDy8vr69Wt+Fpm5ewAAIABJREFUfv7169elpKRGjhy5d+/eyMhIFRUVOTm5PXv29OjRA7cT9uzZc/bs2bi8GzvS2PMMZFfEP0HadB4VPTTajUDKIE1Qi0p0OTmx8uLogzA5cN4oL5AyxVdeHAKCE6oUKC2xQZDWqbEUiDilFaeGTxxM6vpmZmaqqalhbwOGmtra2iNHjsTsv7a29r59+0xNTXH+wdbWNjMzc9++fVOmTOnatSsmEiUlJUNDQ6dOndq5c+eOHTsOGDCge/fu7du3/+mnn3bv3l1eXv7gwQMDAwMXFxdjY+Pu3bvr6+vLycl17NhxyJAho0ePlpaWVlJSGjp0aLt27VauXFlTUxMbGzt8+PApU6bExcVFR0cbGRlt3749Nze3uro6MjLSyMiof//+HTp0WLVqFZog2kEpXkZxaZA9UIAX5w8BSfis4og+Ghs4ardu3dzc3B49ehQdHf38+fNXr175+/tv2LChe/fu1tbW2OJbVVV14MCBTp064UL2S5cu9e3bV1JSMiAgoLa2NiQkxNfXNycnx8zMbOjQodevX6+rq8vPz/fy8urXr1+vXr2GDRu2dOnSoUOHSktLu7q69u3bd8iQIevWrbOystq0aVN0dDROCJBPEfMUEBfjD1pUsjAqs7ij0ifKhiNiQqABjDimOGf/QRwiDk5YN6NcCAcQRHmBGCBRXcjBYZMTcV4gJNnU1FRQUGBhYTF27NjVq1e7urpGRkYmJydbWFjgzODTp09LSkrevXt34MCBhQsXhoeH19XVOTs74xYsGRmZCRMmLFmyJDExccGCBVJSUkZGRsuXL1+5cqWcnJy8vPytW7ew6TozMzM3N9fOzq5Lly7Ozs6GhoYTJky4cuXKs2fP3rx5k5CQ4OrqOmrUqAMHDlRXV5eWlrq4uOzdu7e4uLi+vj47Ozs3NxcbZYOCgiZPnty9e/dJkyb5+PjgogNMwHL0TlGOiMgeKECYJLFW5C9OjVIRHUpOGsdBPx0dnR49eixevHj37t179+718PA4cODAli1bcJUXuv3YnY8WtWPHjpMnT8ZW6lGjRoWFhWEra1lZ2atXr6ZOnTpgwIDXr1/X19fv27dv6NChWJ755ZdfcPxzwoQJly9fnjNnzqZNm/Ly8m7fvj1hwgQtLa2PHz+y22xZ/lsylbY6KkRAxeYIi75SliwC6eN/jaNiBp+sgUpNAbb4vEB4KS05fvr06f379zU1NVhtb25uzsjICAgISExMxLIe7mctKirCvrznz58fP3784MGDsbGx9+7de//+fX19vZ+fn6enZ15eXnV1dVlZ2du3b1+8eIELgfDWXmNj48uXL9esWYPXx/z8/Gpra7F5CKeFg4KC8vLywAZOVrBP7wGzoKDgypUr27dv9/X1LS4uhk7/57eoqK127typqqrap08fvEyNq6ElJCS6devWpUuXDRs24MRZc3Pz8ePHcRxCWlpaTk4O9/5EREQ0NDR8/vz56tWr5ubmuNshOTm5rq7u8OHDUlJSsrKyBw4cuHXrVnx8/Jw5c6SkpGxsbLS1tVevXr17925tbe0+ffpMmTIFL1xz2jyyE6puCNKmri9vMiJBAY5pcqJAawXI+cQb5QVyGODFaTuwLdRgu3+xRSUlkcdiHAWPwmU3dB4IBxVo/3Nzc3Pt9x/dfwWE2tpavP+J8Q9OZpWUlIhEInqkSCAQ5OTkCIXCmpoavH1O5zZwLDYyMhLjNJp6oClWcPj161dk1MqVGm0RY1tw/iOKg4S/fPmSl5fn6Ojo4uKyefPmDRs2YNfH5s2brays5s+f36NHj+3btwsEgvLy8tra2iNHjkhKSioqKvr6+gYGBk6dOlVOTi4hIaGpqSknJ2f27Nldvv/k5ORKSkqam5sLCwsvXrx4//59HCz5/PmzoaEh3kaSlJQcMGDA4MGDJSUlhw8fbmVlhXfraRMriYIC4gX/Ay1qS1QAFydN+BTg4LAJOZ94o7xADnFenLYD20KNTvaALIc4WyiiJg5sxVGbm5urq6uLi4vz8/M/ffqUk5NTUFBQyPyys7MxhUN7whoaGt6/f79nzx5vb2/cYgO79PDwcHFxSU9Px+lkoVCIzdjV1dXHjh07e/YszmfCV0tLS+3t7TU0NNC2Y1cJPonvssYWAtoiRkKgAFtkXiAJB195cdoObIUaVYVJSUmenp54e7q2thbH1urr6/Pz8588eaKvr+/v74+joc3NzQkJCQ4ODpcuXSotLS0rK7t27Zqnp2dpaSlusdm6dauqqurcuXMPHToER6XOEY6dNDY2xsTE7Nixw9bW1sLCYvXq1ebm5g4ODr6+vniUFSfp0Nkk5ikgXvC/HfVfwhEXTUtdCerJIwknIcj9EMg6KksQK3IJCQmrVq2aM2eOyvefqqqqhoaGurq6mpqaqqqqurr62bNn0WulhwuOHz/es2dPPT097FbNz8/fv39/nz59xo4d++jRIwwvGxsb0a2NjIz85Zdfxo4d++LFi6ampvfv30dGRn748GHGjBmSkpIRERHYTkDP+9KoHmyjjNTAstbGKTiviNqO03ZMjomzCcEz9uTguVCcCcE1URBgRUVFampqXl4e9Wuwgx1yQNVMcz9NTU3FxcUJCQmxsbGlpaWoy+jeAuxkwC0otbW1OJUKajXff+iEQ6S8g0Few/vbUf+wo7I2wdoowcUFjU/i1kMuSmlxuigqKgrXO2LrAnbGDxo0CKuaEhISO3furK2txfBVIBB8+vQJs0SWlpYfP35EIzx//nwJCYnZs2dHRUUlJia+f/8+Pz9fIBB8+fLlzp07vXr1Gj9+fHx8vEAgsLGxmTp16uHDhydOnIg9ErW1tQUFBTiszx5jQtGogWWrG/EykhzYghOQioyvvDhtB7ZCDUxiTAFnw01OuN4BpWtoaEDngi55w0QxjnzRCiUuT8EyB8c/SSa4AoWSk4pZWdGh078d9V+K+6NG0Iq+22hhoMCxMF4gLw4MJS4ubty4cX369Nm3b9+pU6fOnTt36tSp8+fPHz9+XElJqUuXLk5OTngioaam5sGDB0uWLBk4cGC7du1Gjx49Y8YMAwODEydODB48uH379lJSUmpqatOnT5eTk3N0dCwqKmpoaIiMjMTTZsHBwcXFxQsXLuzTp8+xY8cmTpzYu3fvVatW2dvb6+vrnz17tqqqStxRYXzUzJLQ2igiTsH/qI54kxMPLVFjHaYVHCqUOD5KR/5GxzZbokYskVg4nPNaBS/w78mkfwuTI8T/Hun/O/v/G8JQJyUlZeLEib/88suJEyciIiJu3Ljh4+Nz48aN4ODgpUuXdunSxdXVFTPPQqHwzJkzffr06d2796BBg3r37o13irDvr0ePHmPHjh06dGjfvn0lJCSWLl2an5//4sULHFLr2bPn3LlzX7x4YWJiMnjwYCcnp3HjxnXs2JE2AJibm1dUVHBqfbJgsun/y/s///+nxNiK/HmzIB5aSkhsI8DLKjkhB5lyBBwFR5VKwiEccMIb5QB5MXmBfzsq6fc/ZmG8guYFtqS2L1++ZGdnT506tUuXLj/99NOoUaMGDx4sJSU1ZsyYYcOG4eWSPXv2UAfMw8OjZ8+eMjIygYGBHh4effv2xaGNLl26GBsbBwYGXrlyBS/KmpqaFhYWbt68GbsCcVW8gYGBkpJS586d6fDH4MGDJ02ahC11mHmm1RdqVVib/rcQ/39yVKqnoEeONnmjHCCvVfAC/2sdla2WeLNngZwy8EZ5gSBCFSQvTtuBbaHWOg5bKMLkBXK4IpyvX7/m5eXJy8tLSEj069dvypQpI0eOHDFixMSJE4cNG4a3P/bs2YNBUW1t7eHDh3EuOTU1NTAwcMCAAXDUUaNGYUNCaWmpoaFhly5dLC0ty8vLT506NWfOHAkJCVz1gO1NHTt2xIsMgwcPPnXqlK2trYSExNatWzGow1oUq9D/BkcVzwIS48iNNyoO5DBPBkM6YltLDjJR4+CQygAnUrzExYGUnE3IC/zbUf8tIlIGKyleIKXBVw4Om5wweYG8CdFOfvjwYdy4cQMHDjx//nxhYWFqampMTMy7d+9ev35tZGTUtWtXNzc3dL0aGxs9PDy6devWv39/VVXVadOm/fTTTz///LORkdHUqVMXLlx4//79pKQkvJW0fft2TPyGhYX1799/xIgRDg4O2Io4ZMiQQ4cOodEODQ1dv359p06ddu3axTFN1iJ5i88p1F/B+c86KquLVrji8N8WxbVCjTLlxeElzgv821FJkv9Tur4Yo0ZERPzyyy8jRozYvHnziRMnTn//eXt7Hzt2TFpamhwV85YHDx6U+P4bOHBg586d8U6Rn5+foqJily5dTExM4uPj6ckfvCeQkZExduzY8ePHv379OiwsDIe/Tp48OXny5H79+uHQaadOnby8vLBcRDet/O2o4g0jrxNyHJ4Xh9cneYF/O+r/REdtbm5+8uTJiBEj2rVrh3dNsMGte/fuOCxOjoo9Uu7u7t27dx83btyZM2d27NjRvXt3SUnJBw8eHDhwQEpKatCgQb6+vvLy8h06dHB3d8dy4ps3bwYMGCAjI/P8+fPc3Nxly5aNHj3az89PWlq6f//+CgoKXbp06dmzZ0BAAGf70d+O+r/QUdkFcd56ggVSDQRT4Pylgfu/HavN8xYt2RYnC2KAlysWSDz89WqSSFEAy32RkZHDhw/v0aPH3LlzV6xYoampqa+vr6mpqaKi8vPPP3fq1Gnjxo1Yi29ubsZBKi0trfLy8idPnkhKSvbv3//Zs2fZ2dmmpqYzZsw4d+7c5MmTe/fufezYMazy3b17d8CAAaNHj7a1tb1y5crChQuHDx9+584dGRkZKSkpBQWFESNGaGhoJCYmYhGINru1JEzivxUxksBpphSpeMUIZI7eW8Kk3MmLeNkgtFbocBKyHHKSc6KchLxRDpCXOC/wv7ZF/XOOClmjU0c9Lo7CWioM6YkQWB5ITAiQ3VAAqSgth1pLUSIrnpyFtJScg4ONtU+fPsVpUhcXF+xVeP/+fWxs7OPHj9XU1Dp27Ghubl5XV4d+Ms55jBw5cs+ePevXr+/Tp0/fvn0fPXpUUVGRlJT08ftvypQpnTp1OnfuXF1dXWxsrJmZWbdu3dq3b9+vXz9VVdVx48b179//woULCgoKkyZNOnXqVEBAwKZNmw4ePJiQkIAagaRE5SUxskWgrwCyOEThb0dtRWKs3Ajtv9ZRSTGkPAoQB2S+7Cfs28D2KxD5E46KqQjMuGCClLJAgGUP4da5IlYJjegQhAKUF0FaSs4i/P7775hMunfv3qBBg7p37y4vL6+pqamsrDx79uy5c+fOmTMHx7stLCxqa2u/fPkiEAicnZ1xh6WUlBSeiu7du/fdu3dx6XtxcTEe+OnXr5+vr69AIHBycurRo0fXrl2HDx+uoKDw22+/4ZyHs7Pz5s2bnZycbnz/TZw4sX///keOHAEdVlzgmbf4nIKzOEThb0dllc6RGCtbQvuvdVTKhgKt8ESfoE60FbQq8EcdlbwUOznp7jVWCmQ3FCA+yamIKzYhoeErB4cXkxfImxD77IOCgrDKgp0MuM+9R48e/fr169atm4SEBDlqY2Ojk5MTrkrS09ObMWNG586de/Xq5ePj09jYmJCQsHbtWlzkPWTIkMjISJFIdPTo0TFjxmhoaISGhiYkJBQVFeHGMykpKRkZGSUlpWnTpk2ZMkVCQmLEiBH37t2DLkhKxDZv8ekrW2TCJOWyaPSVBAv5/z3rSwL5Y45KquLUiKxKWNKET4FWEpLmCJm0Ja6wlnLE5Xd4c5J2V9M5b0BYJ6S8EAAC2Q2AVCJKSBDCJAgFqDgEaSk5i4AWtaGhITg4GFc5Ozk5HTt2LDAwMCAg4ObNm5cvX543b17Pnj2trKxwkqOhoeHixYuTJ082NzfPzMzEi52//vrrq1evqquro6OjZWVlcQE03phubm7+/PlzYGDgu3fvysrKysvLKyoqvL29x40bhwfgBg0ahDcyFBUVjxw5gieSqcZkZcJbfE7BSbAIUAVKaESQIBAIJyEBfyjGNnLVEh0OG2y+pCkOzp/OkZc4L/B/oqOyjLLaJY22Li8cv6qvrydNo0GgwSppSFzchEN5ieNQ7i3RYflnkQmfgBzigGMiNyMj48CBAydOnMjPz6+ursbxNKFQKBAI7t+/7+rqGh0d3dTUhIOmOTk5gYGBb9++ra2tLS4ujoyM9PPzw7tblZWVu3fvNjIycnR0DA0NxY58nCDBWVZckFtZWRkVFYXrMy9evHjv3r3IyMiYmBi8qsLxUmIbAYryFpy0gAA5KttFaoUOL3FeIEeqfxqHk7ClQlF2pFZOQt4oB8hLnBf4v9NRMbHJmgiZBSTF/iWJw4ZwoAmmSTpgcShMX/+K9FlqCNOF5g0NDSKRCE6FkTZ6xfSkKg52Y4sfnR3FJC3dRId7Q3BXA6hhXRTva+G8FSjgHCbOptNWCnbfOXkalbclMbKFYrVAYerjsBSILJKzn4hgK8D/FA6HDZYZThacKCchb5QD5CXOC/xf6Kh0FRuZBQIk1pYcjByVjgsSJqXlCBpRDpBX0LxA3oSoKeCTcD/MhNH5LDpXiScnaTCPygXrKJgzh7/RnUbsEXC6Vw2lBilq7pAjvBQnwiBD+ssWh1MK8SjIUlowjBqBvSpePGFL8ufF5OjoT+NwErIl5WTBiXIS8kY5QF7ivMD/VkelOQkqIcsTpwyIstpFmE3behLgU1sqnlA8Obq+/28dlYrM4V88StKjJLBsivIGSA74yibh9PwRbYUI6Yho8rrWf52jgjeOitvIFS+r4kAScutlFE8obl3iOLzEeYF/zFGJVw4TLZEGZ+wCCXUpiRRxz6HJG+UFEil85cVpC/DLly8ikQiXX9IJTN6ErefIKw1eIId4W3CQpC0J20KNxYE7sc6JrywOC/lziqNGG837X2xR/3ZU/o2vpKe2GApwcM4dd23RTRZEhzUCDk3eKC+QqOErL05bgHg3Hi8Fou9HtsjJghPlEGcLRZi8wLYk5OAgygHyEucFtpIQLkTdYw4mJ8oS53zijRKQHJVtBvGVcH5InDD/dtR/O2pLsgCc/QvRQ8pk4jQHiwchWfUAB5qjvyBIyYk+JyGrSzZHlg7hEE02R8qCTY5ZKHhpKzm2xBXBOcRZwyIeWFYpIcsq8U8cElmWICctRSk5QcRzBA5KioEJKwFOviwdhCkhopwcKcqyjRabrbIpLdHnJKTCsnQQpr46dQQAR0kJn4CUBRugYiIjzidEUVIWk0XjyIFNwqKx/BCpNgJ/3PXl5EpCZDng4NAnMEFTfGx5WDosHGmJeyIFHFZnhENl5rDBZkEJaUoGsymUlpcaL5A1dw5XHHMh4pQ7ApSKAlRMtvic4iAt+xfsoVrhUGBzpE4mpoIxEqG+PVaeoSNgYrIKaGwRUHDyDVIrtnnSyXLiBGlRRtQCSPv7779jJon2h1KhqPgoGuXIssF+oklpmmCjSXuavkZa4ooCYIYdixEb9IkURAFKjgDqNSoj+xVAyPkPPdxGDFOpUeQfXG6GvIlRosLyRDikRQQgaKgfO+NIYSQUsnvKgj6RSggHn6gA4lHCJAaIGpjE9SW0IEGkkJd4lM2CigPtUl5UfPIZXmrAZxlji8yRJwQFbyGpUo6UkOySJQtSpCnYCrliQ0MDVVLEOW4bJOHAsDCAJDoc/lFGLPNgZpgwKfDt27f6+nraHAZuqeJA6SgtiZq4QneMqgCSKjihjg8KiNt0sQqNCwFRMbHMsELG861kkJwAEYfckCPdJEoGwCEoHkXp0J1k+RfHZCGkaBb4H3ZUckt2gQHVG10dQgYNPmB2ZHzkWigYi0O6JOkjQFEqIXsHHOiQTTc1NRUWFpJ9EAVe4iwQbzrhqmsOV+QGKAWphIgjd4zVqbxskVmVwJEgNBIjhMb+hW0BgSNSYhu35sElysvLU1NTYcR4gYI8p/77D08S475ZdD2Ifyrv169fcZc3csS2CmiWtIAAiLOloCVfkUiEvLDqC26JZ+Kqqamprq6uqalJnA0IHLUAdm6UlJTgzsTa2tqampry8nJwSFyJS1ggEOBKXjCJdWmqVgDEajb1NYCDpWysTlM3nqNN0nJVVRXCZBWwUqp/wSdbNYtX0D/u+oIc2QFbbJY0Kj/s3YPWGxsb8TpAfX09ajtsrIEgoDPIDvUTqFGxURhwjKqRLRixwXFm6BheipumSXzgEDfQV1ZW0pYAVn9kEKxMCYHIkkapZsXZNKgWFTzlS1rBToPq6mqYNUwNbs8iIzsshEKSDQ0N8A10tND6wUZBE6ugqHpYK4cwobsvX748fvz48uXLSIhuJ3QhEAiCg4NfvnzZ3NwsEAj8/Py8vLxwNIdmZUEEBAsLCz9//ow3s0NDQx88eCAUCsnNyOsgrpKSkqdPnxYVFVHVmZaW5uPjExsbi5tvIS4SMsQFTxAIBDU1NbTJDDhkddBCfn7+u3fvSPLl5eUxMTEHDx78/PkzqiTihywK0m5oaCgsLLx//z7yEolEAoEAcqb6tLS0NDIy8saNG5WVlQKBAGaMWubz589xcXHx8fG0xZKkjYzg2wKBICwsrLa2lrSDUlCnHSqASaAUMAw4CNtR+kGL2oqjIjO8lYIbKH18fE6fPu3t7X327Nlz585dunTp4sWLCJ85c+b48eOnTp3C9dC4Z4CGQ2CxvLwce9ZQyPr6+urq6oSEhOfPn+NRUKoOSPocR0WBGxsbq6qqcnNzkQtuyv3y5Utubm5QUBB2omOxlLwIymvJUck4vnz5UlNTk56eHhgY+OzZM9TlOOsjFAoLCgpev36dkJAAGwJNSAk41dXVhYWFODUmFAoTEhJu37595cqVmJiYgoICclfMP1dUVMTGxp4/f/7cuXOQqpeX1+HDh/ft27d37153d3cPD4/du3efPHkyLy8P+q6rqysvL//0/ZeRkZGfnw/O4SRnz561tbUVl3x8fPyCBQuuXr3a3NxcXFyso6OzcuVKoVCI9SrYDTrDX758qa2tPXv2rKenJ26at7CwsLW1rays5DgqFCoSie7cuTN//vyXL19CDsXFxa6uroMGDXJ2dob5gjI5KuytpqbG19d33759aWlp6JBzmh007EKh8OLFi46OjhUVFaCTmJi4atWqMWPG3Lx5E4026Q6btNDSNjQ0CIXCZ8+eOTs7o5qrrKxMSkoqLi5G1YmyJycnW1tbGxgY5ObmPn369NChQwcPHnR3d3dzc7Ozs1uwYMHGjRszMjLQnHAO7kJuGRkZixcvzs3NFYlEVNnhU35+fkRERFBQUGBg4M2bN+/cuRMYGBgWFhYUFPTo0aP79+/HxcWVlZWh5//nW1R4CLLEYyRbtmyZPXu2nZ2dubm5rq7uxIkTFRQULCwsrK2tjY2Nl3z/zZkzJyYmBlqkzTFoBJ48eaKrq3vr1i00Js3NzZWVlQcPHjQ0NDQwMLC0tHz+/DkSQpfijR7MkaipqqrGxsZi0CIQCHJzc62srNTU1GRkZHR0dDw9PfECLyoFtI2tO2pTU1NeXt62bdt0dXVx7mzp0qVPnjxpbm4WCoWPHj3S0dFRU1PT1tY+duxYZWUldZMwRHn69Kmpqendu3cFAkF+fn5YWNiyZcsUFRXl5eXnzZvn6OhYWVlJ5igSiaqrqy9fvvzrr79u27ZtzZo1mzdvNjc3X7Nmja2traWl5dq1ay0tLU1MTCZPngzJlJWVeXh4rF271tzc3NTU1NDQ8PLly6jIMVY8fvw4nbkRCoVwABym0dXVTUhIaGhowGX5t27dQm0CftANgSTLysocHR0XLFhw+/btmpoaGxsbBwcHtnsC7dTX15d8/zk7O+PxMjw0GBQUtGDBAn19fQ0NjZiYGPgScqGmpr6+vqqq6vDhw8rKyuvXr0fNTmqC4zU1NaFKMjEx2bx5c1VVVXV1dUlJyYULFxQVFQ0MDNTU1D5+/AjvFYlEUEFBQcG+ffuKi4vhh4GBgVZWVtTJOn/+fGxsLKo8PEvx4MEDXV3d69evCwSCmzdvrly50tnZed68eatWrbpx44aDg8OaNWuKioqampqKiooCAwPj4uJwL35RUVFNTY1QKIyLi5s9e3ZMTAzes6murkZFUF9fHxERMX/+fGtr661bt27atMnS0nLDhg02NjZbt261srLatm2bp6dncnIy9Th+0KJSfwMBts9JrRnG5Tt27Ni7d29RUVFhYeGlS5eGDx9uY2Nz+/btkJCQtLS0jIyM27dvKykpxcTEUFWNhPX19cnJyYsWLerVq5efn191dTXa/bt3786cOfPQoUPh4eGG33/5+fnYsEpdMuKB+hslJSVhYWFKSkp9+/YNDAzEiKu6utre3n727Nl+fn6PHj1auXKlhoYGOnvosbClY8tIxUeD8OjRIzk5OWtr64iIiMePH+vq6q5evTorK6uysnLdunXa2to3b968fv26jo7O7du3hUIhjow2NjZmZ2dv37595MiRFy9erKurS0pKWrBgwaJFi27fvv3s2TMHB4fx48ffu3cPFR/VF2FhYTo6OikpKdXV1XV1dWVlZaWlpXV1daBcVFT06tUrNTW16OhokUhUUlJiYmJiaGjo4+Pj6em5cOHC/fv319XVoZchEomOHTtmY2MjEAhQ36GFiYqKUlFROXfuXH19fWFhoaOj4+TJkzdt2uTj44MO0enTpx0cHK5cuVJTUwN9xcbGrlq1ytTUtLi4eM2aNYcOHcIrb9T5+vLlS0VFRVhYmKOj44QJE2bNmrVx48bt27f7+fmtWLHC3t7+/fv3VlZWixcvfvnyJeurqGRRg3/69Gnbtm2DBw++fPkyeIavojiVlZUeHh5GRka//PKLsrKyi4vLzp07/f39VVVVXVxc3rx5o6enZ2FhkZWVhc4z6oKPHz+qqaklJycjGh4ebmFhgcc+KioqjI2Nr1/7mxEqAAAgAElEQVS/DkULhcJ3797NnTvX0dExNzfXy8vr/Pnz69atCw4OXrt2rampaWRkpLm5ub6+fkVFRW1t7YcPHwwNDXV1dV+8eFFaWnrixAlXV9djx47t2LGjf//++vr69vb2Xl5e27dvz8jIwNj7xIkTFhYWBQUF7969y87OxjtDKSkpb9682bJly/v378vLy8lLf9yikqWyAZSTBmMYjlpbW+/fv7+mpubhw4eysrJjx45dsmSJmpraxIkTz5w5U19fn5WVpa2tHR8fj3fU0WeuqqoKCAiYMWPG3LlzR40adfXqVYwThEKhra2tjY0Ntgr5+fmNGTPmwYMHiHJ8iWrZkpKSI0eOyMjITJo0acSIEYGBgXjS5+PHjzNnznRzc8PkwYcPH1avXh0VFYVWhfqc5CGc5hpDUJFItG/fPk1NzY8fP6LeDQgIkJKSioqKio2NnTZt2sWLFxsaGsrKyiwtLe3s7HDwHf5w9epVVVXVAQMGnD59ur6+/tGjR6ampvfu3RMKhfBABQWF7du30ywCuhUhISGmpqZpaWnPnj0LDQ29cePGrVu3/Pz8/P39r1y5EhERERMTo6am9ubNG5FIVFFRYWZmdvnyZZFIVFhYaGVlZW5unpaWVl5enp+fn56e7uLiYm5u/urVq5iYmJycnKamptraWnt7+/Hjx6Pmvn///qxZs+Tl5SdMmLB582Zra2srKys7Ozt7e/vQ0NCampqC7z90Gt3c3N69e7dkyRJ0H4RCYfX3H/oRQqEwOTnZ1dV19OjRGzZs8PPzW7t27dSpU6dMmXL16tXk5OS7d++qqqqqqKicPHkS3VEMm1EXNDU1VVdXOzg4DBgwYM6cOZj8o6V4jKVv3Lihq6s7ZcoUOzu7s2fPLly4UE5ObsGCBdHR0fHx8QcOHJgwYYKtre3z58/x9seXL1/S09O1tLRSUlLg8+Hh4aampniMp7y8fPny5deuXcOnmpoaJycnZWXlZ8+eBQQETJgwwdXVVVlZecWKFf7+/vr6+l5eXrKysseOHUOvu76+/vHjx1paWuvWrcvIyFi3bp2RkdHhw4f3798/evTobdu2ubq6HjlyZObMmTj21NjY6OXl5erqWlNTc/jw4XPnzuE1zZqamuPHj6urq6enp1PFBNf7Ay0qdIAJDNguqkCMqWxtbc+fPx8TE7N8+XJpaem1a9f6+fktW7Zs2rRpr169EolEKSkpJiYm6enp3759oweOCgoK7Ozs0BbNmDHjwoUL6BsUFxfr6ek9efIEs5oFBQWqqqrHjx9HhUoTjxj7oVVsbm5OTExcvXq1sbGxn5+fjIxMaGgo+qXh4eGysrLo9JeXl9fU1Hz69ImmHNEU0CiLUwvQHGx9fb27u/vy5csrKysxmHnx4sW4cePi4+NdXV2nTZuGOkgkEl27dk1LSwvvHTY0NMTFxWloaFhaWk6dOhVPVufk5OTm5iYkJAgEgtra2srKSk1NTWdnZ9SAUMy3b99CQ0NXrlx57949Nzc3ExOTxd9/enp6y5YtW7Ro0aFDh2JiYtTV1d+9e4dLQFevXh0eHo7x28aNGydNmqSpqWlubr5y5UpDQ8PJkyfjJiRTU9PExMSKiop9+/aNHj1aXl6+sLCwrKzM1NTU3Nz8+PHjqqqqZWVleNcI7zviybOTJ0+amZmtX79+y5Yt+vr6q1evHj58uIaGhoODg729vZmZmYmJye3bt6urq9Fonzt3TklJyczM7MqVK6qqqsrKyioqKoqKiurq6gsWLJgxY4aGhsbEiRNtbGyys7NpyINHJZ8/fz537lwrKysVFZV79+5BjzAGTG1UV1dv2LBBW1v7yJEjN27cmDlzpo6Ojr6+vra29pIlS9TV1XV1deXl5UePHu3p6Ympr/T09Hnz5qWkpGBcCvFi9FhVVbVy5Uq85iYUChMTE2VlZUeNGqWlpTV9+vSNGzfa2dmpqKiMGjVq/fr1urq6v/7668SJE+fNm+fl5YXKpbGx8c2bNwEBAcXFxU5OTrhMIyUlRUtLKy4uDl2e1atXv379GoOIkydPOjk5VVVVHT16dNGiRR4eHunp6Tdv3pw3b96xY8eqqqpoPv8POypmHWtra/38/LKyslAFopsqFArXr19/48aNU6dOOTo6Xrt2TU1Nbe7cuaNHjw4ICKiurkaLqqamlpiYiDUDGnAWFBR8/v5btmzZ7du34YTh4eHS0tLPnz/HrE99fb2RkZGrqysaqIKCgtLSUpqjgxYbGhoEAkFaWlppaWl2draMjExYWBieGzx79uyMGTOOHj26du1aDQ0NNze39PR0MEAzt607Ksp+4cIFaWnpW7du5efnV1RUbNmyBY9EODg46OnpET/JyckzZ85MSEhAv2vjxo2GhoafPn1SUlI6cuQIHACDcDhYZmbmqFGjvLy8YE/kqPfu3bOysqqpqamrq0N7FRsbW1xcXFpaWlJSUlNTk5ubq62tHRsb29DQUF5erq6u7uvrm5ycHB8fr6en5+XllZCQkJqamp6eHh8fb2Njo6+v//Lly6SkpNLSUi8vr2nTpsHt09PT9+/fv2jRog8fPgQFBS1ZsqSiogI1ZlNTE07D1tfXJyYmBgcHh4SEhIaGXrp06fTp0xMnTrx9+/aDBw8uXrwYGhq6Zs0aPz8/JCwoKMDD50pKSk5OThYWFgcPHnzw4MGZM2e8vb0fP34cEBDw4sULTU3NW7duVVRUoOw4YVtXV+fu7q6trZ2QkLBly5aNGzeivkCNDMdIT083Nja2s7PT1NTcvn27i4vLvn37/Pz8XFxc9u/f//Dhw7i4OA8Pj0WLFj179qyioqK5ubm0tHT+/PmXLl169epVbGysm5ubsrLyuXPnAgMDz5w5M2vWLH9/f9SVOTk5wcHBPj4+WlpaeGXr6tWr7u7uSkpKampqBw4c2L59+549e44ePfrkyRN0nuk9y/z8/G3btvn7++MtTHl5+cjIyPr6+qKioqVLl0ZGRn779q2xsfHUqVNOTk5lZWX5+fk3btzQ0tJatWqVhoaGhYVFYWEhmlO24v4DLSoE9ObNG1lZ2d9++62mpoZ2hNTX17u6uoaFhVVUVOTn5z969EhfX3/o0KHy8vLr1q1LSEhIS0tLTU3V0tLKzMzEbhi0VOjsNTc3l5eXa2ho+Pv7w9wjIiJwTQEQ6urq9PX19+3bh/nuc+fOHT9+/OzZs5cvX75y5cqFCxd8fHzevn3b0NAAm87MzJSVlQ0PD0dr7+bm1r9//0mTJll//82YMWPNmjXY1ovqhvq61PuliWXw2djYKBKJioqKtmzZMmbMmF9//VVBQWHkyJFY8NixY4eRkRHG3g0NDenp6fLy8m/fvq2vrw8MDFRQUPj48WNubq6KioqXlxfWzTE1jUkjOzu7UaNGPXv2DH14ctT79+9bWlpWV1fn5eW5u7sfOXJk06ZNmOw9ffp0bW3tp0+f0Nn7+vVrcXGxlpaWsrLyzJkzFy5cOHny5EuXLj148MDX1xcPFu/du9fW1raoqKjq+8/AwMDW1vbatWsaGhq3bt1atWqVt7d3TU2Nj4/PiBEjTExMVqxYsXz5ckdHx9evX9NYF4sZ8N7Tp08bGRmVlpais11cXLx9+/br16/DZB88eKChoXHo0CF5eflz586FhITIysoqKCjMmDFDWVl5z54927dvf/bs2erVq/FsOdwb65ZJSUlaWlq7du2qra0NCQlRVFS8d+8emgTUmCKRyNPTU1VV1cPDY/78+T4+Pg4ODj///PPixYvRYvv6+p4/f37Xrl0WFhaVlZWw1ZqaGmtray0treXLl1tbW48dO/aXX37R0dFZvHjx2rVrly5dev/+/fr6eqFQmJOTU1VVde7cOQUFhdevX6ekpOzdu3fFihVjxoyZPXv21q1bra2tLSws7Ozs9u/fj8kqDG7Dw8MPHDiwadOmiIgIoVCYnp6urq6OOaqysjIjI6Pnz59j1tPb29vZ2RmzD01NTf7+/rKyskOHDn358iXG/KyX/oExKnq5tbW1u3fv7tat26+//pqbm4s1LhjooUOH7ty5c+PGjY0bN6JvoKOjs2/fPnNzcy0trWXLlgUHBy9fvjwnJwdTQVhrQetaX19fXFysra0dHByMJjQwMHD69OnPnj2jFRczM7Pjx49nZmauXr1aVVV13rx5ampq8+fPV1dXnzdvnq6u7uHDh3NzczHXkpaWJisrGxYWhoPXBw8eHDJkiL+/P5Z2X7x4MWbMmKCgIGrVW1meoc0uDQ0NL168UFVVnT17tqurq62t7cyZM62srIqLi9etW7dixQo8gvj169f09PRZs2ZFRUVlZmbq6Oi4uLiIRKLi4mIVFZWjR4/S4/PNzc2pqamurq5jx4719vZGc0Gryl+/fr13756NjU1FRUVCQoK0tPTGjRutra1dXV3V1NQsLS2FQmFubu6CBQtevXqFYtrY2Jw4cSIjI+PVq1dLliy5du1aVFSUvLx8QEBAZWXlsWPH7O3tsYWgoaGhqKiooqLiyZMn6KWXlZUJBILGxsbg4OBJkyZduHABKwfBwcExMTFYraG5DWwqWPn9FxkZiX5aRUWFlZUVZhmEQqGvr+/IkSPV1dUHDRo0bdo0ZWXlYcOGnTlzxtPTc+7cue7u7mZmZvfu3TMyMiorK8NaMUahlZWVXl5e8+bNS01Nhdy2bt26bNkyrGyhQ1hVVWVjYzNq1Kh58+YNHDhQWVlZRkZm2rRp/v7+e/fu1dHRWb9+/datW9d//0HLTU1NycnJcXFxWVlZpaWl1dXVhw4dWrlyZUpKyqdPn0pKSt6+fRsSEoItHI2NjRcuXFBXVzczMzt27Nj+/futra1NTU0HDRq0bNkye3t7Y2PjZcuWOTk5eXh40F0ZSUlJK1as2Llz58aNG52dnUNCQs6cOYO+UlBQ0NWrV5WVlZ8/f4665vTp0zt27MAmDYFA4Onpqa6urqKicvjw4YKCAkyC0JzFjx0VTQ1GcSKRKDY2dtasWXjaxNPTkxpogUCwbdu2o0ePWltba2pqHj9+/ODBg5qamnPnznVwcDh06NC+ffuCg4PXrFmD169///136nOiGSkvL1+2bFlYWFhDQ0Ntbe3z588xlIefNDQ0mJmZHT16FF8xHV9dXV1ZWYln6jEhDinX19fDUUNDQ2HBJ0+eVFRUxMCyqampoqJCWVn5wIEDtJD7Q0dF33L16tUWFhYfP37EA/KRkZETJ050d3ffsWOHoaEhFoEbGhqys7MVFRVfvHhx/vx5JSWl2NjY/Pz8pKSkOXPmuLm5lZWVFRcXoydpYmIiLS29d+/ekpISbGFhHfXu3bvW1tZlZWUZGRnq6upxcXFoDB0cHFatWtXQ0JCTk6OtrR0TE4P5OSMjoxs3bmD8v3PnziNHjlRVVZ08eXLhwoXx8fEnTpzYtm0brbuUl5fX1dW9fv0abx+jnf/69WtsbOzChQthyqidRSIRDdShrIaGhpCQEAUFhdOnT6uoqHh4eAgEgqqqKlNT09DQUEi1qKjozp07wcHBs2fP3rlz55UrV4YNG6asrKygoPDrr7/u3r17xYoVT548MTExyc3NpdYDk4s6OjrXrl1DLwb1o4yMjI+PD9DQIhUWFr59+9bb21tZWdnf33/Lli2DBw9esGCBtLT0woULXV1dDxw4sHv37vXr16Our6iocHR0jIiI+PbtG9rAs2fPGhsbFxUVoW1ISEjQ19ePiYmpqakRCAR79uyRk5ObM2eOgYHB2bNn8/LyLly4ICkpuWrVqrVr165cuXL58uXe3t5FRUUg+PnzZycnJ11d3fj4eGtr6/nz52Odsl+/flpaWosXLzY2Nh4/fvzTp0/B/4ULF7Zs2SIUCquqqu7du2dqahoREZGcnGxra+vm5paRkQF/Jjf5QdeXddTGxsbjx4937ty5Y8eOHTp0mD59elpaGqTQ1NR07NixiIiIjO+/u3fvenl5xcXFubu7Ozg4wILz8vJMTU0TEhKwhkscQPcVFRV6enrh4eGYVMjLy9PU1Lx+/XpjYyNcUUtLy9fXF90kdA7hXTALWBKtEKSnp8vJyQUFBWHS6+jRozo6OgUFBTDipqamFStWODs70/QYCFK/l3rCWPVBlZyTkzN79uzQ0FBU/2VlZbm5uZs2bTI1NQ0LC9PQ0MjPz8eY8+bNm2pqanFxcdra2hMmTFi0aJGmpuasWbP69es3bty4bdu2FRcX5+TkrF69eu7cuREREVj5gCRpLh0tqqWlJUYTS5YsuX37dlZW1sePHx0cHIyNjevq6jIzM8lRa2trN2/e7O3tLRAIqqur9+7de+LECZFIlJqa6uDgcOHCBT8/v61bt8JRv379KhQKGxoaYmNjjY2NsYSL5dDo6Gh1dXW0qEFBQY8fP8byIA1Svnz5Eh8fb2pqevDgwdra2pMnT2ppad28ebO8vHzx4sVRUVHkTmVlZYmJifPnz/f29j5x4sS0adM8PDwOHz4sKyvr4uJibGz85MkTPT291NRUbErBoM7ExGTPnj2fP3+GZuvr6ysqKjZv3qympvbhwwehUNjc3Ix+QW1t7ZMnT7S1tb29vVevXj1p0qQzZ86sWLECVYPT9x85alVV1caNGzG/CMqhoaH29vY08//mzRtdXV1MgDc2Nn7+/PnZs2fPnz//8OFDSkpKfn6+gYHBqFGjpk+f7uTkZGVlNXjwYB8fH1SvjY2N79+/X7hw4dWrV6uqqhwcHE6dOpWRkREdHa2oqPj69eusrKwPHz7s2rULs77Nzc24OTkzM/Pq1avLli2jtdbk5OSNGze6urp+/vwZ3WkY5x9w1NTUVCUlpfbt2//jH/9o165djx49sB6NuRxnZ+eAgAD41dmzZ1VUVJYvX37o0KEbN25gRictLW3RokUpKSm8jlpZWamvr3/37l2MgoqLi+fPn79r1y5so3vy5MmECROioqJKS0thB1hypOVTTP9SVyEjI0NOTu727dtoKCIjIzH5jAcaSktL5eTkMF9HScQnk2jfEnA+fvwoLy9/4cIFLJFXVVXV1NQYGBgYGxuHh4fLycm9ePGioaGhpqbG6vuvtLT0xYsXr1+/Tk5OjoqK8vLykpGRsbGxCQ8Pz83N3b9//9SpU69fv47Neqg+sWOe8o2IiDAzM6uurq6oqNDW1tbS0jI3N1+0aNGMGTOsra0rKirYFrWhoWHHjh3btm2Ljo5++PDhmjVrjhw5gnoqKSkpLS3txo0b27Ztw0I01XRv3741MTGprq7GDAde05g4ceL8+fMNDAxWrFhhbGzs6OiYk5MDsWPXh4ODg6urK/qiJSUlly5dio6OzsrKmjt3bkxMDDY5ZmZm+vr6/vbbb1JSUrNnz9bQ0Bg4cCD2aUhLS//222/GxsZBQUFKSkqpqamYhn358qWxsbG1tTVN9aGj29DQgKbGyMgoOjq6vr6+trY2MjLS3d3dwsJCSkpqwYIFCxcuHD16tI2NzeLFi2VlZR0dHXfu3Onq6kqOWl1d7ejoeP78eWz2QNNtYmKCsVJjY+OHDx+WLFmSlZWFdc6cnJz79+97eXmtXLnSwcEBW5FsbW3nzJlz4MCBpUuXuri4FBcXY+0nLy9v7dq1NjY2xcXF1dXVUVFR2dnZ2Agxd+7cgoICzLwkJSUVFhZiricwMBBXnC9fvjw4OBgGAFd69eqVmZlZdHQ0KpEWHRWGQrpEYyUSiU6dOvXTTz916NChffv27dq1a9++/dChQ1+9eoUpHDc3N09PT+xfKygoePPmjYeHx+TJk5cuXRoVFRUfHx8dHT137ty0tDSqmykLLJHr6emFhITAA+vr693c3FasWPHixYuUlBQbGxt1dfWioiKMs8Eh2yaDSVo0ysrKkpOTCwkJwf7MwsLCNWvWODg4ZGdnFxcX37x5U1FRMS4ujlpjcMJpUVk5fPv27dOnT0ZGRsbGxh8/fiwoKCguLg4KClJRUTlz5kxOTs6CBQvs7e1TU1PDw8N1dHTCw8MhZRSnqamptLR0yZIlV65cKSsri4yMHDdu3MaNGz99+lT0/YfWnhaKwM/du3fNzMwEAoFQKIT7RUVF3b17NyIiAhfY5+TkaGlpvXnzBpvD9PX1J06ciBUFXHiP3iPaK39//+3bt+MiQtBH27hixQpszMBA5vHjx4qKigkJCSUlJZWVlUVFRZ8+fYIY6+rq0tLSbGxsrK2tc3JyMP2D6TqRSPTx40csRWB3982bN3V1dXV0dKSlpS9evJiQkDBnzhxLS8tNmzZNmzbtyJEjv/3225UrV2bOnJmYmCgQCCIiItTV1Y2NjVNSUrByRlvNsBiekZGhpqamq6sbERHx6dOnw4cPGxgYrFmzZtasWZcvX/b19Z06daqTk5OpqamCgsKZM2dOnTp19uzZDRs2oBYQCoXbt2/HUlBhYWFGRsalS5dWr14dFxeXmJiI7Zzz5s3DzEt4eLiBgcG8efPWrFmzdOlSPT09FRWVoKCgrKwsPT29wYMHz5w58/79+xiw1NXVYagfHR2NNpCWfCsqKmbNmpWfn0+HljATIRKJbty4YWlpefPmzVevXpWWlhYXF2P4Vl1dXVpampmZWVRUhN0gUBZPi8oaKEyntrY2JyfH2dl54sSJ48ePl5aWnjJlioyMzOLFi58+fYoJTDs7u6VLl+7atcvR0XHdunUWFharVq3S0dFRUlJavXr1xu+/OXPmJCUlsfUEuZxIJHJwcHj48CF2vTU1NT18+FBbW1tPT2/dunWGhoZnz56lvWA0kEMZ8BesYtdYUlKSnp7ew4cPcct7U1NTcHDwzJkz7ezsnJyctLW1jx8/DmugU1TiLSp1gDGixs5VTU1NCwuL9evX29jYmJqa2tralpaWNjU13bhxY/HixQsXLlywYIGDg8OnT59oDgMd7JKSEldXV19f34qKiqNHj06cOFFJSWn58uVmZmYrV660srI6f/48pqOQ75cvX0JDQ1esWIEldTrGgT5CSUnJ58+fnz9/rqOj8/btW3Rk3N3dT5w4kZSU9PTpU2dn58uXL2McUVBQkJOTc+LECTs7O8zfkiW9e/fOwMAARUCd8vTpUy0tLfToUM1D7CUlJcHBwSYmJpaWlgkJCVhNgQ9kZ2d/+PDB3d1dQ0MjPT0dm9qLi4vj4+MfP36sqakZFBRUXl5uaGh49+7dyMhIFRWVa9euRUZGXr58ec6cOZmZmXl5eVZWVmvXrn316hVNfGBMBHdFU/PmzZsNGzbs2rWrqKjo/fv3GRkZUVFRxsbGSUlJMTExmpqaSUlJly5dUlVVTUhIuH79+smTJ7dt24YmVCgU7tq1S09Pb+fOne7u7tgKamhouHPnTnt7excXFxMTk/Hjx3/48KGhoSE1NdXX1zc4ODgyMlJLS2vu3Llbtmw5f/68paWlurr62rVrVVVVly1btn///rt379bU1OAdd+wlwogMf0tLS9XU1HJycshEYfBfv36NiIjQ1dU9dOiQj4/Pnj17XF1d9+/ff/LkyaNHj3p4eHh6eu7bt+/mzZs01vuBo6LDQ8t96LXHf/+9f/8+NTUVexqxjrpx48abN28+e/YsMjIyKirq8ePHT548CQ0Njfj+8/b2tre3LyoqwiFG2lcAB/v69WtiYmJJSQltbamurk5MTAwLCwsJCXnx4gUsjB1VQhbkq9Armuu8vLzY2NiqqirMKsMB4uPjz5w5c/DgwYiICFADBeKE06KyjoqudV1dXUlJSWxsbHh4+M2bNyMjI+Pi4ojhlJSU27dvP378GHOkcFSYHXaJZGVlvXv3rrq6Oj4+/smTJyEhIWFhYX5+fnfv3n3z5k1+fj5tzUXFfOXKlVWrVmG/PsqFvyKR6OHDhwsWLJCXl8fWJXQN0EmGXRYWFubk5MDT7ty5Y2BgMGPGDEwz0vRyQ0MDpnOwYRVjv5s3b2pra6OHBteF44WGhq5du3bHjh05OTmoaul0walTpzAPf/HiRQChlKampvz8fG1t7Tt37hQUFCxZssTb29vIyEhXV/fhw4cnTpyYP3/+unXrMjMzsS2kpKQEOcLqqMFAlHYmgDd0WZOSkqysrDIzM+/cubN+/fqAgIB58+bt2rXr06dPFhYW2PCMdqmxsTEvLy8xMTEtLS0+Pj41NTUlJaWsrKykpAQ7rp49e7Z//350OKGvb9++FRUVXb58+c6dO9bW1tra2uvXrw8JCSkrK0tNTfXx8Vm5cqWZmVl2djb0AktgD8pgIyRmhqg4EE5lZeX777+EhIR3794lJyenp6fn5OQkJyd/+PAhLi7u9evX2dnZdAboB45K1QMmAGlrCPSBpS0M9x89epSUlMR2WmAQmKLAQl9qaip0jIkTqmbgYziBBRtFRhjtoDalQzAgyyk2VVQ0uYUSgg7Uj+aFTuFRE0qu3rqjkg2BQ+wdx5QMyojFeqDBS3GElaba0ZOkO3VJrxAmiEDN6MM/ffr0ypUr6KxikokEnpSUdO77LzY2ViAQYK0Lqaj/j/pCKBS+ePHCw8PD29s7Pj6e+quoetLT0y9dusR2ffPy8oKCgkiPUE1TU1NZWVl6ejp7vgQO3Nzc/PHjx7t370ZHR1dUVGCWHqmwBQWbDWtqau7fvx8fH3/9+vXY2NhPnz5FR0dfvXo1JiZGIBCgOkN1g7Kw27mptSDJo9/09evXrKysK1euVFRUJCYm3rlzJz09/cSJE7B7rE4VFRVRE81WmkQBWymxHSonJwdbzaEarDvinFBaWtqHDx8wKIVR1dTUYIoICqXqj1zm27dvNTU1aWlpKCBZLPoIcAT6iyqVrdxRMYHPfy/PkLFS+0YQmlAlcwdPaHDwlTwKVQv0xHJMjsQ6JxumhGAAWYAOJ18gwEpAAfqDocNRoWbaWYHckQTUOG0p6LTuqCACUVIBaRyFigy8IQuYF/XS6dITlBQ8g1tgkqbh3o2NjRUVFZiPBXtwLVItZA6jAT+EhvKwwj8AAApsSURBVCiJAieksdyHvIAJl4Cfk95piyhxzikUaYr8ikpE+iJZ4RgNJtsxoYJZBvgM+QPLP+yKdVSCgCwEhTCqS4wLBAKBSCSqqqrC/pny8nKQZVWDslDxYb0QFOpTMEamS/6DMpKrQ4ygTLZK8gdvNG9CmYIsu5eGTUIORcnZtuRfLSoSkIWxGJSMdAkVUo+RFEkIxBnLB9FhgcQclQFf2Sipn4CwMJojhdHDgkmCxB6pmXRAxirumQQhaRIEngYiyBF0KEe2+CyQFWYrOKxYoAhyQio4Nc6gQ/oCArFKuUBTWHwmv0JGEAsoUNZk2aAAlWEtGqN9osxiEhoBSYlk36RElmeiRrZBReCVP5ElhuFIqILxF8NvHPkgLSBAqVjixAPLGGFyBA5kIktR4IN5hKERIs6pd6iY0AIbJSIs8N8tKqkN5WRti4RI3LNmwQG2FGW5JxySV0tZEALHAtC2oMtBwuJUbGyBKUcSHyAcWYhHSQ74RMnRKaI1T6JPAWBSlJghiHiR2U/sV1Tb+EqKpyhrgsQ/kQIbMEFiifUZNiOiScnx9evXr4LvP3S86StJgyBEDXwCTrZIaMQJICwdtgiUkAVSFtTRo2aNKgWSCeopNgnxQMQJwtoYqy+2LCzDbEKEOakIgb5yzInwqYAU4GD+01FZcuj2YJhEVNhyEpAoUkCcNEsZYY6GkIT3EwdT3ECx3Ep1mziTxCros1EiTsyT2ghCvLEJqYwY0tDcD6WiAGESZXBICARHgJUV4bBAlh8iTggsNZYglZSSgw00RLQlkOggAAYQhuTRWyE0DoJ4KnIVIoLuJSWkMhK3YJXgxDBBOJgYIBB9KikCcFrKTtzZOBIj4qxsKWsCEkH6RHQIh1jiiIUw2bRtBP7TUVEG1D2YbmEdtXXOiDnx/NhPxFkrQPrEKScbJWXgvCJGIxziRIflnIAwUzIjStsS/5SQpYbVGtZ2WTocTHSYQZ9GzuI4RKGlHNkkHBz2E4VZubHECY7xIaKEwMoBnwif40iEyWGGN8oLpEzxlRen7cBWqEHprPDbniPI8rLRSo4knNZxeInzAv/lqBh30S17LTkqaQ46o4nNlkgTlxTgFJhNSJ/IMig7CJr+gk8cuaZVUBIN0eElzvExYoySEwR0WqJGvUcwSakowCakZp+1FfEckZZNKI7Dy5V4QhIdVW0cqaK7SD1DYpvNkYiQofPyxgskgrwM8yb5i8BWcgT/VDuTytqSo7hsWRGxX3mptcIV5xNFWZoE/KejYj6drqXDkiNvrtT/RJlxrpIwKcCb0w+BlJxjUmyUzI6GJZSKxMdCeIFY7EGvjwRBmAQBHV5q1LZQ3UGpKMAmxOWMLVV/lAQBNmEbuRJPSD5GKqMAK09CY3kgBujr/w5HpVlAlOtPy7aNCUmMrHY4QPYTqwLeLP7pqJgi+2GLSsqGo9bV1WH9jdU95dcWnsgUiDMyfdYnaZRPQDYhJ0dOvogSh1hNwW4HXkxwQmzw4vxRR8Wdd+w2jz+kISogKyUWKE6N5AOV0SwLK0CiwFtGkgMrOiLL5shKmOTGId5SFuJ02pLwj1IDVxiWs50IXjocIMshhzdOlJOQN8oB8hLnBf6r64tOLHULW2ptSE/QN+yPrl0l8+XNiRfI9gnZMFkkrYignefYGafYiLYEpN0OGFuyWXB4I9NEAF85OGyUkyP7CWGq4P7bur7Il5yN1pk5AhRnlVcs2K9PJk7lZQXOsQ2WAV6ahEBfiSzLVduBRJDlikihC8aZVmgLcaJA9Ilhgojn2EYcXuK8wH86Ki3LsivyLZWBjBglp2FqS1UpFYY3ewAx1Yw1caojiAGqDuHJZBAkC4KQFbKZkhDhqLRNipITMpsjFYeAvPwTcSJCATbh/1tHRUnRqJKIWPbYMEcsJPzKykpcHQ5ps9IgIZBtsATpK0mGkwVF2VR/Akj0xXNEKTgSoCxaScj51HqUl39OEg4OvrYF+C9HJem3bqCsS5DKqaIFhMMZRXl5AkGq76nC4wiRuKJMWWWQGxAnbKaECUfFUJyA4pjImnLkCJE3ygGKl5TkxsHkRMUTcuRA0bYk5FADDxwBcnDEo6jEGxsb6W500GExwQyVkdcMOAzzRv8iECzxigjaZMtOPFMq3oT0lZc3ztc/gQMKnIS8wH86Kn1gueckpk+kbyo2J8DhnqKUCwuh7i7rGOgfIkeMTjlGQLZCODQS49BhMTEUx0MmRJBlhoqMr1QuXhy2OJSwFUwWn9B+mBDlYtEQJggVhEpKxFvKkZIQJlETTwJ54nwme5CVxSSWWLlxiLeSRUseQmSJVOuYhCaekBy1FZyWiCPJn+a/9Rx5ifMC/+2oLEWau4exUhlYHNI3lYECvDm1DmQdjBU0bXAjN2NzYcNgkuhQM4sAZvywI4+KI56cCvhXcFovqXgWLITyBZDtrbFkiXNWCwRkCXKAnChLk1Lx4mAnHe8Ym4PPG+UFcnLkxWk7sC3U2oLDyRFJOEDeKC+w9Rx5ifMC+R0VV3LSMQuO9SDKmkhLpIlLCnAKQwnJwUCWcqRofX19WVkZrnQhIIca4GxLiJ2GIpEIdzLgIAJLnBgjIEFAXDwLQqAkHBwqFIvJC/xhQlpR4NSYlBBFpr9/PUcqFIcUVRksHGwQM62U8U/j8CbkBRJj+PqncTgJWynUX8+RlzgvkN9RMWiksxfiyiPLQKAl0lQSCrQkhZYcFe3h77//jrvFcLcQkFviCjZN7oo2md2PTgk5zPBGeYGc4nBweKXBC/xhQjrPgeG3OOe8iiD2CJ8gP8xRPAnSkjyJFGFyaPJGeYFECl95cdoObAu1tuBwckQSDpA3ygtsPUde4rxAfkclt+Fkw0ZZEyHSLJDDN+EQEQogFZkCEuIvjVFxGJX21rLjWF46lLAV4hwOeaO8QDZHslcCIsBJyAv8IQ7nPAflRQn/qMApIcstB8iJcjhHjiyQg88b5QUSD/jKi9N2YFuotQWHkyNbUk5yTpSTkDfKAfIS5wXyOyoZBIeVlqJE+o/aDSVsS45UfZCtcIqNqDiwpYTimFRA4udP4LCFYgkSTQJyiPMm5OAgygHyJuQFtiVhW3BY4hx83igvEERILLw4bQe2hVpbcDg5siXlJOdEOQl5oxwgL3Fe4N+OStL+nSNERHmBlIYXh1fQvEAO8bbg/PfnyMsVC+SUgjfKCwSRvx2VIxxWtqyIeK5iIdmxeBQW/0qk/25RSUptlD7hU4CTkDfKAZL8iQgFOJicKG/CtuCwCTn4vFFeIIdJXpy2A9tCrS04nBzZknKSc6KchLxRDpCXOC/w7xaVpP13i/ovUfxRY+Lg80Z5gSR6fOXFaTuwLdTagsPJEUk4QN4oL7D1HHmJ8wL/w45KbLXS6rI4LE9/opy8Sf4ikNgDHV5qreOwhSJMXiCHeFtweLniTcgL/BM5/p/2yiAFABCGYf//tcJkSAhS7zs2dh2OiZpzQ2SqVFghvSrqyWGSlnjQ8b4pyiFRqBJQwxXOQ+1pz496RvG7TPCrVNijr1P15DBJSzzoWCWAKhW+O2q4wh2+AKYtZsmLgTlLAAAAAElFTkSuQmCC;" parent="1" vertex="1">
                    <mxGeometry x="50" y="380" width="312" height="272" as="geometry"/>
                </mxCell>
                <mxCell id="3" value="" style="edgeStyle=orthogonalEdgeStyle;rounded=0;orthogonalLoop=1;jettySize=auto;html=1;strokeColor=#FFFFFF;" parent="1" source="5" target="6" edge="1">
                    <mxGeometry relative="1" as="geometry"/>
                </mxCell>
                <mxCell id="4" value="" style="edgeStyle=orthogonalEdgeStyle;rounded=0;orthogonalLoop=1;jettySize=auto;html=1;strokeColor=#FFFFFF;" parent="1" source="5" target="14" edge="1">
                    <mxGeometry relative="1" as="geometry"/>
                </mxCell>
                <mxCell id="5" value="device/keyboard.h &amp;amp;&amp;amp; device/keyboard.c&lt;br&gt;实现键盘输入" style="rounded=0;whiteSpace=wrap;html=1;strokeWidth=1;fontSize=24;" parent="1" vertex="1">
                    <mxGeometry x="525" y="450" width="550" height="80" as="geometry"/>
                </mxCell>
                <mxCell id="6" value="device/ioqueue.h &amp;amp;&amp;amp; device/ioqueue.c&lt;br&gt;io输入输出队列" style="rounded=0;whiteSpace=wrap;html=1;strokeWidth=1;fontSize=24;" parent="1" vertex="1">
                    <mxGeometry x="510" y="950" width="580" height="80" as="geometry"/>
                </mxCell>
                <mxCell id="7" value="" style="edgeStyle=orthogonalEdgeStyle;rounded=0;orthogonalLoop=1;jettySize=auto;html=1;strokeColor=#FFFFFF;" parent="1" source="8" target="11" edge="1">
                    <mxGeometry relative="1" as="geometry"/>
                </mxCell>
                <mxCell id="8" value="device/console.c &amp;amp;&amp;amp; device/console.h&lt;br&gt;用锁实现初始化终端与控制台" style="rounded=0;whiteSpace=wrap;html=1;strokeWidth=1;fontSize=24;" parent="1" vertex="1">
                    <mxGeometry x="557" y="90" width="490" height="80" as="geometry"/>
                </mxCell>
                <mxCell id="9" value="" style="endArrow=classic;html=1;strokeColor=#FFFFFF;exitX=0.5;exitY=1;exitDx=0;exitDy=0;entryX=0.5;entryY=0;entryDx=0;entryDy=0;" parent="1" source="8" target="5" edge="1">
                    <mxGeometry width="50" height="50" relative="1" as="geometry">
                        <mxPoint x="757" y="440" as="sourcePoint"/>
                        <mxPoint x="807" y="390" as="targetPoint"/>
                    </mxGeometry>
                </mxCell>
                <mxCell id="10" value="" style="edgeStyle=orthogonalEdgeStyle;rounded=0;orthogonalLoop=1;jettySize=auto;html=1;strokeColor=#FFFFFF;" parent="1" source="11" target="12" edge="1">
                    <mxGeometry relative="1" as="geometry"/>
                </mxCell>
                <mxCell id="11" value="thread/sync.h &amp;amp;&amp;amp; thread/sync.c&lt;br&gt;实现同步锁" style="rounded=0;whiteSpace=wrap;html=1;strokeWidth=1;fontSize=24;fillColor=#1ba1e2;strokeColor=#006EAF;fontColor=#ffffff;" parent="1" vertex="1">
                    <mxGeometry x="1202" y="90" width="370" height="80" as="geometry"/>
                </mxCell>
                <mxCell id="12" value="thread/thread.c &amp;amp;&amp;amp; thread/thread.h&lt;br&gt;添加了&lt;br&gt;thread_block &amp;amp;&amp;amp; thread_unblock" style="rounded=0;whiteSpace=wrap;html=1;strokeWidth=1;fontSize=24;fillColor=#1ba1e2;strokeColor=#006EAF;fontColor=#ffffff;" parent="1" vertex="1">
                    <mxGeometry x="1182" y="250" width="410" height="80" as="geometry"/>
                </mxCell>
                <mxCell id="13" value="" style="edgeStyle=orthogonalEdgeStyle;rounded=0;orthogonalLoop=1;jettySize=auto;html=1;strokeColor=#FFFFFF;" parent="1" source="14" target="16" edge="1">
                    <mxGeometry relative="1" as="geometry"/>
                </mxCell>
                <mxCell id="14" value="kernel/init.c &amp;amp;&amp;amp; kernel/init.h&lt;br&gt;添加了控制台的初始化" style="rounded=0;whiteSpace=wrap;html=1;strokeWidth=1;fontSize=24;fillColor=#1ba1e2;strokeColor=#006EAF;fontColor=#ffffff;" parent="1" vertex="1">
                    <mxGeometry x="1173.5" y="450" width="427" height="80" as="geometry"/>
                </mxCell>
                <mxCell id="15" value="" style="edgeStyle=orthogonalEdgeStyle;rounded=0;orthogonalLoop=1;jettySize=auto;html=1;strokeColor=#FFFFFF;" parent="1" source="16" target="17" edge="1">
                    <mxGeometry relative="1" as="geometry"/>
                </mxCell>
                <mxCell id="16" value="kernel/kernel.S&lt;br&gt;添加键盘中断处理程序" style="rounded=0;whiteSpace=wrap;html=1;strokeWidth=1;fontSize=24;fillColor=#a20025;strokeColor=#6F0000;fontColor=#ffffff;" parent="1" vertex="1">
                    <mxGeometry x="1173.5" y="610" width="427" height="80" as="geometry"/>
                </mxCell>
                <mxCell id="17" value="kernel/interrupt.c &amp;amp;&amp;amp; interrupt.h&lt;br&gt;pic_init 打开键盘中断" style="rounded=0;whiteSpace=wrap;html=1;strokeWidth=1;fontSize=24;fillColor=#1ba1e2;strokeColor=#006EAF;fontColor=#ffffff;" parent="1" vertex="1">
                    <mxGeometry x="1173.5" y="770" width="427" height="80" as="geometry"/>
                </mxCell>
                <mxCell id="18" value="" style="swimlane;startSize=0;strokeWidth=6;strokeColor=#00FFFF;" parent="1" vertex="1">
                    <mxGeometry x="480" y="20" width="1150" height="1110" as="geometry"/>
                </mxCell>
                <mxCell id="19" value="&lt;font style=&quot;font-size: 55px&quot;&gt;输入输出系统&lt;br&gt;6&lt;/font&gt;" style="rounded=0;whiteSpace=wrap;html=1;strokeWidth=1;strokeColor=#001DBC;fillColor=#0050ef;fontColor=#ffffff;" parent="18" vertex="1">
                    <mxGeometry x="729.27" y="875" width="362.73" height="190" as="geometry"/>
                </mxCell>
            </root>
        </mxGraphModel>
    </diagram>
    <diagram id="8dI-IX-tziJa1SLKlIuQ" name="thread/sync.h &amp;&amp; thread/sync.c">
        <mxGraphModel dx="2061" dy="1060" grid="1" gridSize="10" guides="1" tooltips="1" connect="1" arrows="1" fold="1" page="1" pageScale="1" pageWidth="827" pageHeight="1169" math="0" shadow="0">
            <root>
                <mxCell id="gXpQ8i5y_k5Xu-erbtzC-0"/>
                <mxCell id="gXpQ8i5y_k5Xu-erbtzC-1" parent="gXpQ8i5y_k5Xu-erbtzC-0"/>
                <mxCell id="wRs8n3rHyztwSf1pHQ5c-2" value="" style="edgeStyle=orthogonalEdgeStyle;rounded=0;orthogonalLoop=1;jettySize=auto;html=1;" parent="gXpQ8i5y_k5Xu-erbtzC-1" source="wRs8n3rHyztwSf1pHQ5c-0" target="wRs8n3rHyztwSf1pHQ5c-1" edge="1">
                    <mxGeometry relative="1" as="geometry"/>
                </mxCell>
                <mxCell id="wRs8n3rHyztwSf1pHQ5c-7" value="" style="edgeStyle=orthogonalEdgeStyle;rounded=0;orthogonalLoop=1;jettySize=auto;html=1;" parent="gXpQ8i5y_k5Xu-erbtzC-1" source="wRs8n3rHyztwSf1pHQ5c-0" target="wRs8n3rHyztwSf1pHQ5c-6" edge="1">
                    <mxGeometry relative="1" as="geometry"/>
                </mxCell>
                <mxCell id="wRs8n3rHyztwSf1pHQ5c-0" value="&lt;font style=&quot;font-size: 24px&quot;&gt;thread/sync.h&lt;/font&gt;" style="rounded=0;whiteSpace=wrap;html=1;fillColor=#1ba1e2;strokeColor=#006EAF;fontColor=#ffffff;" parent="gXpQ8i5y_k5Xu-erbtzC-1" vertex="1">
                    <mxGeometry x="304" y="130" width="220" height="60" as="geometry"/>
                </mxCell>
                <mxCell id="wRs8n3rHyztwSf1pHQ5c-5" value="" style="edgeStyle=orthogonalEdgeStyle;rounded=0;orthogonalLoop=1;jettySize=auto;html=1;" parent="gXpQ8i5y_k5Xu-erbtzC-1" source="wRs8n3rHyztwSf1pHQ5c-1" target="wRs8n3rHyztwSf1pHQ5c-4" edge="1">
                    <mxGeometry relative="1" as="geometry"/>
                </mxCell>
                <mxCell id="wRs8n3rHyztwSf1pHQ5c-1" value="&lt;div style=&quot;color: rgb(212 , 212 , 212) ; background-color: rgb(30 , 30 , 30) ; font-family: &amp;#34;droid sans mono&amp;#34; , monospace , monospace , &amp;#34;droid sans fallback&amp;#34; ; font-size: 16px ; line-height: 19px&quot;&gt;&lt;div&gt;&lt;span style=&quot;color: #6a9955&quot;&gt;// 信号量结构&lt;/span&gt;&lt;/div&gt;&lt;div&gt;&lt;span style=&quot;color: #569cd6&quot;&gt;struct&lt;/span&gt; &lt;span style=&quot;color: #4ec9b0&quot;&gt;semaphore&lt;/span&gt;&lt;/div&gt;&lt;div&gt;{&lt;/div&gt;&lt;div&gt;&lt;span style=&quot;color: #6a9955&quot;&gt;&amp;nbsp; &amp;nbsp; /** data **/&lt;/span&gt;&lt;/div&gt;&lt;div&gt;    &lt;span style=&quot;color: #4ec9b0&quot;&gt;&amp;nbsp; &amp;nbsp; uint8_t&lt;/span&gt; &lt;span style=&quot;color: #9cdcfe&quot;&gt;value&lt;/span&gt;;                       &lt;span style=&quot;color: #6a9955&quot;&gt;// 信号量的值&lt;/span&gt;&lt;/div&gt;&lt;div&gt;    &lt;span style=&quot;color: #569cd6&quot;&gt;&amp;nbsp; &amp;nbsp; struct&lt;/span&gt;  &lt;span style=&quot;color: #4ec9b0&quot;&gt;list&lt;/span&gt; &lt;span style=&quot;color: #9cdcfe&quot;&gt;waiters&lt;/span&gt;;                &lt;span style=&quot;color: #6a9955&quot;&gt;// 记录此信号量上等待阻塞的所有进程&lt;/span&gt;&lt;/div&gt;&lt;br&gt;&lt;div&gt;};&lt;/div&gt;&lt;/div&gt;" style="rounded=0;whiteSpace=wrap;html=1;align=left;" parent="gXpQ8i5y_k5Xu-erbtzC-1" vertex="1">
                    <mxGeometry x="-310" y="80" width="534" height="160" as="geometry"/>
                </mxCell>
                <mxCell id="wRs8n3rHyztwSf1pHQ5c-4" value="&lt;div style=&quot;color: rgb(212 , 212 , 212) ; background-color: rgb(30 , 30 , 30) ; font-family: &amp;#34;droid sans mono&amp;#34; , monospace , monospace , &amp;#34;droid sans fallback&amp;#34; ; font-size: 16px ; line-height: 19px&quot;&gt;&lt;div style=&quot;font-family: &amp;#34;droid sans mono&amp;#34; , monospace , monospace , &amp;#34;droid sans fallback&amp;#34; ; font-size: 14px ; line-height: 19px&quot;&gt;&lt;div&gt;&lt;span style=&quot;color: #6a9955&quot;&gt;// 锁结构&lt;/span&gt;&lt;/div&gt;&lt;div&gt;&lt;span style=&quot;color: #569cd6&quot;&gt;struct&lt;/span&gt; &lt;span style=&quot;color: #4ec9b0&quot;&gt;lock&lt;/span&gt; &lt;/div&gt;&lt;div&gt;{&lt;/div&gt;&lt;div&gt;&lt;span style=&quot;color: #6a9955&quot;&gt;&amp;nbsp; &amp;nbsp; /** data **/&lt;/span&gt;&lt;/div&gt;&lt;div&gt;&lt;span style=&quot;color: #569cd6&quot;&gt;&amp;nbsp; &amp;nbsp; struct&lt;/span&gt; &lt;span style=&quot;color: #4ec9b0&quot;&gt;task_struct&lt;/span&gt;* &lt;span style=&quot;color: #9cdcfe&quot;&gt;holder&lt;/span&gt;;         &lt;span style=&quot;color: #6a9955&quot;&gt;// 锁的持有者&lt;/span&gt;&lt;/div&gt;&lt;div&gt;&lt;span style=&quot;color: #569cd6&quot;&gt;&amp;nbsp; &amp;nbsp; struct&lt;/span&gt; &lt;span style=&quot;color: #4ec9b0&quot;&gt;semaphore&lt;/span&gt; &lt;span style=&quot;color: #9cdcfe&quot;&gt;semaphore&lt;/span&gt;;         &lt;span style=&quot;color: #6a9955&quot;&gt;// 用二元信号量实现锁&lt;/span&gt;&lt;/div&gt;&lt;div&gt;&lt;span style=&quot;color: #4ec9b0&quot;&gt;&amp;nbsp; &amp;nbsp; uint32_t&lt;/span&gt;  &lt;span style=&quot;color: #9cdcfe&quot;&gt;holder_repeat_nr&lt;/span&gt;;         &lt;span style=&quot;color: #6a9955&quot;&gt;// 锁的持有者重复申请锁的次数&lt;/span&gt;&lt;/div&gt;&lt;div&gt;    &lt;/div&gt;&lt;div style=&quot;font-size: 16px&quot;&gt;};&lt;/div&gt;&lt;/div&gt;&lt;/div&gt;" style="rounded=0;whiteSpace=wrap;html=1;align=left;" parent="gXpQ8i5y_k5Xu-erbtzC-1" vertex="1">
                    <mxGeometry x="-283" y="320" width="480" height="160" as="geometry"/>
                </mxCell>
                <mxCell id="wRs8n3rHyztwSf1pHQ5c-9" value="" style="edgeStyle=orthogonalEdgeStyle;rounded=0;orthogonalLoop=1;jettySize=auto;html=1;" parent="gXpQ8i5y_k5Xu-erbtzC-1" source="wRs8n3rHyztwSf1pHQ5c-6" target="wRs8n3rHyztwSf1pHQ5c-8" edge="1">
                    <mxGeometry relative="1" as="geometry"/>
                </mxCell>
                <mxCell id="wRs8n3rHyztwSf1pHQ5c-6" value="&lt;font style=&quot;font-size: 24px&quot;&gt;thread/sync.c&lt;/font&gt;" style="rounded=0;whiteSpace=wrap;html=1;" parent="gXpQ8i5y_k5Xu-erbtzC-1" vertex="1">
                    <mxGeometry x="304" y="555" width="220" height="60" as="geometry"/>
                </mxCell>
                <mxCell id="wRs8n3rHyztwSf1pHQ5c-11" value="" style="edgeStyle=orthogonalEdgeStyle;rounded=0;orthogonalLoop=1;jettySize=auto;html=1;fillColor=#60a917;strokeColor=#2D7600;" parent="gXpQ8i5y_k5Xu-erbtzC-1" source="wRs8n3rHyztwSf1pHQ5c-8" target="wRs8n3rHyztwSf1pHQ5c-10" edge="1">
                    <mxGeometry relative="1" as="geometry"/>
                </mxCell>
                <mxCell id="wRs8n3rHyztwSf1pHQ5c-8" value="&lt;span style=&quot;font-size: 24px&quot;&gt;void sema_init(struct semaphore* psema, uint8_t value)&lt;/span&gt;&lt;br&gt;&lt;span style=&quot;font-size: 24px&quot;&gt;初始化信号量&lt;/span&gt;" style="rounded=0;whiteSpace=wrap;html=1;fillColor=#60a917;strokeColor=#2D7600;fontColor=#ffffff;" parent="gXpQ8i5y_k5Xu-erbtzC-1" vertex="1">
                    <mxGeometry x="762" y="190" width="620" height="60" as="geometry"/>
                </mxCell>
                <mxCell id="wRs8n3rHyztwSf1pHQ5c-13" value="" style="edgeStyle=orthogonalEdgeStyle;rounded=0;orthogonalLoop=1;jettySize=auto;html=1;fillColor=#60a917;strokeColor=#2D7600;" parent="gXpQ8i5y_k5Xu-erbtzC-1" source="wRs8n3rHyztwSf1pHQ5c-10" target="wRs8n3rHyztwSf1pHQ5c-12" edge="1">
                    <mxGeometry relative="1" as="geometry"/>
                </mxCell>
                <mxCell id="wRs8n3rHyztwSf1pHQ5c-10" value="&lt;span style=&quot;font-size: 24px&quot;&gt;void lock_init(struct lock* plock)&lt;br&gt;&amp;nbsp;初始化锁plock&lt;/span&gt;" style="rounded=0;whiteSpace=wrap;html=1;fillColor=#60a917;strokeColor=#2D7600;fontColor=#ffffff;" parent="gXpQ8i5y_k5Xu-erbtzC-1" vertex="1">
                    <mxGeometry x="877" y="330" width="390" height="60" as="geometry"/>
                </mxCell>
                <mxCell id="wRs8n3rHyztwSf1pHQ5c-15" value="" style="edgeStyle=orthogonalEdgeStyle;rounded=0;orthogonalLoop=1;jettySize=auto;html=1;fillColor=#60a917;strokeColor=#2D7600;" parent="gXpQ8i5y_k5Xu-erbtzC-1" source="wRs8n3rHyztwSf1pHQ5c-12" target="wRs8n3rHyztwSf1pHQ5c-14" edge="1">
                    <mxGeometry relative="1" as="geometry"/>
                </mxCell>
                <mxCell id="wRs8n3rHyztwSf1pHQ5c-12" value="&lt;span style=&quot;font-size: 24px&quot;&gt;void sema_down(struct semaphore* psema)&lt;/span&gt;&lt;br&gt;&lt;span style=&quot;font-size: 24px&quot;&gt;信号量down操作&lt;/span&gt;" style="rounded=0;whiteSpace=wrap;html=1;fillColor=#60a917;strokeColor=#2D7600;fontColor=#ffffff;" parent="gXpQ8i5y_k5Xu-erbtzC-1" vertex="1">
                    <mxGeometry x="807" y="485" width="530" height="60" as="geometry"/>
                </mxCell>
                <mxCell id="wRs8n3rHyztwSf1pHQ5c-17" value="" style="edgeStyle=orthogonalEdgeStyle;rounded=0;orthogonalLoop=1;jettySize=auto;html=1;fillColor=#60a917;strokeColor=#2D7600;" parent="gXpQ8i5y_k5Xu-erbtzC-1" source="wRs8n3rHyztwSf1pHQ5c-14" target="wRs8n3rHyztwSf1pHQ5c-16" edge="1">
                    <mxGeometry relative="1" as="geometry"/>
                </mxCell>
                <mxCell id="wRs8n3rHyztwSf1pHQ5c-14" value="&lt;span style=&quot;font-size: 24px&quot;&gt;void sema_up(struct semaphore* psema)&lt;/span&gt;&lt;br&gt;&lt;span style=&quot;font-size: 24px&quot;&gt;信号量的up操作&lt;/span&gt;" style="rounded=0;whiteSpace=wrap;html=1;fillColor=#60a917;strokeColor=#2D7600;fontColor=#ffffff;" parent="gXpQ8i5y_k5Xu-erbtzC-1" vertex="1">
                    <mxGeometry x="807" y="625" width="530" height="60" as="geometry"/>
                </mxCell>
                <mxCell id="wRs8n3rHyztwSf1pHQ5c-19" value="" style="edgeStyle=orthogonalEdgeStyle;rounded=0;orthogonalLoop=1;jettySize=auto;html=1;fillColor=#60a917;strokeColor=#2D7600;" parent="gXpQ8i5y_k5Xu-erbtzC-1" source="wRs8n3rHyztwSf1pHQ5c-16" target="wRs8n3rHyztwSf1pHQ5c-18" edge="1">
                    <mxGeometry relative="1" as="geometry"/>
                </mxCell>
                <mxCell id="wRs8n3rHyztwSf1pHQ5c-16" value="&lt;span style=&quot;font-size: 24px&quot;&gt;void lock_acquire(struct lock* plock)&lt;/span&gt;&lt;br&gt;&lt;span style=&quot;font-size: 24px&quot;&gt;获取锁plock&lt;/span&gt;" style="rounded=0;whiteSpace=wrap;html=1;fillColor=#60a917;strokeColor=#2D7600;fontColor=#ffffff;" parent="gXpQ8i5y_k5Xu-erbtzC-1" vertex="1">
                    <mxGeometry x="807" y="765" width="530" height="60" as="geometry"/>
                </mxCell>
                <mxCell id="wRs8n3rHyztwSf1pHQ5c-18" value="&lt;span style=&quot;font-size: 24px&quot;&gt;void lock_release(struct lock* plock)&lt;/span&gt;&lt;br&gt;&lt;span style=&quot;font-size: 24px&quot;&gt;释放锁plock&lt;/span&gt;" style="rounded=0;whiteSpace=wrap;html=1;fillColor=#60a917;strokeColor=#2D7600;fontColor=#ffffff;" parent="gXpQ8i5y_k5Xu-erbtzC-1" vertex="1">
                    <mxGeometry x="807" y="905" width="530" height="60" as="geometry"/>
                </mxCell>
            </root>
        </mxGraphModel>
    </diagram>
    <diagram id="l6IAZfJ7kZJHfs9PtdkR" name="device/keyboard.h &amp;&amp; device/keyboard.h">
        <mxGraphModel dx="1234" dy="1060" grid="1" gridSize="10" guides="1" tooltips="1" connect="1" arrows="1" fold="1" page="1" pageScale="1" pageWidth="827" pageHeight="1169" math="0" shadow="0">
            <root>
                <mxCell id="WADWWVrK8cTbo4jh3qQ--0"/>
                <mxCell id="WADWWVrK8cTbo4jh3qQ--1" parent="WADWWVrK8cTbo4jh3qQ--0"/>
                <mxCell id="_MbSVeMcxkDFBkPfWEyd-2" value="" style="edgeStyle=orthogonalEdgeStyle;rounded=0;orthogonalLoop=1;jettySize=auto;html=1;entryX=0;entryY=0.5;entryDx=0;entryDy=0;" parent="WADWWVrK8cTbo4jh3qQ--1" source="_MbSVeMcxkDFBkPfWEyd-0" target="_MbSVeMcxkDFBkPfWEyd-3" edge="1">
                    <mxGeometry relative="1" as="geometry"/>
                </mxCell>
                <mxCell id="_MbSVeMcxkDFBkPfWEyd-0" value="device/keyboard.h &amp;amp;&amp;amp; device/keyboard.c&lt;br&gt;实现键盘输入" style="rounded=0;whiteSpace=wrap;html=1;strokeWidth=1;fontSize=24;" parent="WADWWVrK8cTbo4jh3qQ--1" vertex="1">
                    <mxGeometry x="90" y="380" width="550" height="80" as="geometry"/>
                </mxCell>
                <mxCell id="_MbSVeMcxkDFBkPfWEyd-4" value="" style="edgeStyle=orthogonalEdgeStyle;rounded=0;orthogonalLoop=1;jettySize=auto;html=1;fillColor=#60a917;strokeColor=#2D7600;" parent="WADWWVrK8cTbo4jh3qQ--1" source="_MbSVeMcxkDFBkPfWEyd-1" target="_MbSVeMcxkDFBkPfWEyd-3" edge="1">
                    <mxGeometry relative="1" as="geometry"/>
                </mxCell>
                <mxCell id="_MbSVeMcxkDFBkPfWEyd-1" value="static char keymap[ ][2]&amp;nbsp;&lt;br&gt;以通码make_code为索引的二维数组,定义了与shift组合时的字符效果。数组范围是0~0x3A" style="rounded=0;whiteSpace=wrap;html=1;strokeWidth=1;fontSize=24;fillColor=#60a917;strokeColor=#2D7600;fontColor=#ffffff;" parent="WADWWVrK8cTbo4jh3qQ--1" vertex="1">
                    <mxGeometry x="750" y="220" width="990" height="80" as="geometry"/>
                </mxCell>
                <mxCell id="HTiPaeZhJ7mMJgmysA6D-1" value="" style="edgeStyle=orthogonalEdgeStyle;rounded=0;orthogonalLoop=1;jettySize=auto;html=1;fillColor=#60a917;strokeColor=#2D7600;" parent="WADWWVrK8cTbo4jh3qQ--1" source="_MbSVeMcxkDFBkPfWEyd-3" target="HTiPaeZhJ7mMJgmysA6D-0" edge="1">
                    <mxGeometry relative="1" as="geometry"/>
                </mxCell>
                <mxCell id="HTiPaeZhJ7mMJgmysA6D-3" value="" style="edgeStyle=orthogonalEdgeStyle;rounded=0;orthogonalLoop=1;jettySize=auto;html=1;" parent="WADWWVrK8cTbo4jh3qQ--1" source="_MbSVeMcxkDFBkPfWEyd-3" target="HTiPaeZhJ7mMJgmysA6D-2" edge="1">
                    <mxGeometry relative="1" as="geometry"/>
                </mxCell>
                <mxCell id="_MbSVeMcxkDFBkPfWEyd-3" value="static void intr_keyboard_handler(void)&lt;br&gt;键盘中断处理程序" style="rounded=0;whiteSpace=wrap;html=1;strokeWidth=1;fontSize=24;fillColor=#a20025;strokeColor=#6F0000;fontColor=#ffffff;" parent="WADWWVrK8cTbo4jh3qQ--1" vertex="1">
                    <mxGeometry x="750" y="380" width="990" height="80" as="geometry"/>
                </mxCell>
                <mxCell id="HTiPaeZhJ7mMJgmysA6D-0" value="void keyboard_init(void)&lt;br&gt;键盘初始化" style="rounded=0;whiteSpace=wrap;html=1;strokeWidth=1;fontSize=24;fillColor=#60a917;strokeColor=#2D7600;fontColor=#ffffff;" parent="WADWWVrK8cTbo4jh3qQ--1" vertex="1">
                    <mxGeometry x="750" y="540" width="990" height="80" as="geometry"/>
                </mxCell>
                <mxCell id="HTiPaeZhJ7mMJgmysA6D-2" value="本来想写流程的写了一遍感觉，没有注释太难处理了，都要进行条件判读判断&lt;br&gt;主要实现部分" style="rounded=0;whiteSpace=wrap;html=1;strokeWidth=1;fontSize=24;" parent="WADWWVrK8cTbo4jh3qQ--1" vertex="1">
                    <mxGeometry x="1820" y="380" width="990" height="80" as="geometry"/>
                </mxCell>
            </root>
        </mxGraphModel>
    </diagram>
    <diagram id="SW8eIkyT_ThZkeTIJYtT" name="device/ioqueue.c &amp;&amp; device/ioqueue.h">
        <mxGraphModel dx="1855" dy="2052" grid="1" gridSize="10" guides="1" tooltips="1" connect="1" arrows="1" fold="1" page="1" pageScale="1" pageWidth="827" pageHeight="1169" math="0" shadow="0">
            <root>
                <mxCell id="74aeU3dhULP-S1SbTbjL-0"/>
                <mxCell id="74aeU3dhULP-S1SbTbjL-1" parent="74aeU3dhULP-S1SbTbjL-0"/>
                <mxCell id="74aeU3dhULP-S1SbTbjL-4" value="" style="edgeStyle=orthogonalEdgeStyle;rounded=0;orthogonalLoop=1;jettySize=auto;html=1;fontSize=24;" parent="74aeU3dhULP-S1SbTbjL-1" source="74aeU3dhULP-S1SbTbjL-2" target="74aeU3dhULP-S1SbTbjL-3" edge="1">
                    <mxGeometry relative="1" as="geometry"/>
                </mxCell>
                <mxCell id="ZhxDS3ITG3kzXpSBGgXr-3" value="" style="edgeStyle=orthogonalEdgeStyle;rounded=0;orthogonalLoop=1;jettySize=auto;html=1;fontSize=24;" parent="74aeU3dhULP-S1SbTbjL-1" source="74aeU3dhULP-S1SbTbjL-2" target="ZhxDS3ITG3kzXpSBGgXr-2" edge="1">
                    <mxGeometry relative="1" as="geometry"/>
                </mxCell>
                <mxCell id="74aeU3dhULP-S1SbTbjL-2" value="device/ioqueue.h" style="rounded=0;whiteSpace=wrap;html=1;fillColor=#1ba1e2;strokeColor=#006EAF;fontColor=#ffffff;fontSize=24;" parent="74aeU3dhULP-S1SbTbjL-1" vertex="1">
                    <mxGeometry x="250" y="150" width="260" height="60" as="geometry"/>
                </mxCell>
                <mxCell id="74aeU3dhULP-S1SbTbjL-3" value="&lt;div style=&quot;color: rgb(212 , 212 , 212) ; background-color: rgb(30 , 30 , 30) ; font-family: &amp;#34;droid sans mono&amp;#34; , monospace , monospace , &amp;#34;droid sans fallback&amp;#34; ; font-size: 16px ; line-height: 19px&quot;&gt;&lt;div&gt;&lt;span style=&quot;color: #6a9955&quot;&gt;// 环形缓冲区&lt;/span&gt;&lt;/div&gt;&lt;div&gt;&lt;span style=&quot;color: #569cd6&quot;&gt;struct&lt;/span&gt; &lt;span style=&quot;color: #4ec9b0&quot;&gt;ioqueue&lt;/span&gt;&lt;/div&gt;&lt;div&gt;{&lt;/div&gt;&lt;div&gt;&lt;span style=&quot;color: #6a9955&quot;&gt;&amp;nbsp; &amp;nbsp; /**&lt;/span&gt;&lt;/div&gt;&lt;div&gt;&lt;span style=&quot;color: #6a9955&quot;&gt;&amp;nbsp; &amp;nbsp; * &lt;/span&gt;&lt;span style=&quot;color: #569cd6&quot;&gt;@brief&lt;/span&gt;&lt;span style=&quot;color: #6a9955&quot;&gt; &lt;/span&gt;&lt;/div&gt;&lt;div&gt;&lt;span style=&quot;color: #6a9955&quot;&gt;&amp;nbsp; &amp;nbsp; * 解决，用于输入输出的环形缓冲区的生产者-消费者问题&lt;/span&gt;&lt;/div&gt;&lt;div&gt;&lt;span style=&quot;color: #6a9955&quot;&gt;&amp;nbsp; &amp;nbsp; */&lt;/span&gt;&lt;/div&gt;&lt;div&gt;    &lt;/div&gt;&lt;div&gt;    &lt;span style=&quot;color: #569cd6&quot;&gt;&amp;nbsp; &amp;nbsp; struct&lt;/span&gt;  &lt;span style=&quot;color: #4ec9b0&quot;&gt;lock&lt;/span&gt;         &lt;span style=&quot;color: #9cdcfe&quot;&gt;lock&lt;/span&gt;;&amp;nbsp; &amp;nbsp; &amp;nbsp; &amp;nbsp; &amp;nbsp; &amp;nbsp; &amp;nbsp; &amp;nbsp;&lt;span style=&quot;color: #6a9955&quot;&gt;// 本缓冲区的锁&lt;/span&gt;&lt;/div&gt;&lt;br&gt;&lt;div&gt;    &lt;span style=&quot;color: #6a9955&quot;&gt;// 生产者,缓冲区不满时就继续往里面放数据,否则就睡眠,此项记录哪个生产者在此缓冲区上睡眠。&lt;/span&gt;&lt;/div&gt;&lt;div&gt;    &lt;span style=&quot;color: #569cd6&quot;&gt;&amp;nbsp; &amp;nbsp; struct&lt;/span&gt;  &lt;span style=&quot;color: #4ec9b0&quot;&gt;task_struct&lt;/span&gt;* &lt;span style=&quot;color: #9cdcfe&quot;&gt;producer&lt;/span&gt;;&amp;nbsp; &amp;nbsp;&lt;span style=&quot;color: #6a9955&quot;&gt;// 生产者&lt;/span&gt;&lt;/div&gt;&lt;br&gt;&lt;div&gt;    &lt;span style=&quot;color: #6a9955&quot;&gt;// 消费者,缓冲区不空时就继续从往里面拿数据,否则就睡眠,此项记录哪个消费者在此缓冲区上睡眠。&lt;/span&gt;&lt;/div&gt;&lt;div&gt;    &lt;span style=&quot;color: #569cd6&quot;&gt;&amp;nbsp; &amp;nbsp; struct&lt;/span&gt;  &lt;span style=&quot;color: #4ec9b0&quot;&gt;task_struct&lt;/span&gt;* &lt;span style=&quot;color: #9cdcfe&quot;&gt;consumer&lt;/span&gt;;&amp;nbsp; &amp;nbsp;&lt;span style=&quot;color: #6a9955&quot;&gt;// 消费者&lt;/span&gt;&lt;/div&gt;&lt;br&gt;&lt;div&gt;    &lt;span style=&quot;color: #569cd6&quot;&gt;&amp;nbsp; &amp;nbsp; char&lt;/span&gt;    &lt;span style=&quot;color: #9cdcfe&quot;&gt;buf&lt;/span&gt;[&lt;span style=&quot;color: #569cd6&quot;&gt;bufsize&lt;/span&gt;];&amp;nbsp; &amp;nbsp; &amp;nbsp; &amp;nbsp; &amp;nbsp; &amp;nbsp; &amp;nbsp;&amp;nbsp;&lt;span style=&quot;color: #6a9955&quot;&gt;// 缓冲区大小&lt;/span&gt;&lt;/div&gt;&lt;div&gt;    &lt;span style=&quot;color: #4ec9b0&quot;&gt;&amp;nbsp; &amp;nbsp; int32_t&lt;/span&gt; &lt;span style=&quot;color: #9cdcfe&quot;&gt;head&lt;/span&gt;;&amp;nbsp; &amp;nbsp; &amp;nbsp; &amp;nbsp; &amp;nbsp; &amp;nbsp; &amp;nbsp; &amp;nbsp; &amp;nbsp; &amp;nbsp;&lt;span style=&quot;color: #6a9955&quot;&gt;// 队首，数据往队首写入&lt;/span&gt;&lt;/div&gt;&lt;div&gt;    &lt;span style=&quot;color: #4ec9b0&quot;&gt;&amp;nbsp; &amp;nbsp; int32_t&lt;/span&gt; &lt;span style=&quot;color: #9cdcfe&quot;&gt;tail&lt;/span&gt;;&amp;nbsp; &amp;nbsp; &amp;nbsp; &amp;nbsp; &amp;nbsp; &amp;nbsp; &amp;nbsp; &amp;nbsp; &amp;nbsp; &amp;nbsp;&lt;span style=&quot;color: #6a9955&quot;&gt;// 队尾,数据从队尾处读出&lt;/span&gt;&lt;/div&gt;&lt;div&gt;};&lt;/div&gt;&lt;/div&gt;" style="rounded=0;whiteSpace=wrap;html=1;fontSize=24;align=left;" parent="74aeU3dhULP-S1SbTbjL-1" vertex="1">
                    <mxGeometry x="-600" width="740" height="360" as="geometry"/>
                </mxCell>
                <mxCell id="ZhxDS3ITG3kzXpSBGgXr-2" value="device/ioqueue.c" style="rounded=0;whiteSpace=wrap;html=1;fontSize=24;fillColor=#a20025;strokeColor=#6F0000;fontColor=#ffffff;" parent="74aeU3dhULP-S1SbTbjL-1" vertex="1">
                    <mxGeometry x="250" y="770" width="260" height="60" as="geometry"/>
                </mxCell>
                <mxCell id="ZhxDS3ITG3kzXpSBGgXr-10" value="" style="edgeStyle=orthogonalEdgeStyle;rounded=0;orthogonalLoop=1;jettySize=auto;html=1;fontSize=24;fillColor=#60a917;strokeColor=#FFFFFF;" parent="74aeU3dhULP-S1SbTbjL-1" source="ZhxDS3ITG3kzXpSBGgXr-4" target="ZhxDS3ITG3kzXpSBGgXr-9" edge="1">
                    <mxGeometry relative="1" as="geometry"/>
                </mxCell>
                <mxCell id="ZhxDS3ITG3kzXpSBGgXr-4" value="void ioqueue_init(struct ioqueue* ioq)&lt;br&gt;初始化io队列ioqueue" style="rounded=0;whiteSpace=wrap;html=1;fontSize=24;fillColor=#60a917;strokeColor=#2D7600;fontColor=#ffffff;" parent="74aeU3dhULP-S1SbTbjL-1" vertex="1">
                    <mxGeometry x="1510" y="-45" width="540" height="90" as="geometry"/>
                </mxCell>
                <mxCell id="ZhxDS3ITG3kzXpSBGgXr-6" value="" style="endArrow=classic;html=1;fontSize=24;exitX=1;exitY=0;exitDx=0;exitDy=0;entryX=0;entryY=0.5;entryDx=0;entryDy=0;" parent="74aeU3dhULP-S1SbTbjL-1" source="ZhxDS3ITG3kzXpSBGgXr-2" target="ZhxDS3ITG3kzXpSBGgXr-7" edge="1">
                    <mxGeometry width="50" height="50" relative="1" as="geometry">
                        <mxPoint x="770" y="410" as="sourcePoint"/>
                        <mxPoint x="550" y="340" as="targetPoint"/>
                    </mxGeometry>
                </mxCell>
                <mxCell id="ZhxDS3ITG3kzXpSBGgXr-7" value="设置初始环境，并为下面&lt;br&gt;生产者-消费者的处理实现所需函数" style="rounded=0;whiteSpace=wrap;html=1;fontSize=24;fillColor=#d80073;strokeColor=#A50040;fontColor=#ffffff;" parent="74aeU3dhULP-S1SbTbjL-1" vertex="1">
                    <mxGeometry x="690" y="310" width="640" height="60" as="geometry"/>
                </mxCell>
                <mxCell id="ZhxDS3ITG3kzXpSBGgXr-12" value="" style="edgeStyle=orthogonalEdgeStyle;rounded=0;orthogonalLoop=1;jettySize=auto;html=1;fontSize=24;fillColor=#60a917;strokeColor=#FFFFFF;" parent="74aeU3dhULP-S1SbTbjL-1" source="ZhxDS3ITG3kzXpSBGgXr-9" target="ZhxDS3ITG3kzXpSBGgXr-11" edge="1">
                    <mxGeometry relative="1" as="geometry"/>
                </mxCell>
                <mxCell id="ZhxDS3ITG3kzXpSBGgXr-9" value="static int32_t next_pos(int32_t pos)&lt;br&gt;返回pos在缓冲区中的下一个位置值" style="rounded=0;whiteSpace=wrap;html=1;fontSize=24;fillColor=#60a917;strokeColor=#2D7600;fontColor=#ffffff;" parent="74aeU3dhULP-S1SbTbjL-1" vertex="1">
                    <mxGeometry x="1510" y="125" width="540" height="90" as="geometry"/>
                </mxCell>
                <mxCell id="ZhxDS3ITG3kzXpSBGgXr-14" value="" style="edgeStyle=orthogonalEdgeStyle;rounded=0;orthogonalLoop=1;jettySize=auto;html=1;fontSize=24;fillColor=#60a917;strokeColor=#FFFFFF;" parent="74aeU3dhULP-S1SbTbjL-1" source="ZhxDS3ITG3kzXpSBGgXr-11" target="ZhxDS3ITG3kzXpSBGgXr-13" edge="1">
                    <mxGeometry relative="1" as="geometry"/>
                </mxCell>
                <mxCell id="ZhxDS3ITG3kzXpSBGgXr-11" value="bool ioq_full(struct ioqueue* ioq)&lt;br&gt;判断队列是否已满" style="rounded=0;whiteSpace=wrap;html=1;fontSize=24;fillColor=#60a917;strokeColor=#2D7600;fontColor=#ffffff;" parent="74aeU3dhULP-S1SbTbjL-1" vertex="1">
                    <mxGeometry x="1510" y="295" width="540" height="90" as="geometry"/>
                </mxCell>
                <mxCell id="ZhxDS3ITG3kzXpSBGgXr-16" value="" style="edgeStyle=orthogonalEdgeStyle;rounded=0;orthogonalLoop=1;jettySize=auto;html=1;fontSize=24;fillColor=#60a917;strokeColor=#FFFFFF;" parent="74aeU3dhULP-S1SbTbjL-1" source="ZhxDS3ITG3kzXpSBGgXr-13" target="ZhxDS3ITG3kzXpSBGgXr-15" edge="1">
                    <mxGeometry relative="1" as="geometry"/>
                </mxCell>
                <mxCell id="ZhxDS3ITG3kzXpSBGgXr-13" value="bool ioq_empty(struct ioqueue* ioq)&lt;br&gt;判断队列是否已空" style="rounded=0;whiteSpace=wrap;html=1;fontSize=24;fillColor=#60a917;strokeColor=#2D7600;fontColor=#ffffff;" parent="74aeU3dhULP-S1SbTbjL-1" vertex="1">
                    <mxGeometry x="1510" y="465" width="540" height="90" as="geometry"/>
                </mxCell>
                <mxCell id="ZhxDS3ITG3kzXpSBGgXr-15" value="static void ioq_wait(struct task_struct** waiter)&lt;br&gt;使当前生产者或消费者在此缓冲区上等待" style="rounded=0;whiteSpace=wrap;html=1;fontSize=24;fillColor=#60a917;strokeColor=#2D7600;fontColor=#ffffff;" parent="74aeU3dhULP-S1SbTbjL-1" vertex="1">
                    <mxGeometry x="1510" y="635" width="540" height="90" as="geometry"/>
                </mxCell>
                <mxCell id="ZhxDS3ITG3kzXpSBGgXr-17" value="" style="endArrow=classic;html=1;fontSize=24;exitX=1;exitY=0;exitDx=0;exitDy=0;entryX=0;entryY=0.5;entryDx=0;entryDy=0;" parent="74aeU3dhULP-S1SbTbjL-1" source="ZhxDS3ITG3kzXpSBGgXr-7" target="ZhxDS3ITG3kzXpSBGgXr-4" edge="1">
                    <mxGeometry width="50" height="50" relative="1" as="geometry">
                        <mxPoint x="1710" y="530" as="sourcePoint"/>
                        <mxPoint x="1760" y="480" as="targetPoint"/>
                    </mxGeometry>
                </mxCell>
                <mxCell id="ZhxDS3ITG3kzXpSBGgXr-18" value="" style="endArrow=classic;html=1;fontSize=24;exitX=1;exitY=0.75;exitDx=0;exitDy=0;entryX=0;entryY=0.5;entryDx=0;entryDy=0;" parent="74aeU3dhULP-S1SbTbjL-1" source="ZhxDS3ITG3kzXpSBGgXr-7" target="ZhxDS3ITG3kzXpSBGgXr-15" edge="1">
                    <mxGeometry width="50" height="50" relative="1" as="geometry">
                        <mxPoint x="1340" y="320" as="sourcePoint"/>
                        <mxPoint x="1520" y="10" as="targetPoint"/>
                    </mxGeometry>
                </mxCell>
                <mxCell id="ZhxDS3ITG3kzXpSBGgXr-24" value="" style="edgeStyle=orthogonalEdgeStyle;rounded=0;orthogonalLoop=1;jettySize=auto;html=1;fontSize=24;entryX=0;entryY=0.5;entryDx=0;entryDy=0;" parent="74aeU3dhULP-S1SbTbjL-1" source="ZhxDS3ITG3kzXpSBGgXr-19" target="ZhxDS3ITG3kzXpSBGgXr-23" edge="1">
                    <mxGeometry relative="1" as="geometry"/>
                </mxCell>
                <mxCell id="ZhxDS3ITG3kzXpSBGgXr-19" value="生产者-消费者缓冲区的处理" style="rounded=0;whiteSpace=wrap;html=1;fontSize=24;fillColor=#f0a30a;strokeColor=#BD7000;fontColor=#000000;" parent="74aeU3dhULP-S1SbTbjL-1" vertex="1">
                    <mxGeometry x="690" y="1230" width="640" height="60" as="geometry"/>
                </mxCell>
                <mxCell id="ZhxDS3ITG3kzXpSBGgXr-21" value="" style="endArrow=classic;html=1;fontSize=24;exitX=1;exitY=0.75;exitDx=0;exitDy=0;entryX=0;entryY=0.5;entryDx=0;entryDy=0;" parent="74aeU3dhULP-S1SbTbjL-1" source="ZhxDS3ITG3kzXpSBGgXr-2" target="ZhxDS3ITG3kzXpSBGgXr-19" edge="1">
                    <mxGeometry width="50" height="50" relative="1" as="geometry">
                        <mxPoint x="520" y="565" as="sourcePoint"/>
                        <mxPoint x="450" y="910" as="targetPoint"/>
                    </mxGeometry>
                </mxCell>
                <mxCell id="ZhxDS3ITG3kzXpSBGgXr-26" value="" style="edgeStyle=orthogonalEdgeStyle;rounded=0;orthogonalLoop=1;jettySize=auto;html=1;fontSize=24;fillColor=#60a917;strokeColor=#FFFFFF;" parent="74aeU3dhULP-S1SbTbjL-1" source="ZhxDS3ITG3kzXpSBGgXr-23" target="ZhxDS3ITG3kzXpSBGgXr-25" edge="1">
                    <mxGeometry relative="1" as="geometry"/>
                </mxCell>
                <mxCell id="ZhxDS3ITG3kzXpSBGgXr-23" value="char ioq_getchar(struct ioqueue* ioq)&lt;br&gt;消费者从ioq队列中获取一个字符&lt;br&gt;" style="rounded=0;whiteSpace=wrap;html=1;fontSize=24;fillColor=#60a917;strokeColor=#2D7600;fontColor=#ffffff;" parent="74aeU3dhULP-S1SbTbjL-1" vertex="1">
                    <mxGeometry x="1520" y="1090" width="640" height="100" as="geometry"/>
                </mxCell>
                <mxCell id="ZhxDS3ITG3kzXpSBGgXr-25" value="void ioq_putchar(struct ioqueue* ioq, char byte)&lt;br&gt;生产者往ioq队列中写入一个字符byte&amp;nbsp;" style="rounded=0;whiteSpace=wrap;html=1;fontSize=24;fillColor=#60a917;strokeColor=#2D7600;fontColor=#ffffff;" parent="74aeU3dhULP-S1SbTbjL-1" vertex="1">
                    <mxGeometry x="1520" y="1270" width="640" height="100" as="geometry"/>
                </mxCell>
            </root>
        </mxGraphModel>
    </diagram>
</mxfile>